<svg width="164" height="88" viewBox="0 0 164 88" fill="none" xmlns="http://www.w3.org/2000/svg">
<g id="request">
<g id="Group 9608">
<path id="Vector" d="M83.49 6.87844C82.7092 6.09831 81.4439 6.09829 80.663 6.87838L47.8333 39.674V69.4443H116.317V39.674L83.49 6.87844Z" fill="#8AB4FF"/>
<path id="Vector_2" d="M103.374 29.5283H60.7763C59.7114 29.5283 58.6464 30.596 58.6464 31.6637V74.7992H105.504V31.6637C105.504 30.596 104.439 29.5283 103.374 29.5283Z" fill="#EBF2FF"/>
<path id="Vector_3" d="M90.4462 34.6052C89.7271 34.0875 88.7341 34.2773 88.2204 35.002L81.173 42.0517L77.5433 38.3936C76.927 37.7724 75.8997 37.7724 75.2834 38.3936C74.667 39.0148 74.667 40.0501 75.2834 40.6713L80.2484 45.6753C80.5566 45.9858 80.9675 46.1411 81.3784 46.1411C81.3784 46.1411 81.3784 46.1411 81.3955 46.1411C81.3955 46.1411 81.5154 46.1411 81.5496 46.1411C81.9948 46.1066 82.4228 45.8651 82.7138 45.4682L90.8571 36.8483C91.3536 36.1064 91.1652 35.1056 90.4462 34.6052Z" fill="#8AB4FF"/>
<g id="envelope">
<path id="Vector_4" d="M116.317 40.086L116.28 81.1575H88.3827V54.1246L112.883 38.3566C113.527 37.9243 114.385 37.7081 115.029 38.1404C115.888 38.3566 116.317 39.2213 116.317 40.086Z" fill="#B8D2FF"/>
<path id="Vector_5" d="M47.8333 40.086L47.8702 81.1575H75.7673V54.1246L51.2668 38.3566C50.623 37.9243 49.7646 37.7081 49.1208 38.1404C48.2625 38.3566 47.8333 39.2213 47.8333 40.086Z" fill="#B8D2FF"/>
<path id="Vector_6" d="M83.2994 49.1719C82.521 48.4178 81.2835 48.4209 80.5089 49.179L47.8333 81.1576H116.317L83.2994 49.1719Z" fill="url(#paint0_linear_14327_153962)"/>
</g>
</g>
</g>
<defs>
<linearGradient id="paint0_linear_14327_153962" x1="74.8662" y1="41.0587" x2="74.0483" y2="85.2813" gradientUnits="userSpaceOnUse">
<stop stop-color="#EBF2FF"/>
<stop offset="1" stop-color="#C0D7FF"/>
</linearGradient>
</defs>
</svg>
