<svg width="88" height="60" viewBox="0 0 88 60" fill="none" xmlns="http://www.w3.org/2000/svg">
<path fill-rule="evenodd" clip-rule="evenodd" d="M40.7875 16.441L40.9028 16.4451C42.5367 16.4451 44.1048 17.0947 45.2612 18.2499C46.4177 19.4052 47.068 20.9716 47.068 22.6038V39.2956C47.068 40.9318 46.4177 42.4982 45.2612 43.6576C44.1006 44.8129 42.5326 45.4625 40.8946 45.4625H28.5476C28.1278 45.4625 27.7162 45.594 27.3705 45.8325L16.2007 53.6151V47.5181C16.2007 46.3834 15.2788 45.4625 14.1429 45.4625C14.1429 45.4625 18.15 45.4625 10.2891 45.4625C6.88136 45.4625 4.11565 42.7038 4.11565 39.2956C4.11565 34.2099 4.11565 27.7018 4.11565 22.612C4.11565 19.2079 6.88136 16.4451 10.2891 16.4451H26.5272C27.6631 16.4451 28.585 15.5242 28.585 14.3895C28.585 13.2547 27.6631 12.3338 26.5272 12.3338H10.2891C4.60541 12.3338 0 16.9343 0 22.612C0 27.7018 0 34.2099 0 39.2956C0 44.9732 4.60541 49.5737 10.2891 49.5737H12.085V57.5578C12.085 58.3225 12.5131 59.0256 13.1921 59.3791C13.8712 59.7327 14.6903 59.6834 15.3199 59.2435L29.1938 49.5737H40.8946C43.6232 49.5737 46.2408 48.4925 48.171 46.5643C50.1012 44.6361 51.1837 42.0213 51.1837 39.2956C51.1837 34.2058 51.1837 27.6936 51.1837 22.6038C51.1837 19.878 50.1012 17.2673 48.171 15.3433C46.2449 13.4151 43.6315 12.3338 40.9028 12.3338C39.8739 12.3338 38.775 13.3411 38.8367 14.3895C38.9026 15.4872 39.701 16.3875 40.7875 16.441ZM42.8581 39.0571H42.9898C43.71 39.0037 44.2904 38.0334 44.4015 37.0467C44.5126 36.0764 44.1669 35.0897 43.0433 34.9499L42.9898 34.9458C39.582 34.9458 36.8163 32.1831 36.8163 28.7789V10.2782C36.8163 6.87405 39.582 4.11127 42.9898 4.11127H77.7109C81.1186 4.11127 83.8844 6.87405 83.8844 10.2782V28.7789C83.8844 32.1831 81.1186 34.9458 77.7109 34.9458C71.9819 34.9458 71.6497 34.9458 71.6497 34.9458C70.5137 34.9458 69.5918 35.8668 69.5918 37.0015V43.2835L62.633 35.3282C62.2832 35.0815 61.8634 34.9458 61.4354 34.9458H55.2619C54.126 34.9458 53.2041 35.8668 53.2041 37.0015C53.2041 38.1362 54.126 39.0571 55.2619 39.0571H60.7769L70.452 48.953C71.0817 49.4011 71.9048 49.4586 72.5921 49.1092C73.2753 48.7556 73.7075 48.0485 73.7075 47.2797V39.0571H77.7109C83.3946 39.0571 88 34.4566 88 28.7789V10.2782C88 4.69096 83.5345 0.143892 77.9784 0.00410902L77.7109 0C65.0594 0 55.6413 0 42.9898 0C37.3061 0 32.7007 4.60052 32.7007 10.2782V28.7789C32.7007 34.4114 37.2361 38.9872 42.8581 39.0571Z" fill="#2E3A4B"/>
</svg>
