<svg width="58" height="50" viewBox="0 0 58 50" fill="none" xmlns="http://www.w3.org/2000/svg">
<g clip-path="url(#clip0_18173_139091)">
<mask id="mask0_18173_139091" style="mask-type:luminance" maskUnits="userSpaceOnUse" x="0" y="7" width="58" height="36">
<path d="M57.7143 7.14282H0.571411V42.8571H57.7143V7.14282Z" fill="white"/>
</mask>
<g mask="url(#mask0_18173_139091)">
<path d="M3.09757 33.7625C3.09757 34.3941 2.5863 34.9053 1.95477 34.9053C1.32325 34.9053 0.811996 34.3941 0.811996 33.7625C0.811996 33.1309 1.32325 32.6197 1.95477 32.6197C2.5863 32.6197 3.09757 33.1309 3.09757 33.7625ZM1.95477 32.3792C1.20295 32.3792 0.571411 32.9806 0.571411 33.7625C0.571411 34.5143 1.17285 35.1458 1.95477 35.1458C2.70661 35.1458 3.33814 34.5444 3.33814 33.7625C3.33814 33.0107 2.73669 32.3792 1.95477 32.3792Z" fill="#2E3A4B" fill-opacity="0.7"/>
<path d="M1.74538 33.1913C1.74538 33.1311 1.77543 33.101 1.86566 33.101C1.95587 33.101 2.22652 33.101 2.22652 33.4017C2.22652 33.7025 1.92579 33.7025 1.74538 33.7326V33.1913ZM2.67764 34.4242C2.58742 34.4242 2.55737 34.3942 2.4972 34.334L2.07617 33.7927C2.16639 33.7626 2.43704 33.7326 2.43704 33.4318C2.43704 33.101 2.10626 33.0409 1.92582 33.0409H1.35443V33.0709C1.50478 33.101 1.53486 33.101 1.53486 33.2814V34.2438C1.53486 34.3942 1.53486 34.4543 1.35443 34.4543V34.5145H1.92582V34.4543C1.77543 34.4543 1.74538 34.3942 1.74538 34.2738V33.8529H1.86566L2.34685 34.5145H2.67764V34.4242Z" fill="#2E3A4B" fill-opacity="0.7"/>
<path d="M23.8025 31.831C23.6846 30.1506 22.9181 13.9954 22.9181 13.9954C22.9181 13.9954 23.0361 12.7572 21.9747 12.7572C20.9135 12.7572 16.5798 12.7572 16.5798 12.7572C16.5798 12.7572 15.7249 12.8751 16.1966 13.5237C16.6387 14.2017 16.2261 14.5555 15.9312 15.0272C15.6069 15.5284 0.955224 41.6185 0.955224 41.6185C0.955224 41.6185 -0.19451 42.8567 1.48587 42.8567C3.16625 42.8567 5.6426 42.8567 5.6426 42.8567C5.6426 42.8567 6.79233 42.7387 5.84897 41.8838C5.84897 41.8838 5.67208 41.7659 6.0848 40.9994C6.49754 40.2329 12.1578 28.7945 12.1578 28.7945H19.0267V33.9831H24.6574C24.6279 33.9831 23.9204 33.5114 23.8025 31.831ZM14.1919 25.1389L18.5255 17.2972L18.6729 25.1389H14.1919Z" fill="#2E3A4B" fill-opacity="0.7"/>
<path d="M44.9398 7.15636H39.9871C40.8715 7.62804 40.1345 8.83674 40.1345 8.83674L29.4331 26.7903C29.4331 26.7903 28.873 14.9687 28.7256 13.8189C28.6077 12.6692 27.6348 12.7576 27.6348 12.7576H23.3602C24.1562 13.1114 24.0972 14.5265 24.0972 14.5265C24.0972 14.5265 24.8342 30.0921 24.9227 32.1262C25.0111 34.1604 25.9545 33.8951 25.9545 33.8951C25.9545 33.8951 29.7574 33.8951 30.347 33.8951C30.9366 33.8951 31.1725 33.3054 31.1725 33.3054C31.1725 33.3054 44.7629 8.39454 45.1461 7.687C45.5589 7.00896 44.9398 7.15636 44.9398 7.15636Z" fill="#2E3A4B" fill-opacity="0.7"/>
<path d="M56.8209 16.5311C55.5828 12.2269 49.9225 12.6691 49.9225 12.6691C48.0947 12.6691 44.8813 12.2859 42.5819 14.6738C38.4546 18.5357 37.7177 25.6995 37.7177 25.6995C36.6858 32.2441 39.5749 34.9857 45.3825 34.9562C51.1902 34.9268 52.7821 32.2441 53.8434 30.7405C54.8752 29.237 58.0591 20.8352 56.8209 16.5311ZM49.2739 28.5296C48.7433 29.4729 47.8884 31.1828 45.5004 30.947C43.1125 30.7111 42.1102 28.7654 43.0241 24.4318C43.0241 24.4318 43.8495 19.6854 45.8247 17.2975C46.945 15.8235 48.2421 16.2068 49.0086 16.2952C49.0086 16.2952 51.367 16.2657 51.5734 19.1843C51.7503 22.1323 49.8341 27.5862 49.2739 28.5296Z" fill="#2E3A4B" fill-opacity="0.7"/>
</g>
</g>
<defs>
<clipPath id="clip0_18173_139091">
<rect width="57.1429" height="50" fill="white" transform="translate(0.571411)"/>
</clipPath>
</defs>
</svg>
