<svg width="87" height="50" viewBox="0 0 87 50" fill="none" xmlns="http://www.w3.org/2000/svg">
<g clip-path="url(#clip0_18173_139085)">
<g opacity="0.7" clip-path="url(#clip1_18173_139085)">
<path d="M5.31915 15.4673H0.5V34.4757H5.31915C10.5617 34.4757 14.8155 30.221 14.8155 24.9683C14.8155 19.722 10.5615 15.4673 5.31915 15.4673Z" fill="#7C848D" fill-opacity="0.3"/>
<path d="M5.16078 10.3711H0.522095V15.8534H5.16078C10.207 15.8534 14.301 19.948 14.301 25.0004C14.301 30.0542 10.207 34.1467 5.16078 34.1467H0.522095V39.629H5.16078C13.2343 39.629 19.959 33.7103 19.959 25.0004C19.959 16.1774 13.2343 10.3711 5.16078 10.3711ZM16.9983 39.629H22.4829V34.1465H16.9983V39.629ZM71.8257 25.0004L82.5711 14.2487V10.3711H78.5142L65.9502 22.9428V10.3711H17.0306V15.8534H27.3321V39.629H33.0786V15.8534H43.4305C41.5407 18.2698 40.4042 21.3784 40.4042 25.0004C40.4042 33.7103 47.1275 39.629 55.2001 39.629H65.9502V27.058L78.5142 39.629H86.4459L71.8257 25.0004ZM60.2035 34.1467H55.2001C51.0774 34.1467 47.5919 31.4086 46.4554 27.652H54.5693V22.3416H46.4554C47.592 18.5889 51.0799 15.8534 55.2001 15.8534H60.2035V34.1467Z" fill="#2E3A4B"/>
</g>
</g>
<defs>
<clipPath id="clip0_18173_139085">
<rect width="86" height="50" fill="white" transform="translate(0.5)"/>
</clipPath>
<clipPath id="clip1_18173_139085">
<rect width="85.9459" height="30" fill="white" transform="translate(0.5 10)"/>
</clipPath>
</defs>
</svg>
