<svg width="108" height="50" viewBox="0 0 108 50" fill="none" xmlns="http://www.w3.org/2000/svg">
<g clip-path="url(#clip0_18173_138959)">
<g opacity="0.7" clip-path="url(#clip1_18173_138959)">
<mask id="mask0_18173_138959" style="mask-type:luminance" maskUnits="userSpaceOnUse" x="0" y="5" width="107" height="40">
<path d="M106.566 5.35718H0V44.6429H106.566V5.35718Z" fill="white"/>
</mask>
<g mask="url(#mask0_18173_138959)">
<path fill-rule="evenodd" clip-rule="evenodd" d="M61.8503 27.6309C61.6096 29.0869 59.7893 32.306 55.2694 32.306C49.2307 32.306 47.9507 25.9727 48.1006 24.8591L63.9667 24.8532C63.7483 19.6257 60.0605 15.4621 54.7733 15.4621C49.3293 15.4621 44.9158 19.8764 44.9158 25.3213C44.9158 30.7666 49.3293 35.1807 54.7733 35.1807C59.4222 35.1807 63.0195 31.962 63.9717 27.6309H61.8503ZM54.2628 17.4735C57.5581 17.4735 59.9405 19.477 60.7868 22.7151L48.2804 22.6979C49.0885 19.054 51.9586 17.4735 54.2628 17.4735ZM96.7054 15.4502C91.2595 15.4502 86.8448 19.8655 86.8448 25.3126V43.7097H90.0066V32.5041C91.578 34.2358 94.1237 35.1748 96.7054 35.1748C102.151 35.1748 106.566 30.7591 106.566 25.3126C106.566 19.8655 102.151 15.4502 96.7054 15.4502ZM97.4333 32.9268C93.2842 32.9045 90.1006 29.3715 90.0751 24.5876C90.0483 19.5647 93.6472 17.4605 96.0581 17.4735C100.194 17.496 103.485 21.3996 103.51 25.9808C103.532 30.2422 100.579 32.944 97.4333 32.9268ZM81.9803 5.35718V18.1367C80.3606 16.3631 77.8632 15.4501 75.2815 15.4501C69.8359 15.4501 65.4212 19.8655 65.4212 25.3126C65.4212 30.7591 69.8359 35.1748 75.2815 35.1748C80.7274 35.1748 85.1421 30.7591 85.1421 25.3126V5.35718H81.9803ZM75.8986 32.9281C71.7585 32.9057 68.5027 29.1258 68.4772 24.4772C68.4508 19.9626 71.6129 17.4619 74.5231 17.4748C78.6682 17.4973 81.8879 21.1536 81.9121 25.8704C81.9349 30.64 78.5444 32.9452 75.8986 32.9281Z" fill="#2E3A4B"/>
<mask id="mask1_18173_138959" style="mask-type:luminance" maskUnits="userSpaceOnUse" x="0" y="5" width="31" height="40">
<path fill-rule="evenodd" clip-rule="evenodd" d="M19.7956 5.35839C22.9444 5.31313 26.5152 6.53849 29.7489 8.65995L30.9807 9.54072L29.0829 12.1684L28.1426 11.4843C25.4048 9.64408 22.4006 8.50958 19.7956 8.41903C10.5545 8.41903 3.06301 15.8429 3.06301 25.0007C3.06301 34.1583 10.5545 41.5821 19.7956 41.5821V44.6429C8.86283 44.6429 0 35.8489 0 25.0007C0 14.1525 8.86283 5.35839 19.7956 5.35839Z" fill="white"/>
</mask>
<g mask="url(#mask1_18173_138959)">
<rect y="5.35718" width="30.9807" height="39.2857" fill="#2E3A4B"/>
</g>
<mask id="mask2_18173_138959" style="mask-type:luminance" maskUnits="userSpaceOnUse" x="8" y="9" width="29" height="29">
<path fill-rule="evenodd" clip-rule="evenodd" d="M30.2394 9.05872C34.5565 12.4113 37.2698 18.6783 36.5606 24.0361C35.2511 33.5583 27.5517 38.1877 19.8255 37.6303C11.8662 36.9945 7.97076 29.2468 8.99468 24.7341C10.6548 17.161 16.6997 14.748 20.9263 16.0246C24.8819 17.2652 27.6341 20.5645 26.8574 24.4252C25.4601 29.7787 20.6942 30.5604 17.9601 29.2565L19.2472 26.5329C20.7596 27.1712 23.1543 26.6866 23.945 24.0361C24.4483 21.4979 22.3313 19.4407 19.8936 18.8276C15.9796 18.0248 12.6537 21.6333 12.0281 24.7876C11.21 30.4055 15.1485 33.9624 19.9194 34.6255C27.481 35.4175 34.4019 29.5896 33.5826 21.0028C33.2094 18.3386 32.0071 13.8029 27.8375 11.2457L30.2394 9.05872Z" fill="white"/>
</mask>
<g mask="url(#mask2_18173_138959)">
<rect x="8.83398" y="9.05872" width="27.839" height="28.6167" fill="#2E3A4B"/>
</g>
<mask id="mask3_18173_138959" style="mask-type:luminance" maskUnits="userSpaceOnUse" x="12" y="17" width="17" height="18">
<path fill-rule="evenodd" clip-rule="evenodd" d="M21.2382 17.5814C25.8576 17.6087 28.3404 22.3439 28.1734 25.795C27.8742 31.1734 23.4722 34.4118 17.7883 34.4404C15.5543 34.3937 13.8759 33.8335 12.7531 33.3159L14.1517 30.6468C15.1735 31.1603 16.067 31.6313 17.6017 31.5884C20.6516 31.6235 24.9836 29.9466 25.2128 25.6588C25.3372 23.9157 24.0084 20.5034 21.0982 20.4294C19.389 20.449 17.7221 21.4528 17.5084 23.6979C17.3687 25.5381 18.8954 26.4796 20.166 26.7792L20.0727 29.7752C16.1255 29.458 14.5286 26.0803 14.5558 23.8261C14.6037 20.4605 16.7031 17.6514 21.2382 17.5814Z" fill="white"/>
</mask>
<g mask="url(#mask3_18173_138959)">
<rect x="12.7531" y="17.5814" width="15.4281" height="16.859" fill="#2E3A4B"/>
</g>
<mask id="mask4_18173_138959" style="mask-type:luminance" maskUnits="userSpaceOnUse" x="6" y="7" width="34" height="38">
<path fill-rule="evenodd" clip-rule="evenodd" d="M22.2727 7.41027C31.2699 7.47936 39.2235 14.1527 39.2235 25.0007C39.2235 35.8489 30.445 44.6429 19.6161 44.6429L18.0023 44.5614V41.5225L19.6161 41.6043C28.7656 41.6043 36.1826 34.1705 36.1826 25.0007C36.1481 15.3474 29.003 10.3283 22.2727 10.3283C13.3305 10.3283 9.36345 17.167 9.36345 21.674C9.36345 26.2589 11.3906 28.8596 14.1812 30.6898L12.7771 33.2728C8.20047 30.529 6.45793 26.4726 6.40891 21.6221C6.30523 14.8841 12.3424 7.37575 22.2727 7.41027Z" fill="white"/>
</mask>
<g mask="url(#mask4_18173_138959)">
<rect x="6.40784" y="7.40991" width="32.8159" height="37.2328" fill="#2E3A4B"/>
</g>
</g>
</g>
</g>
<defs>
<clipPath id="clip0_18173_138959">
<rect width="107.143" height="50" fill="white"/>
</clipPath>
<clipPath id="clip1_18173_138959">
<rect width="106.566" height="39.2857" fill="white" transform="translate(0 5.35718)"/>
</clipPath>
</defs>
</svg>
