<svg width="215" height="50" viewBox="0 0 215 50" fill="none" xmlns="http://www.w3.org/2000/svg">
<g clip-path="url(#clip0_18173_138987)">
<g clip-path="url(#clip1_18173_138987)">
<path d="M47.3584 33.2095V25.6273H54.4794V33.2095H58.3495V15.5692H54.4794V22.3777H47.3584V15.5692H43.4883V33.2095H47.3584ZM65.0061 18.3545V15.5692H61.4456V18.5093H65.0061V18.3545ZM65.0061 33.2095V20.3661H61.4456V33.2095H65.0061ZM72.7463 33.3642C73.3655 33.3642 74.1396 33.3642 74.7588 33.2095V30.4242C74.4492 30.4242 73.9848 30.5789 73.6751 30.5789C72.4367 30.5789 72.1271 30.2695 72.1271 29.0315V22.6872H74.7588V20.3661H72.1271V16.4976H68.5666V20.3661H66.3993V22.6872H68.5666V30.2695C68.7214 32.9 70.5791 33.3642 72.7463 33.3642ZM80.3317 33.519C81.8798 33.519 83.5826 33.0548 84.6663 31.9716C84.6663 32.4358 84.8211 32.7453 84.9759 33.2095H88.5364C88.2268 32.7453 88.072 31.5074 88.072 30.4242V23.7704C88.072 20.6756 84.9759 20.0567 82.499 20.0567C79.5577 20.0567 76.6164 20.9851 76.4616 24.3894H80.0221C80.1769 22.9967 80.951 22.5325 82.3442 22.5325C83.5826 22.5325 84.6663 22.6872 84.6663 24.2346C84.6663 25.6273 82.6538 25.6273 80.4865 25.9368C78.3193 26.2462 76.152 26.8652 76.152 29.8052C75.9972 32.2811 77.8549 33.519 80.3317 33.519ZM81.725 31.1979C80.6413 31.1979 79.5577 30.8884 79.5577 29.4958C79.5577 28.2578 80.4865 27.7936 81.5702 27.6389C82.6538 27.4841 83.8922 27.4841 84.5115 26.8652V28.1031C84.5115 29.0315 84.3567 31.1979 81.725 31.1979ZM96.741 33.519C100.147 33.519 102.469 31.6621 102.933 28.2578H99.5275C99.3727 29.8052 98.2891 30.8884 96.741 30.8884C94.5737 30.8884 93.7997 28.7221 93.7997 26.8652C93.7997 25.0083 94.5737 22.6872 96.741 22.6872C98.1343 22.6872 99.0631 23.4609 99.3727 24.8536H102.778C102.624 21.604 99.8371 20.0567 96.741 20.0567C92.5613 20.0567 90.2392 22.9967 90.2392 27.0199C90.394 30.8884 93.0257 33.519 96.741 33.519ZM108.506 33.2095V26.5557C108.506 23.9251 109.28 22.842 111.293 22.842C112.995 22.842 113.615 23.9251 113.615 25.9368V33.2095H117.175V25.3178C117.175 22.223 116.246 20.0567 112.531 20.0567C111.293 20.0567 109.745 20.6756 108.816 22.223V15.5692H105.255V33.2095H108.506ZM123.213 18.3545V15.5692H119.652V18.5093H123.213V18.3545ZM123.213 33.2095V20.3661H119.652V33.2095H123.213ZM146.743 33.2095V29.96H137.145V25.6273H145.659V22.5325H137.145V18.8187H146.433V15.5692H133.275V33.2095H146.743ZM152.471 33.2095V26.5557C152.471 23.9251 153.245 22.842 155.257 22.842C156.96 22.842 157.579 23.9251 157.579 25.9368V33.2095H161.14V25.3178C161.14 22.223 160.211 20.0567 156.496 20.0567C154.947 20.0567 153.399 20.6756 152.625 22.223V20.3661H149.22V33.2095H152.471ZM169.654 33.519C172.595 33.519 174.608 32.2811 175.691 29.1863H172.595C172.44 29.96 171.202 30.8884 169.809 30.8884C167.796 30.8884 166.713 29.8052 166.713 27.6389H176.001C176.31 23.7704 174.143 20.0567 169.809 20.0567C165.939 20.0567 163.307 22.9967 163.307 26.8652C162.997 30.7337 165.474 33.519 169.654 33.519ZM172.286 25.4725H166.558C166.558 24.5441 167.177 22.6872 169.499 22.6872C171.202 22.6872 171.976 23.6157 172.286 25.4725ZM181.419 33.2095V27.4841C181.419 25.1631 182.348 23.3062 184.825 23.3062C185.289 23.3062 185.754 23.3062 186.063 23.4609V20.2114C185.908 20.2114 185.599 20.0567 185.289 20.0567C183.586 20.0567 181.883 21.1398 181.264 22.842V20.3661H177.859V33.2095H181.419ZM193.184 38.0064C199.067 38.0064 199.841 34.4474 199.841 32.2811V20.3661H196.435V22.0683C195.661 20.5209 194.268 20.0567 192.565 20.0567C189.004 20.0567 186.992 23.1514 186.992 26.401C186.992 29.96 188.695 32.9 192.41 32.9C193.958 32.9 195.506 32.2811 196.28 30.8884V32.5905C196.28 34.4474 195.351 35.6853 193.494 35.6853C192.255 35.6853 191.172 35.2211 190.862 33.9832H187.302C187.766 36.9232 190.707 38.0064 193.184 38.0064ZM193.494 30.1147C191.327 30.1147 190.707 28.1031 190.707 26.2462C190.707 24.3894 191.636 22.5325 193.494 22.5325C195.816 22.5325 196.435 24.3894 196.435 26.401C196.435 28.4126 195.506 30.1147 193.494 30.1147ZM204.485 37.6969C206.962 37.6969 208.2 36.9232 208.819 34.7569L214.238 20.3661H210.677L207.891 29.1863L204.949 20.3661H201.234L205.723 32.4358C206.188 33.519 205.723 34.7569 204.485 34.9116C203.866 34.9116 203.092 34.9116 202.472 34.7569V37.6969C203.092 37.6969 203.866 37.6969 204.485 37.6969Z" fill="#2E3A4B" fill-opacity="0.7"/>
<path fill-rule="evenodd" clip-rule="evenodd" d="M28.7817 30.4249C29.7105 28.7228 30.3297 26.5564 30.3297 24.3901C30.3297 22.2237 29.7105 20.0574 28.7817 18.3553H25.2212C26.6144 19.9027 27.3884 22.069 27.3884 24.3901C27.3884 26.7112 26.6144 28.8775 25.2212 30.4249H28.7817ZM12.2176 30.4249C10.8243 28.8775 10.0503 26.7112 10.0503 24.3901C10.0503 22.069 10.8243 19.9027 12.2176 18.3553H8.65707C7.72825 20.0574 7.10903 22.2237 7.10903 24.3901C7.10903 26.5564 7.72825 28.5681 8.65707 30.4249H12.2176ZM19.1838 27.4849C20.8866 27.4849 22.2799 26.0922 22.2799 24.5448C22.2799 22.8427 20.8866 21.6048 19.1838 21.6048C17.4809 21.6048 16.2425 22.9974 16.2425 24.5448C16.2425 26.0922 17.4809 27.4849 19.1838 27.4849ZM19.1838 36.4597C22.8991 36.4597 25.0664 35.3766 27.2336 33.5197H11.1339C13.3012 35.3766 16.0877 36.4597 19.1838 36.4597ZM20.2674 14.332H27.2336C25.376 12.6299 22.8991 11.7015 20.2674 11.392V14.332ZM10.2051 14.332H17.1713V11.392C14.5396 11.7015 12.0628 12.7847 10.2051 14.332ZM19.1838 30.4249C22.5895 30.4249 25.2212 27.7944 25.2212 24.3901C25.2212 20.9858 22.5895 18.3553 19.1838 18.3553C15.9329 18.3553 13.1464 20.9858 13.1464 24.3901C13.1464 27.7944 15.9329 30.4249 19.1838 30.4249ZM22.2799 9.07092C27.8528 10.3088 32.3422 14.7963 33.5806 20.3669C34.045 22.2237 35.2835 23.7711 37.2959 23.9259C35.2835 24.0806 34.045 25.4733 33.5806 27.4849C32.1874 33.0555 27.8528 37.5429 22.2799 38.7808C20.2674 39.2451 18.8742 40.483 18.7194 42.4946C18.5646 40.483 17.1713 39.2451 15.1589 38.7808C9.5859 37.3882 5.09657 33.0555 3.85813 27.4849C3.39372 25.4733 2.15528 24.0806 0.142822 23.9259C2.15528 23.7711 3.39372 22.3785 3.85813 20.3669C5.09657 14.7963 9.5859 10.3088 15.1589 9.07092C17.1713 8.6067 18.5646 7.36879 18.7194 5.35718C18.8742 7.36879 20.2674 8.6067 22.2799 9.07092Z" fill="#2E3A4B" fill-opacity="0.7"/>
</g>
</g>
<defs>
<clipPath id="clip0_18173_138987">
<rect width="214.286" height="50" fill="white" transform="translate(0.142822)"/>
</clipPath>
<clipPath id="clip1_18173_138987">
<rect width="215.179" height="37.1374" fill="white" transform="translate(0.142822 5.35718)"/>
</clipPath>
</defs>
</svg>
