<svg width="84" height="50" viewBox="0 0 84 50" fill="none" xmlns="http://www.w3.org/2000/svg">
<g clip-path="url(#clip0_18173_138996)">
<mask id="mask0_18173_138996" style="mask-type:luminance" maskUnits="userSpaceOnUse" x="0" y="7" width="84" height="36">
<path d="M83.4642 7.14282H0.428528V42.8571H83.4642V7.14282Z" fill="white"/>
</mask>
<g mask="url(#mask0_18173_138996)">
<path d="M38.2653 20.829C37.7911 21.083 37.254 21.1956 36.7177 21.1534H35.3437V17.758H36.7774C37.3084 17.7307 37.8367 17.8517 38.3031 18.1074C38.7416 18.39 39.0024 18.8797 38.9919 19.4014C39.0145 19.9712 38.7393 20.5118 38.2653 20.829ZM39.1579 22.8361C40.6865 22.3979 41.7244 20.9803 41.6804 19.3909C41.7574 17.8553 40.8414 16.4434 39.4077 15.8882C38.4865 15.5466 37.5058 15.3947 36.5246 15.4415H32.6394V27.5007H35.3437V23.3507H35.6183C36.1614 23.3425 36.6832 23.5612 37.058 23.9543C37.9513 24.9965 38.7074 26.1488 39.3081 27.383L39.3707 27.503H42.5066L42.3066 27.1717C41.4131 25.6194 40.3576 24.1661 39.1579 22.8361Z" fill="#2E3A4B" fill-opacity="0.7"/>
<path d="M51.93 21.4794C51.93 23.8139 50.7582 25.323 48.8469 25.323C46.9236 25.323 45.7246 23.8139 45.7246 21.4794C45.7246 19.1447 46.9236 17.6357 48.8469 17.6357C50.7582 17.6357 51.93 19.144 51.93 21.4794ZM48.8469 15.2317C47.3129 15.1791 45.8206 15.7367 44.6969 16.7823C43.4902 18.0399 42.857 19.7403 42.9471 21.4808C42.9471 25.2256 45.3171 27.7436 48.8469 27.7436C52.3639 27.7436 54.706 25.2264 54.706 21.4808C54.706 17.6839 52.4182 15.2317 48.8469 15.2317Z" fill="#2E3A4B" fill-opacity="0.7"/>
<path d="M62.9229 15.4419L59.4973 20.7622L57.9429 15.4419H55.1315L57.6758 23.3367L54.8492 27.5011H57.8727L65.9736 15.4419H62.9229Z" fill="#2E3A4B" fill-opacity="0.7"/>
<path d="M77.8641 25.1877V15.4419H75.1583V27.5011H81.9123L82.8796 25.1877H77.8641Z" fill="#2E3A4B" fill-opacity="0.7"/>
<path d="M67.3522 22.2675L70.0919 18.0888V22.2675H67.3522ZM72.794 15.4419H69.142L60.8865 27.5011H63.9242L65.8431 24.5395H70.0919V27.5011H72.7977L72.794 15.4419Z" fill="#2E3A4B" fill-opacity="0.7"/>
<path d="M25.3694 35.9246C24.8953 36.178 24.3585 36.2903 23.8226 36.2483H22.4486V32.8529H23.8822C24.4132 32.8255 24.9413 32.9468 25.4072 33.203C25.8456 33.4854 26.1064 33.9748 26.096 34.4963C26.1186 35.0663 25.8434 35.6071 25.3694 35.9246ZM26.2621 37.931C27.7907 37.4933 28.8287 36.0759 28.7845 34.4864C28.8615 32.9508 27.9454 31.5388 26.5118 30.9831C25.5908 30.6413 24.61 30.4894 23.6287 30.5364H19.7435V42.5971H22.4486V38.4471H22.7225C23.2659 38.4384 23.7881 38.6572 24.1629 39.0507C25.0561 40.0929 25.812 41.2451 26.4122 42.4794L26.4756 42.5994H29.6115L29.4108 42.2673C28.517 40.7149 27.4616 39.2613 26.2621 37.931Z" fill="#2E3A4B" fill-opacity="0.7"/>
<path d="M59.08 35.9246C58.6058 36.1779 58.0691 36.2902 57.5331 36.2483H56.1591V32.8529H57.5928C58.1235 32.8256 58.6513 32.9469 59.117 33.203C59.5554 33.4854 59.8162 33.9748 59.8059 34.4963C59.8286 35.0662 59.5537 35.607 59.08 35.9246ZM59.9719 37.931C61.5004 37.4933 62.5385 36.0759 62.4943 34.4864C62.5714 32.9508 61.6554 31.5386 60.2216 30.9831C59.3008 30.6413 58.3204 30.4894 57.3392 30.5364H53.4541V42.5971H56.1591V38.4471H56.433C56.9766 38.4383 57.4991 38.6572 57.8742 39.0507C58.767 40.0931 59.5229 41.2454 60.1235 42.4794L60.1862 42.5994H63.3228L63.1229 42.2673C62.2283 40.7148 61.1721 39.2613 59.9719 37.931Z" fill="#2E3A4B" fill-opacity="0.7"/>
<path d="M49.2392 36.5925C49.2392 38.9278 48.0659 40.4362 46.1554 40.4362C44.2321 40.4362 43.0339 38.927 43.0339 36.5925C43.0339 34.2579 44.2314 32.7488 46.1547 32.7488C48.0659 32.7488 49.2392 34.2579 49.2392 36.5925ZM46.1547 30.3448C44.6206 30.2924 43.1283 30.8503 42.0047 31.8962C40.7987 33.1538 40.1659 34.8539 40.2564 36.594C40.2564 40.3396 42.6264 42.8567 46.1547 42.8567C49.6829 42.8567 52.0137 40.3388 52.0137 36.594C52.0137 32.7979 49.7283 30.3448 46.1547 30.3448Z" fill="#2E3A4B" fill-opacity="0.7"/>
<path d="M6.89273 37.3623L9.63023 33.1829V37.3623H6.89273ZM12.3353 30.5359H8.68252L0.428528 42.5966H3.46482L5.38289 39.6335H9.62951V42.5966H12.3353V30.5359Z" fill="#2E3A4B" fill-opacity="0.7"/>
<path d="M14.5905 30.5359V42.5966H17.2963V30.5359H14.5905Z" fill="#2E3A4B" fill-opacity="0.7"/>
<path d="M35.3399 32.8614H39.6566L40.8549 30.5359H32.6394V42.6087H35.3399V37.7267H38.6554V35.4193H35.3399V32.8614Z" fill="#2E3A4B" fill-opacity="0.7"/>
<path d="M70.7005 40.4348C69.808 40.4526 68.9264 40.2364 68.1434 39.8078C67.0615 39.0761 66.4419 37.8312 66.5105 36.527C66.4918 35.6387 66.7749 34.7702 67.3134 34.0634C68.0843 33.1895 69.2167 32.7219 70.3798 32.7973C71.2582 32.7961 72.1327 32.9128 72.98 33.1444V30.6898C72.0271 30.4466 71.0471 30.3254 70.0636 30.3292C68.3713 30.2913 66.7278 30.8976 65.4654 32.0253C64.295 33.2345 63.6563 34.8611 63.6915 36.5436C63.6387 38.3788 64.3814 40.1474 65.7288 41.3946C67.0586 42.3934 68.6924 42.9027 70.3542 42.8365C71.3367 42.8416 72.315 42.709 73.2607 42.4427V40.0968C72.426 40.3223 71.5651 40.436 70.7005 40.4348Z" fill="#2E3A4B" fill-opacity="0.7"/>
<path d="M77.8598 40.2809V37.6204H81.1331V35.3145H77.8598V32.8614H82.0898L83.002 30.5359H75.1548V42.6087H82.5388V40.2809H77.8598Z" fill="#2E3A4B" fill-opacity="0.7"/>
<path d="M13.4329 11.3958C15.0296 9.80814 17.192 8.92056 19.4437 8.92864C24.1105 8.95581 27.8745 12.756 27.8568 17.423C27.8392 22.0905 24.0459 25.8623 19.3784 25.8536C14.7116 25.8448 10.9328 22.0596 10.9318 17.3929C10.9364 15.1411 11.8362 12.9836 13.4329 11.3958Z" stroke="#2E3A4B" stroke-opacity="0.7" stroke-width="4"/>
<path d="M19.4513 13.9614C21.3449 13.9614 22.8806 15.497 22.8807 17.3913C22.8807 19.286 21.3451 20.8217 19.4508 20.8218C17.5562 20.8218 16.0206 19.2862 16.0204 17.3918C16.0199 15.4969 17.5563 13.9606 19.4513 13.9614Z" fill="#2E3A4B" fill-opacity="0.7"/>
</g>
</g>
<defs>
<clipPath id="clip0_18173_138996">
<rect width="83.0357" height="50" fill="white" transform="translate(0.428528)"/>
</clipPath>
</defs>
</svg>
