<svg width="72" height="50" viewBox="0 0 72 50" fill="none" xmlns="http://www.w3.org/2000/svg">
<g clip-path="url(#clip0_18173_139065)">
<path d="M34.1241 8.03577H1.29991C1.21092 8.03577 1.12557 8.07113 1.06264 8.13409C0.999709 8.19704 0.964355 8.28243 0.964355 8.37146L0.964355 41.209C0.964349 41.2528 0.973065 41.2962 0.989995 41.3366C1.00693 41.377 1.03173 41.4137 1.06296 41.4444C1.0942 41.4752 1.13123 41.4994 1.17192 41.5156C1.2126 41.5319 1.25611 41.5399 1.29991 41.5392H34.1241C34.2116 41.5392 34.2956 41.5044 34.3575 41.4425C34.4194 41.3805 34.4541 41.2965 34.4541 41.209V8.37146C34.4549 8.32764 34.4469 8.28411 34.4306 8.24341C34.4143 8.20271 34.3902 8.16566 34.3594 8.13441C34.3287 8.10317 34.2921 8.07835 34.2517 8.06142C34.2113 8.04448 34.1679 8.03576 34.1241 8.03577ZM15.5859 38.0722H4.6885V11.5028H9.8979C13.677 12.2622 17.8908 12.6474 17.8908 16.142C17.8908 18.9596 9.3093 20.9628 9.3093 24.2922C9.3093 29.0965 17.6927 30.1145 17.6927 34.9188C17.6927 36.1956 16.8731 37.2027 15.5859 38.0722ZM30.73 38.0722H25.5976C27.0774 36.9055 28.106 35.5902 28.106 33.9503C28.106 31.0501 25.4106 29.3551 21.3674 27.3464C18.6114 25.9376 15.2668 25.2717 15.2668 23.2796C15.2668 21.1389 20.5202 21.0508 20.3387 16.5052C20.2177 12.5044 16.8566 12.2512 13.0664 11.5028H30.73V38.0722Z" fill="#2E3A4B" fill-opacity="0.7"/>
<path d="M45.2801 16.0539C45.3593 17.1069 45.0906 18.1567 44.5155 19.0421C44.1625 19.5213 43.6965 19.9057 43.159 20.1611C42.6215 20.4165 42.0293 20.535 41.435 20.506C40.9072 20.5358 40.379 20.4545 39.8846 20.2673C39.3902 20.0801 38.9405 19.7913 38.5647 19.4194C38.1888 19.0476 37.8951 18.601 37.7026 18.1084C37.51 17.6159 37.4229 17.0885 37.4468 16.5602C37.4214 16.0221 37.5091 15.4846 37.7042 14.9826C37.8993 14.4805 38.1976 14.0249 38.5796 13.6453C38.9617 13.2657 39.4191 12.9704 39.9223 12.7786C40.4255 12.5869 40.9633 12.5028 41.501 12.5319C42.2093 12.494 42.9122 12.6741 43.5151 13.048C44.118 13.4219 44.5919 13.9716 44.8731 14.6231L43.0303 15.399C42.9224 15.0544 42.7074 14.7532 42.4165 14.5394C42.1255 14.3255 41.774 14.2103 41.413 14.2103C40.1368 14.2103 39.4711 15.432 39.4711 16.5712C39.4711 17.7104 40.1643 18.9101 41.4405 18.9101C41.6294 18.9321 41.8209 18.9156 42.0033 18.8616C42.1857 18.8076 42.3552 18.7172 42.5018 18.5958C42.6483 18.4744 42.7687 18.3246 42.8557 18.1554C42.9428 17.9862 42.9947 17.8011 43.0083 17.6113H41.424V16.0539H45.2801Z" fill="#2E3A4B" fill-opacity="0.7"/>
<path d="M52.4484 20.2308H50.028L48.1961 17.3581V20.2308H46.2323V12.752H49.1368C50.6166 12.752 51.7332 13.4564 51.7332 15.0523C51.7679 15.5463 51.6185 16.0357 51.3137 16.4259C51.009 16.8162 50.5705 17.0797 50.083 17.1655L52.4484 20.2308ZM48.1741 16.1034H48.3667C48.9993 16.1034 49.7144 15.9878 49.7144 15.1734C49.7144 14.3589 48.9993 14.2433 48.3667 14.2433H48.1741V16.1034Z" fill="#2E3A4B" fill-opacity="0.7"/>
<path d="M54.9771 14.3974V15.6521H57.1775V17.3031H54.9771V18.5908H57.2875V20.2418H53.0353V12.752H57.2875V14.4029L54.9771 14.3974Z" fill="#2E3A4B" fill-opacity="0.7"/>
<path d="M60.4509 18.9322L59.9338 20.2309H57.871L60.748 12.7521H62.8713L65.6878 20.2309H63.614L63.1244 18.9322H60.4509ZM61.8097 15.0799L61.0065 17.4628H62.6238L61.8097 15.0799Z" fill="#2E3A4B" fill-opacity="0.7"/>
<path d="M68.7311 20.2312H66.7893V14.3978H65.183V12.7468H70.3374V14.3978H68.7311V20.2312Z" fill="#2E3A4B" fill-opacity="0.7"/>
<path d="M44.0434 29.8393H41.6229L39.7856 26.9667V29.8393H37.8218V22.344H40.7263C42.2225 22.344 43.3227 23.0649 43.3227 24.6663C43.3537 25.1596 43.2029 25.6471 42.8988 26.0365C42.5946 26.4259 42.1583 26.6903 41.6724 26.7796L44.0434 29.8393ZM39.7691 25.7174H39.9561C40.5888 25.7174 41.3039 25.5964 41.3039 24.7819C41.3039 23.9674 40.5888 23.8519 39.9561 23.8519H39.7691V25.7174Z" fill="#2E3A4B" fill-opacity="0.7"/>
<path d="M47.3431 29.8393H45.4005V22.344H47.3431V29.8393Z" fill="#2E3A4B" fill-opacity="0.7"/>
<path d="M52.5792 26.9061L54.3945 22.344H56.5233L53.3328 29.8228H51.8035L48.6625 22.344H50.7748L52.5792 26.9061Z" fill="#2E3A4B" fill-opacity="0.7"/>
<path d="M59.7685 23.995V25.2607H61.9689V26.9116H59.7685V28.1994H62.0734V29.8503H57.8212V22.344H62.0734V23.995H59.7685Z" fill="#2E3A4B" fill-opacity="0.7"/>
<path d="M70.3255 29.8393H67.9051L66.0733 26.9667V29.8393H64.1315V22.344H67.036C68.5157 22.344 69.6324 23.0484 69.6324 24.6498C69.6646 25.1433 69.5143 25.6314 69.2099 26.0211C68.9056 26.4108 68.4686 26.6749 67.9821 26.7631L70.3255 29.8393ZM66.0513 25.7174H66.2438C66.8764 25.7174 67.5916 25.5964 67.5916 24.7819C67.5916 23.9674 66.8764 23.8519 66.2438 23.8519H66.0513V25.7174Z" fill="#2E3A4B" fill-opacity="0.7"/>
<path d="M39.2677 33.1741V34.0986H40.885V35.3148H39.2677V36.2668H40.973V37.483H37.8209V31.9799H40.962V33.1961L39.2677 33.1741Z" fill="#2E3A4B" fill-opacity="0.7"/>
<path d="M42.3087 31.9581H43.7445L46.3684 35.3371V31.9581H47.8042V37.4613H46.3849L43.7555 34.0769V37.4613H42.3087V31.9581Z" fill="#2E3A4B" fill-opacity="0.7"/>
<path d="M50.6388 33.1741V34.0986H52.289V35.3148H50.6388V36.2668H52.344V37.483H49.203V31.9799H52.344V33.1961L50.6388 33.1741Z" fill="#2E3A4B" fill-opacity="0.7"/>
<path d="M58.2682 37.483H56.4804L55.1272 35.3588V37.483H53.6804V31.9799H55.8258C56.926 31.9799 57.7401 32.4972 57.7401 33.6803C57.7592 34.0405 57.6462 34.3952 57.4224 34.6779C57.1985 34.9607 56.8792 35.1519 56.5244 35.2157L58.2682 37.483ZM55.1162 34.4508H55.2537C55.7213 34.4508 56.2494 34.3627 56.2494 33.7629C56.2494 33.163 55.6993 33.075 55.2537 33.075H55.1162V34.4508Z" fill="#2E3A4B" fill-opacity="0.7"/>
<path d="M64.61 34.396C64.6736 35.1703 64.4803 35.944 64.0599 36.5972C63.8013 36.9552 63.4578 37.2432 63.0602 37.4354C62.6627 37.6275 62.2236 37.7177 61.7826 37.6979C61.3927 37.7199 61.0025 37.6597 60.6373 37.5213C60.2721 37.3829 59.9401 37.1693 59.6626 36.8944C59.3852 36.6194 59.1686 36.2892 59.0268 35.9252C58.885 35.5612 58.8212 35.1714 58.8395 34.7812C58.8177 34.3829 58.8806 33.9844 59.0239 33.6121C59.1672 33.2399 59.3878 32.9022 59.6711 32.6214C59.9544 32.3406 60.2939 32.1231 60.6673 31.9831C61.0408 31.8432 61.4396 31.784 61.8376 31.8095C62.357 31.7847 62.8717 31.9189 63.313 32.1942C63.7543 32.4695 64.1012 32.8728 64.3075 33.3504L62.9488 33.9007C62.8698 33.6461 62.7111 33.4237 62.4962 33.2661C62.2813 33.1086 62.0215 33.0243 61.7551 33.0257C60.8089 33.0257 60.3193 33.9227 60.3193 34.7647C60.3193 35.6067 60.8309 36.4982 61.7771 36.4982C61.9166 36.5133 62.0577 36.5002 62.192 36.4596C62.3264 36.4191 62.4512 36.3518 62.559 36.262C62.6668 36.1721 62.7554 36.0614 62.8195 35.9365C62.8837 35.8117 62.922 35.6751 62.9323 35.5351H61.7606V34.396H64.61Z" fill="#2E3A4B" fill-opacity="0.7"/>
<path d="M65.1062 31.958H66.828L67.8622 33.4604L68.8964 31.958H70.6127L68.5773 34.8307V37.4832H67.1416V34.8307L65.1062 31.958Z" fill="#2E3A4B" fill-opacity="0.7"/>
<path d="M70.9585 37.3186C70.8232 37.4488 70.6427 37.5215 70.455 37.5215C70.2672 37.5215 70.0868 37.4488 69.9514 37.3186C69.817 37.1822 69.7418 36.9983 69.7423 36.8068C69.7422 36.6138 69.8172 36.4282 69.9514 36.2895C70.0868 36.1594 70.2672 36.0867 70.455 36.0867C70.6427 36.0867 70.8232 36.1594 70.9585 36.2895C71.0928 36.4282 71.1678 36.6138 71.1676 36.8068C71.1681 36.9983 71.093 37.1822 70.9585 37.3186ZM70.0615 36.3776C69.9509 36.4912 69.8879 36.6428 69.8854 36.8013C69.8854 36.9524 69.9454 37.0972 70.0522 37.2041C70.159 37.3109 70.3039 37.3709 70.455 37.3709C70.606 37.3709 70.7509 37.3109 70.8577 37.2041C70.9645 37.0972 71.0246 36.9524 71.0246 36.8013C71.022 36.6428 70.959 36.4912 70.8485 36.3776C70.7972 36.3251 70.736 36.2835 70.6684 36.2551C70.6009 36.2266 70.5283 36.212 70.455 36.212C70.3817 36.212 70.3091 36.2266 70.2415 36.2551C70.174 36.2835 70.1127 36.3251 70.0615 36.3776ZM70.4302 36.3776C70.5197 36.3696 70.6087 36.3973 70.6779 36.4546C70.7213 36.5007 70.745 36.5619 70.7439 36.6252C70.7434 36.6823 70.7219 36.7372 70.6834 36.7793C70.6547 36.8116 70.6159 36.8329 70.5733 36.8398L70.7934 37.1535H70.5183L70.3642 36.8894V37.203H70.1385V36.4051L70.4302 36.3776ZM70.3642 36.7188C70.3948 36.7272 70.4271 36.7272 70.4577 36.7188C70.4706 36.7107 70.481 36.6993 70.4878 36.6857C70.4946 36.6721 70.4975 36.6569 70.4962 36.6417C70.5043 36.6204 70.5043 36.597 70.4962 36.5757C70.4622 36.5654 70.4258 36.5654 70.3917 36.5757L70.3642 36.7188Z" fill="#2E3A4B" fill-opacity="0.7"/>
</g>
<defs>
<clipPath id="clip0_18173_139065">
<rect width="70.5357" height="50" fill="white" transform="translate(0.964355)"/>
</clipPath>
</defs>
</svg>
