<svg width="117" height="50" viewBox="0 0 117 50" fill="none" xmlns="http://www.w3.org/2000/svg">
<g clip-path="url(#clip0_18173_139017)">
<mask id="mask0_18173_139017" style="mask-type:luminance" maskUnits="userSpaceOnUse" x="0" y="7" width="117" height="36">
<path d="M116.964 7.14282H0V42.8571H116.964V7.14282Z" fill="white"/>
</mask>
<g mask="url(#mask0_18173_139017)">
<mask id="mask1_18173_139017" style="mask-type:luminance" maskUnits="userSpaceOnUse" x="0" y="7" width="117" height="36">
<path d="M116.757 7.14282H0V42.8571H116.757V7.14282Z" fill="white"/>
</mask>
<g mask="url(#mask1_18173_139017)">
<path fill-rule="evenodd" clip-rule="evenodd" d="M4.50659 21.3998C6.17389 13.2664 13.3779 7.14282 22.0144 7.14282C30.6384 7.14282 37.8299 13.2664 39.4943 21.3998H43.9571V28.6284H39.4879C37.8099 36.7476 30.6142 42.8571 22.0001 42.8571C13.3861 42.8571 6.1903 36.7476 4.51236 28.6284H0V21.3998H4.50659ZM11.0673 28.6284C12.5859 33.2197 16.908 36.5285 22.0001 36.5285C27.1016 36.5285 31.4246 33.2132 32.9453 28.6284H11.0673ZM32.9541 21.3998H11.0604C12.5725 16.8048 16.9002 13.4857 22.0001 13.4857C27.1115 13.4857 31.4414 16.8048 32.9541 21.3998Z" fill="#2E3A4B" fill-opacity="0.7"/>
<path d="M116.572 32.1428H50.572V32.8714H116.572V32.1428Z" fill="#2E3A4B" fill-opacity="0.7"/>
<path d="M50.572 39.8715V36.2286H52.8577V36.9572H51.4292V37.5858H52.5577V38.3286H51.4292V39.1144H52.972V39.8715H50.572Z" fill="#2E3A4B" fill-opacity="0.7"/>
<path d="M55.386 39.8716H54.486L53.186 36.2288H54.1289L54.9432 38.6716L55.7432 36.2288H56.686L55.386 39.8716Z" fill="#2E3A4B" fill-opacity="0.7"/>
<path d="M57.0713 39.8716V36.2288H59.357V36.9573H57.9284V37.5859H59.057V38.3288H57.9284V39.1145H59.4713V39.8716H57.0713Z" fill="#2E3A4B" fill-opacity="0.7"/>
<path d="M60.771 36.9144V37.7715H61.071C61.2281 37.7715 61.3567 37.7286 61.4424 37.6429C61.5281 37.5572 61.5852 37.4572 61.5852 37.3286C61.5852 37.2144 61.5424 37.1144 61.4567 37.0286C61.371 36.9572 61.2567 36.9144 61.0995 36.9144H60.771ZM61.8424 39.8715L60.9424 38.5001H60.771V39.8715H59.9138V36.2286H61.1567C61.571 36.2286 61.8853 36.3286 62.0995 36.5286C62.3138 36.7286 62.4424 37.0001 62.4424 37.3429C62.4424 37.5715 62.3853 37.7715 62.271 37.9429C62.1567 38.1144 61.9852 38.2429 61.771 38.3286L62.8138 39.8858H61.8424V39.8715Z" fill="#2E3A4B" fill-opacity="0.7"/>
<path d="M65.043 38.4002V39.8716H64.1858V38.4002L62.943 36.2288H63.9287L64.6287 37.5859L65.3287 36.2288H66.3001L65.043 38.4002Z" fill="#2E3A4B" fill-opacity="0.7"/>
<path d="M70.2137 38.7004C70.2137 39.0862 70.0994 39.3862 69.8851 39.6004C69.6708 39.829 69.3565 39.929 68.9708 39.929C68.7423 39.929 68.5423 39.8862 68.3851 39.7719C68.228 39.6719 68.0851 39.5004 67.9565 39.2719L68.6137 38.8862C68.6994 39.0719 68.8137 39.1719 68.9565 39.1719C69.2137 39.1719 69.3423 38.9861 69.3423 38.629V36.2147H70.1994V38.7004H70.2137Z" fill="#2E3A4B" fill-opacity="0.7"/>
<path d="M72.6285 39.1711C72.9428 39.1711 73.2 39.0711 73.4 38.8569C73.6 38.6426 73.7142 38.3711 73.7142 38.0569C73.7142 37.7426 73.6142 37.4711 73.4 37.2569C73.1857 37.0426 72.9285 36.9283 72.6285 36.9283C72.3142 36.9283 72.0571 37.0426 71.8571 37.2569C71.6428 37.4711 71.5428 37.7426 71.5428 38.0569C71.5428 38.3711 71.6428 38.6426 71.8571 38.8569C72.0571 39.0711 72.3142 39.1711 72.6285 39.1711ZM72.6285 39.9426C72.0857 39.9426 71.6142 39.7569 71.2428 39.3997C70.8714 39.0283 70.6857 38.5854 70.6857 38.0569C70.6857 37.5283 70.8714 37.0711 71.2428 36.714C71.6142 36.3569 72.0714 36.1711 72.6285 36.1711C73.1857 36.1711 73.6428 36.3569 74.0142 36.714C74.3857 37.0711 74.5714 37.5283 74.5714 38.0569C74.5714 38.5997 74.3857 39.0426 74.0142 39.414C73.6428 39.7569 73.1857 39.9426 72.6285 39.9426Z" fill="#2E3A4B" fill-opacity="0.7"/>
<path d="M78.3568 38.1858C78.3568 38.5286 78.3139 38.8001 78.2425 39.0001C78.1711 39.1858 78.0568 39.3572 77.9139 39.5144C77.7711 39.6715 77.5996 39.7715 77.3853 39.8429C77.1853 39.9144 76.9425 39.9572 76.6568 39.9572C76.3996 39.9572 76.1711 39.9144 75.9711 39.8429C75.7711 39.7715 75.5996 39.6572 75.4568 39.5001C75.3139 39.3429 75.1996 39.1715 75.1282 38.9858C75.0568 38.8001 75.0139 38.5286 75.0139 38.1858V36.2286H75.8711V38.1572C75.8711 38.5001 75.9425 38.7572 76.0853 38.9286C76.2139 39.1001 76.4139 39.1858 76.6711 39.1858C77.1996 39.1858 77.4711 38.8429 77.4711 38.1572V36.2286H78.3282V38.1858H78.3568Z" fill="#2E3A4B" fill-opacity="0.7"/>
<path d="M79.8 36.9145V37.7716H80.1C80.2572 37.7716 80.3857 37.7288 80.4714 37.643C80.5572 37.5573 80.6143 37.4573 80.6143 37.3288C80.6143 37.2145 80.5714 37.1145 80.4857 37.0288C80.4 36.9573 80.2857 36.9145 80.1286 36.9145H79.8ZM80.8572 39.8716L79.9572 38.5002H79.8V39.8716H78.9429V36.2288H80.1857C80.5857 36.2288 80.9 36.3288 81.1286 36.5288C81.3572 36.7288 81.4714 37.0002 81.4714 37.343C81.4714 37.5716 81.4143 37.7716 81.3 37.943C81.1857 38.1145 81.0143 38.243 80.8 38.3288L81.8429 39.8859H80.8572V39.8716Z" fill="#2E3A4B" fill-opacity="0.7"/>
<path d="M84.6578 39.8715L83.0435 37.6144V39.8715H82.1864V36.2286H83.0578L84.6721 38.5144V36.2286H85.5293V39.8715H84.6578Z" fill="#2E3A4B" fill-opacity="0.7"/>
<path d="M86.1433 39.8715V36.2286H88.4147V36.9572H86.9862V37.5858H88.1147V38.3286H86.9862V39.1144H88.529V39.8715H86.1433Z" fill="#2E3A4B" fill-opacity="0.7"/>
<path d="M90.8433 38.4001V39.8715H90.0005V38.4001L88.7434 36.2286H89.729L90.429 37.5858L91.129 36.2286H92.1005L90.8433 38.4001Z" fill="#2E3A4B" fill-opacity="0.7"/>
<path d="M96.9143 39.8716V37.6145L95.9 38.8859L94.9 37.6145V39.8716H94.0428V36.2288H94.8571L95.9 37.6145L96.9143 36.2288H97.7714V39.8716H96.9143Z" fill="#2E3A4B" fill-opacity="0.7"/>
<path d="M99.9285 37.2288L99.5285 38.4716H100.343L99.9285 37.2288ZM100.814 39.8716L100.6 39.2145H99.2857L99.0714 39.8716H98.1428L99.4857 36.2288H100.343L101.729 39.8716H100.814Z" fill="#2E3A4B" fill-opacity="0.7"/>
<path d="M103.771 36.9859V39.8716H102.914V36.9859H101.943V36.2288H104.757V36.9859H103.771Z" fill="#2E3A4B" fill-opacity="0.7"/>
<path d="M106.829 36.9859V39.8716H105.971V36.9859H104.986V36.2288H107.8V36.9859H106.829Z" fill="#2E3A4B" fill-opacity="0.7"/>
<path d="M108.214 39.8715V36.2286H110.499V36.9572H109.071V37.5858H110.199V38.3286H109.071V39.1144H110.614V39.8715H108.214Z" fill="#2E3A4B" fill-opacity="0.7"/>
<path d="M111.914 36.9144V37.7715H112.214C112.371 37.7715 112.499 37.7286 112.585 37.6429C112.685 37.5572 112.728 37.4572 112.728 37.3286C112.728 37.2144 112.685 37.1144 112.599 37.0286C112.514 36.9572 112.399 36.9144 112.242 36.9144H111.914ZM112.971 39.8715L112.071 38.5001H111.899V39.8715H111.042V36.2286H112.285C112.685 36.2286 113.014 36.3286 113.242 36.5286C113.471 36.7286 113.571 37.0001 113.571 37.3429C113.571 37.5715 113.514 37.7715 113.399 37.9429C113.285 38.1144 113.128 38.2429 112.899 38.3286L113.942 39.8858H112.971V39.8715Z" fill="#2E3A4B" fill-opacity="0.7"/>
<path d="M114.157 39.1572L114.799 38.7715C114.928 39.0715 115.128 39.2144 115.399 39.2144C115.542 39.2144 115.671 39.1858 115.757 39.1144C115.842 39.0429 115.885 38.9572 115.885 38.8572C115.885 38.7572 115.857 38.6858 115.785 38.6144C115.714 38.5429 115.528 38.4429 115.228 38.3001C114.871 38.1429 114.642 37.9858 114.514 37.8144C114.385 37.6572 114.328 37.4429 114.328 37.2001C114.328 36.9001 114.442 36.6572 114.671 36.4572C114.899 36.2572 115.185 36.1572 115.528 36.1572C116.042 36.1572 116.399 36.3572 116.628 36.7572L116.028 37.1429C115.914 36.9572 115.742 36.8572 115.514 36.8572C115.399 36.8572 115.314 36.8858 115.242 36.9429C115.171 37.0001 115.128 37.0715 115.128 37.1715C115.128 37.2715 115.171 37.3429 115.242 37.4001C115.314 37.4572 115.485 37.5572 115.728 37.6715C116.099 37.8429 116.357 38.0144 116.514 38.1858C116.671 38.3572 116.742 38.5715 116.742 38.8429C116.742 39.1715 116.614 39.4287 116.357 39.6429C116.099 39.8572 115.785 39.9572 115.399 39.9572C114.842 39.9429 114.428 39.6858 114.157 39.1572Z" fill="#2E3A4B" fill-opacity="0.7"/>
<path d="M54.2002 11.5138V17.1852H52.5146V11.5138H50.5859V10.0281H56.1288V11.5138H54.2002Z" fill="#2E3A4B" fill-opacity="0.7"/>
<path d="M58.6298 11.3718V13.0575H59.2155C59.5155 13.0575 59.7727 12.9861 59.9584 12.8146C60.1441 12.6432 60.2298 12.4432 60.2298 12.1861C60.2298 11.9575 60.1441 11.7575 59.9727 11.6146C59.8012 11.4575 59.5727 11.3861 59.2869 11.3861H58.6298V11.3718ZM60.7298 17.186L58.9584 14.4861H58.6298V17.186H56.9441V10.0289H59.3869C60.1869 10.0289 60.8012 10.2289 61.2441 10.6146C61.6869 11.0004 61.9012 11.5289 61.9012 12.2004C61.9012 12.6575 61.787 13.0432 61.5727 13.3718C61.3441 13.7004 61.0155 13.9575 60.6012 14.1289L62.6441 17.186H60.7298Z" fill="#2E3A4B" fill-opacity="0.7"/>
<path d="M66.4136 11.9861L65.6136 14.4289H67.2279L66.4136 11.9861ZM68.1279 17.186L67.6993 15.8861H65.1421L64.7279 17.186H62.8993L65.5422 10.0289H67.2422L69.9564 17.186H68.1279Z" fill="#2E3A4B" fill-opacity="0.7"/>
<path d="M75.5439 17.186L72.401 12.7575V17.186H70.7153V10.0289H72.4153L75.601 14.5146V10.0289H77.2868V17.186H75.5439Z" fill="#2E3A4B" fill-opacity="0.7"/>
<path d="M78.186 15.7572L79.4575 15C79.7146 15.5857 80.1003 15.8715 80.6575 15.8715C80.9432 15.8715 81.186 15.8 81.3575 15.6715C81.5289 15.5429 81.6146 15.3715 81.6146 15.1572C81.6146 14.9715 81.5432 14.8143 81.4146 14.6715C81.286 14.5429 80.9146 14.3286 80.3289 14.0715C79.6432 13.7715 79.1575 13.4429 78.9146 13.1143C78.6575 12.7857 78.5432 12.3857 78.5432 11.9143C78.5432 11.3429 78.7717 10.8572 79.2146 10.4572C79.6575 10.0572 80.2289 9.85718 80.9146 9.85718C81.9146 9.85718 82.6289 10.2429 83.0717 11.0286L81.9003 11.7857C81.686 11.4143 81.3432 11.2286 80.9003 11.2286C80.6718 11.2286 80.5003 11.2857 80.3575 11.4C80.2146 11.5143 80.1432 11.6572 80.1432 11.8286C80.1432 12.0143 80.2146 12.1572 80.3575 12.2857C80.5003 12.4143 80.8146 12.5857 81.3146 12.8143C82.0432 13.1572 82.5575 13.5 82.8575 13.8286C83.1575 14.1715 83.3003 14.6 83.3003 15.1143C83.3003 15.7429 83.0432 16.2714 82.5289 16.6857C82.0146 17.1 81.386 17.3 80.6432 17.3C79.5289 17.3143 78.7146 16.8 78.186 15.7572Z" fill="#2E3A4B" fill-opacity="0.7"/>
<path d="M85.9142 11.3995V13.4709H86.4428C86.8428 13.4709 87.1571 13.3852 87.3571 13.1995C87.5714 13.0138 87.6714 12.7709 87.6714 12.4424C87.6714 12.0995 87.5714 11.8424 87.3571 11.6709C87.1428 11.4995 86.8428 11.3995 86.4428 11.3995H85.9142ZM85.9142 14.8424V17.1852H84.2285V10.0281H86.6285C87.4857 10.0281 88.1714 10.2424 88.6428 10.6709C89.1285 11.0995 89.3715 11.6852 89.3715 12.4138C89.3715 13.1566 89.1142 13.7566 88.5999 14.1852C88.0857 14.6281 87.4142 14.8424 86.5571 14.8424H85.9142Z" fill="#2E3A4B" fill-opacity="0.7"/>
<path d="M93.8569 15.8144C94.4712 15.8144 94.9712 15.6002 95.3855 15.1859C95.7855 14.7716 95.9997 14.243 95.9997 13.6144C95.9997 12.9859 95.7997 12.4573 95.3855 12.043C94.9712 11.6287 94.4712 11.4144 93.8569 11.4144C93.2426 11.4144 92.7426 11.6287 92.3426 12.043C91.9426 12.4716 91.7283 12.9859 91.7283 13.6144C91.7283 14.243 91.9283 14.7716 92.3426 15.1859C92.7426 15.6002 93.2426 15.8144 93.8569 15.8144ZM93.8569 17.3145C92.7712 17.3145 91.8712 16.9573 91.1426 16.243C90.414 15.5287 90.0426 14.643 90.0426 13.6001C90.0426 12.5573 90.3997 11.6716 91.1283 10.9573C91.8569 10.243 92.7569 9.88586 93.8426 9.88586C94.9283 9.88586 95.8283 10.243 96.5712 10.9573C97.2997 11.6716 97.6712 12.5573 97.6712 13.6001C97.6712 14.6573 97.2997 15.543 96.5712 16.243C95.8426 16.9573 94.9426 17.3145 93.8569 17.3145Z" fill="#2E3A4B" fill-opacity="0.7"/>
<path d="M100.315 11.3718V13.0575H100.901C101.215 13.0575 101.458 12.9861 101.644 12.8146C101.83 12.6432 101.915 12.4432 101.915 12.1861C101.901 11.9575 101.83 11.7575 101.658 11.6146C101.487 11.4575 101.258 11.3861 100.958 11.3861H100.315V11.3718ZM102.401 17.186L100.63 14.4861H100.301V17.186H98.6154V10.0289H101.044C101.844 10.0289 102.473 10.2289 102.901 10.6146C103.344 11.0004 103.558 11.5289 103.558 12.2004C103.558 12.6575 103.444 13.0432 103.215 13.3718C102.987 13.7004 102.658 13.9575 102.244 14.1289L104.287 17.186H102.401Z" fill="#2E3A4B" fill-opacity="0.7"/>
<path d="M108.257 11.5146V17.186H106.571V11.5146H104.642V10.0289H110.185V11.5146H108.257Z" fill="#2E3A4B" fill-opacity="0.7"/>
<path d="M52.2577 22.8287V24.043H54.5149V25.5002H52.2577V28.543H50.572V21.3859H55.1006V22.8287H52.2577Z" fill="#2E3A4B" fill-opacity="0.7"/>
<path d="M59.4852 27.172C60.0995 27.172 60.5996 26.9577 61.0139 26.5434C61.4139 26.1291 61.6281 25.6005 61.6281 24.9577C61.6281 24.3291 61.4282 23.8005 61.0139 23.3863C60.6139 22.972 60.0995 22.7577 59.4852 22.7577C58.8709 22.7577 58.3709 22.972 57.9709 23.3863C57.5709 23.8148 57.3566 24.3291 57.3566 24.9577C57.3566 25.5863 57.5566 26.1005 57.9709 26.5291C58.3709 26.9577 58.8852 27.172 59.4852 27.172ZM59.4852 28.6863C58.3995 28.6863 57.4995 28.3291 56.7709 27.6148C56.0424 26.9005 55.671 26.0148 55.671 24.972C55.671 23.9291 56.0281 23.0434 56.7566 22.3291C57.4852 21.6148 58.3995 21.2577 59.4709 21.2577C60.5566 21.2577 61.4566 21.6148 62.1852 22.3291C62.9138 23.0434 63.2852 23.9291 63.2852 24.972C63.2852 26.0291 62.9138 26.9148 62.1852 27.6291C61.4709 28.3291 60.5709 28.6863 59.4852 28.6863Z" fill="#2E3A4B" fill-opacity="0.7"/>
<path d="M65.9432 22.7286V24.4143H66.5289C66.8432 24.4143 67.086 24.3429 67.2717 24.1715C67.4574 24 67.5432 23.8 67.5432 23.5429C67.5432 23.3143 67.4574 23.1143 67.286 22.9715C67.1146 22.8143 66.886 22.7429 66.586 22.7429H65.9432V22.7286ZM68.0432 28.5429L66.2717 25.8429H65.9574V28.5429H64.2717V21.3857H66.7146C67.5146 21.3857 68.1289 21.5857 68.5717 21.9715C69.0146 22.3572 69.2289 22.8857 69.2289 23.5715C69.2289 24.0286 69.1146 24.4143 68.886 24.7429C68.6574 25.0715 68.3289 25.3286 67.9146 25.5L69.9574 28.5572H68.0432V28.5429Z" fill="#2E3A4B" fill-opacity="0.7"/>
<path d="M72.944 28.543V21.3859H74.6297V27.0573H77.3725V28.543H72.944Z" fill="#2E3A4B" fill-opacity="0.7"/>
<path d="M81.7576 27.172C82.3719 27.172 82.8719 26.9577 83.2719 26.5434C83.6862 26.1291 83.8862 25.6005 83.8862 24.9577C83.8862 24.3291 83.6862 23.8005 83.2719 23.3863C82.8719 22.972 82.3576 22.7577 81.7576 22.7577C81.1434 22.7577 80.6434 22.972 80.2434 23.3863C79.8434 23.8148 79.6291 24.3291 79.6291 24.9577C79.6291 25.5863 79.8291 26.1005 80.2434 26.5291C80.6576 26.9577 81.1576 27.172 81.7576 27.172ZM81.7576 28.6863C80.6719 28.6863 79.7719 28.3291 79.0434 27.6148C78.3148 26.9005 77.9576 26.0148 77.9576 24.972C77.9576 23.9291 78.3148 23.0434 79.0434 22.3291C79.7719 21.6148 80.6719 21.2577 81.7576 21.2577C82.8434 21.2577 83.7434 21.6148 84.4862 22.3291C85.2148 23.0434 85.5862 23.9291 85.5862 24.972C85.5862 26.0291 85.2148 26.9148 84.4862 27.6291C83.7576 28.3291 82.8434 28.6863 81.7576 28.6863Z" fill="#2E3A4B" fill-opacity="0.7"/>
<path d="M91.3572 28.5429L88.2144 24.1143V28.5429H86.5287V21.3857H88.2144L91.4143 25.8715V21.3857H93.0857V28.5429H91.3572Z" fill="#2E3A4B" fill-opacity="0.7"/>
<path d="M95.9572 22.7857V27.1572H96.4143C97.1858 27.1572 97.8001 26.9715 98.2429 26.5857C98.6858 26.2 98.9001 25.6715 98.9001 24.9857C98.9001 24.2857 98.6715 23.7429 98.2429 23.3572C97.8001 22.9857 97.2001 22.7857 96.4143 22.7857H95.9572ZM94.2715 28.5429V21.3857H96.5858C97.8001 21.3857 98.7715 21.7 99.5001 22.3429C100.229 22.9715 100.586 23.8429 100.586 24.9286C100.586 26.0857 100.229 26.9715 99.5001 27.6C98.7715 28.2286 97.7715 28.5572 96.4858 28.5572H94.2715V28.5429Z" fill="#2E3A4B" fill-opacity="0.7"/>
<path d="M105.115 27.172C105.729 27.172 106.229 26.9577 106.643 26.5434C107.043 26.1291 107.258 25.6005 107.258 24.9577C107.258 24.3291 107.058 23.8005 106.643 23.3863C106.229 22.972 105.729 22.7577 105.115 22.7577C104.501 22.7577 104.001 22.972 103.601 23.3863C103.201 23.8148 102.986 24.3291 102.986 24.9577C102.986 25.5863 103.186 26.1005 103.601 26.5291C104.001 26.9577 104.501 27.172 105.115 27.172ZM105.115 28.6863C104.029 28.6863 103.129 28.3291 102.401 27.6148C101.672 26.9005 101.315 26.0148 101.315 24.972C101.315 23.9291 101.672 23.0434 102.401 22.3291C103.129 21.6148 104.043 21.2577 105.115 21.2577C106.201 21.2577 107.101 21.6148 107.843 22.3291C108.572 23.0434 108.943 23.9291 108.943 24.972C108.943 26.0291 108.572 26.9148 107.843 27.6291C107.101 28.3291 106.201 28.6863 105.115 28.6863Z" fill="#2E3A4B" fill-opacity="0.7"/>
<path d="M114.828 28.543L111.685 24.1144V28.543H109.999V21.3859H111.699L114.885 25.8716V21.3859H116.571V28.543H114.828Z" fill="#2E3A4B" fill-opacity="0.7"/>
</g>
</g>
</g>
<defs>
<clipPath id="clip0_18173_139017">
<rect width="116.964" height="50" fill="white"/>
</clipPath>
</defs>
</svg>
