<svg width="167" height="50" viewBox="0 0 167 50" fill="none" xmlns="http://www.w3.org/2000/svg">
<g clip-path="url(#clip0_18173_139089)">
<path fill-rule="evenodd" clip-rule="evenodd" d="M70.8587 19.2106C72.5986 19.1733 74.3354 19.3738 76.021 19.8066L74.9622 24.4758C73.7553 23.9952 72.4707 23.739 71.1718 23.7194C68.7762 23.6611 66.6615 25.2747 66.0851 27.6007C65.4075 29.9662 66.318 31.199 68.6821 31.199C70.0881 31.16 71.4798 30.9049 72.8083 30.4427L70.7104 35.1436C69.1154 35.5142 67.4837 35.705 65.8462 35.7124C60.7035 35.7124 58.5662 32.9324 60.0607 27.7292C60.5402 26.0548 62.9118 19.2106 70.8587 19.2106ZM125.704 15.4565L124.363 19.5887H127.894L126.585 23.7179H123.015C122.411 25.4861 121.877 26.9367 121.276 29.0209C120.931 30.2143 120.904 31.1959 122.229 31.1959C123.009 31.1709 123.783 31.0537 124.536 30.8466L122.498 35.1966C121.098 35.5338 119.663 35.7044 118.224 35.7048C115.199 35.7048 113.41 34.8851 114.38 31.5091C115.093 29.0194 116.156 26.5176 117.056 23.715H114.688L116.029 19.5857H118.586L119.588 16.7451L125.704 15.4565ZM138.032 19.2076C142.953 19.2076 146.351 21.8591 144.838 27.1559C143.327 32.3801 138.454 35.9053 133.02 35.7063C125.198 35.7063 125.333 30.2809 126.039 27.82C127.638 22.5755 132.548 19.0488 138.029 19.2076H138.032ZM87.4376 19.2076C92.4152 19.2076 93.5812 20.8714 92.825 23.4956C92.6964 23.9493 91.7241 26.7309 90.7455 29.6168L90.5946 30.0616C89.9179 32.0626 89.2617 34.0592 88.9017 35.3101H82.8516C82.9545 35.0393 83.0633 34.761 83.1692 34.4857L83.0346 34.3178C81.6332 35.275 79.9614 35.7569 78.2656 35.6927C72.4983 35.7457 73.6296 31.5302 73.7279 31.1823C75.6322 24.5362 85.7905 26.5827 86.5846 23.8117C86.8764 22.7726 85.8404 22.5488 84.9904 22.5488C82.5914 22.6843 80.2271 23.1836 77.9782 24.0295L79.7237 20.1847C82.2546 19.5945 84.8396 19.2671 87.4376 19.2076ZM40.4915 19.5887C38.4526 24.8236 36.9083 30.0902 35.4063 35.3282H28.8464C30.7492 30.5637 32.3163 25.8658 34.1781 19.5887H40.49H40.4915ZM8.30167 14.2858C7.62404 19.2771 7.55901 24.1263 6.9313 28.9574H6.99483C9.48295 24.1278 12.2978 19.2771 14.7662 14.2858H21.8933C21.1083 19.2378 20.585 24.1263 20.0012 28.9241H20.0631C22.6556 24.0674 25.903 19.2439 28.6846 14.2858H34.833C30.4255 21.2888 26.0996 28.303 21.8555 35.3282H13.8104C14.37 30.9751 14.5167 26.7173 15.3607 22.458H15.2896C13.2189 26.7173 10.5796 30.9751 8.22906 35.3282H0.5C1.164 28.2949 1.62684 21.2903 2.02162 14.2873H8.30167V14.2858ZM161.116 19.2076C164.206 19.2076 166.553 20.3737 165.448 24.2201C165.421 24.3139 165.371 24.4727 165.297 24.6859L165.232 24.8826C164.858 26.0004 164.095 28.2102 163.329 30.5214L163.113 31.1748L162.971 31.6119L162.83 32.0475C162.456 33.2061 162.103 34.339 161.82 35.3251H155.603C156.583 32.5844 157.653 29.8392 158.441 27.0969C158.886 25.5466 158.819 24.1263 156.986 24.1263C155.332 24.2467 153.865 25.2312 153.127 26.7158C151.791 29.4843 150.701 32.3646 149.868 35.3236H143.594C145.711 30.122 147.447 24.8554 149.051 19.5933H155.199L154.452 21.6427L154.501 21.7063C156.282 20.0213 158.665 19.1213 161.116 19.2076ZM55.2826 19.2076C58.3757 19.2076 60.7277 20.3737 59.6205 24.2201C59.5933 24.3139 59.5434 24.4727 59.4693 24.6859L59.4042 24.8826C59.0306 26.0004 58.2653 28.2102 57.4985 30.5214L57.2837 31.1748L57.1415 31.6119L57.0008 32.0475C56.6272 33.2061 56.2748 34.339 55.992 35.3251H49.7754C50.7495 32.5844 51.8234 29.8392 52.6114 27.0969C53.0486 25.5466 52.9865 24.1263 51.1548 24.1263C49.5013 24.2476 48.0343 25.2318 47.2949 26.7158C46.1891 28.9174 45.2884 31.216 44.6041 33.5827L44.415 34.1635L44.0384 35.3251H37.7644C39.882 30.1235 41.6168 24.8569 43.2201 19.5948H49.3716L48.6259 21.6367L48.6697 21.7002C50.4523 20.019 52.8337 19.1213 55.2826 19.2076ZM108.86 19.2076C111.951 19.2076 114.296 20.3737 113.192 24.2201C113.04 24.7813 112.009 27.6914 111.003 30.7392L110.859 31.1748L110.717 31.6119L110.577 32.0475C110.203 33.2061 109.85 34.339 109.568 35.3251H103.355C104.328 32.5844 105.401 29.8392 106.187 27.0969C106.63 25.5466 106.565 24.1263 104.737 24.1263C103.08 24.2454 101.609 25.2298 100.868 26.7158C99.6848 29.1059 98.7232 31.5988 97.9938 34.1635L97.8045 34.7443L97.617 35.3236H91.3402C93.4571 30.122 95.1911 24.8554 96.7955 19.5933H102.95L102.206 21.6427L102.25 21.7063C104.03 20.0232 106.411 19.1233 108.86 19.2076ZM85.3382 28.2828C83.9391 29.1041 80.2787 29.2311 79.7418 31.0885C79.4665 32.0642 80.2697 32.3485 81.1182 32.3485C82.3737 32.2304 83.5544 31.6983 84.4745 30.8359C84.7634 29.9784 85.0478 29.1267 85.3382 28.2813V28.2828ZM136.731 23.6226C134.399 23.6226 132.824 25.7039 132.233 27.7579C131.721 29.5534 132.106 31.2882 134.186 31.2882C136.553 31.2882 138.1 29.0829 138.671 27.0969C139.207 25.232 138.78 23.6226 136.731 23.6226ZM41.9738 14.2933L40.7486 18.0187H34.7257L35.8601 14.2933H41.9738Z" fill="#2E3A4B" fill-opacity="0.7"/>
</g>
<defs>
<clipPath id="clip0_18173_139089">
<rect width="166.071" height="50" fill="white" transform="translate(0.5)"/>
</clipPath>
</defs>
</svg>
