<svg width="95" height="22" viewBox="0 0 95 22" fill="none" xmlns="http://www.w3.org/2000/svg">
<g opacity="0.7" clip-path="url(#clip0_19533_115008)">
<path d="M13.8074 13.4644C13.7261 13.4234 13.6384 13.3888 13.5442 13.3615C13.4283 13.3269 13.3365 13.2939 13.2697 13.2625C13.2029 13.2311 13.1546 13.1965 13.1264 13.1587C13.0982 13.1209 13.0837 13.0758 13.0837 13.0235C13.0837 12.9624 13.1006 12.9125 13.1336 12.8731C13.1666 12.8336 13.2109 12.8039 13.2665 12.7846C13.322 12.7645 13.3824 12.7548 13.4492 12.7548C13.5273 12.7548 13.6038 12.7677 13.6786 12.7942C13.7535 12.82 13.8244 12.8626 13.8896 12.9205L14.0248 12.7709C13.9483 12.7041 13.8638 12.6526 13.7704 12.6164C13.677 12.5802 13.5676 12.5625 13.4404 12.5625C13.3244 12.5625 13.2222 12.5826 13.1336 12.6228C13.0451 12.6631 12.9751 12.7186 12.9243 12.7894C12.8736 12.8602 12.8487 12.9407 12.8487 13.0324C12.8487 13.1289 12.8728 13.2094 12.9211 13.2754C12.9694 13.3405 13.037 13.3961 13.1256 13.4403C13.2133 13.4846 13.318 13.5248 13.4379 13.5602C13.5426 13.5908 13.6239 13.623 13.6819 13.6551C13.7406 13.6873 13.7809 13.7243 13.8042 13.7662C13.8276 13.808 13.8388 13.8579 13.8388 13.9174C13.8388 13.9947 13.8187 14.0574 13.7793 14.1073C13.7398 14.1572 13.6875 14.1942 13.6231 14.2184C13.5587 14.2425 13.4895 14.2546 13.4146 14.2546C13.3043 14.2546 13.2077 14.2369 13.1256 14.2023C13.0435 14.1677 12.9702 14.1202 12.9066 14.0607L12.7698 14.2143C12.8471 14.2884 12.9396 14.3463 13.0475 14.3865C13.1554 14.4275 13.2769 14.4477 13.4106 14.4477C13.5531 14.4477 13.6738 14.4251 13.7728 14.3793C13.8718 14.3334 13.9475 14.2707 13.9998 14.1894C14.0522 14.1081 14.0779 14.0156 14.0779 13.9118C14.0779 13.7951 14.053 13.7018 14.0039 13.631C13.9548 13.5602 13.8896 13.5047 13.8083 13.4636L13.8074 13.4644Z" fill="#2E3A4B"/>
<path d="M15.2685 14.0481C15.2307 14.1085 15.1768 14.16 15.1083 14.2042C15.0399 14.2477 14.9667 14.2702 14.8902 14.2702C14.8137 14.2702 14.7501 14.2501 14.7123 14.2091C14.6744 14.168 14.6551 14.1021 14.6551 14.0103V13.0215H14.4321V14.0369C14.4321 14.1664 14.4651 14.2678 14.532 14.3402C14.5988 14.4126 14.6994 14.448 14.8346 14.448C14.9168 14.448 14.9981 14.4295 15.0786 14.3917C15.1591 14.3539 15.2267 14.3 15.2814 14.2292L15.2999 14.4175H15.4899V13.0215H15.2669V14.049L15.2685 14.0481Z" fill="#2E3A4B"/>
<path d="M17.0169 14.0945C17.0564 13.9843 17.0757 13.8595 17.0757 13.7187C17.0757 13.5779 17.0596 13.4452 17.0266 13.3366C16.9936 13.2279 16.9404 13.1426 16.8664 13.0823C16.7923 13.022 16.6941 12.9922 16.5701 12.9922C16.4864 12.9922 16.4083 13.0115 16.3375 13.0501C16.2666 13.0887 16.2047 13.1443 16.1539 13.2159L16.1354 13.0212H15.9454V14.9795L16.1684 14.9514V14.286C16.261 14.3938 16.3842 14.4477 16.5371 14.4477C16.6579 14.4477 16.7585 14.4163 16.8382 14.3536C16.9179 14.2908 16.9775 14.2047 17.0169 14.0945ZM16.7497 14.1291C16.6917 14.2176 16.6039 14.2618 16.488 14.2618C16.422 14.2618 16.3608 14.2465 16.3053 14.2152C16.2497 14.1838 16.2038 14.1411 16.1684 14.0872V13.3953C16.2063 13.339 16.2546 13.2875 16.3133 13.2408C16.3721 13.1941 16.4397 13.1708 16.517 13.1708C16.5943 13.1708 16.6506 13.1909 16.6973 13.2312C16.744 13.2714 16.7794 13.3317 16.802 13.413C16.8253 13.4943 16.8366 13.5956 16.8366 13.7171C16.8366 13.9038 16.8076 14.0414 16.7488 14.1291H16.7497Z" fill="#2E3A4B"/>
<path d="M18.3502 14.3536C18.4299 14.2908 18.4894 14.2047 18.5289 14.0945C18.5683 13.9843 18.5876 13.8595 18.5876 13.7187C18.5876 13.5779 18.5715 13.4452 18.5385 13.3366C18.5055 13.2279 18.4524 13.1426 18.3783 13.0823C18.3043 13.022 18.2061 12.9922 18.0821 12.9922C17.9984 12.9922 17.9203 13.0115 17.8494 13.0501C17.7786 13.0887 17.7166 13.1443 17.6659 13.2159L17.6474 13.0212H17.4574V14.9795L17.6804 14.9514V14.286C17.773 14.3938 17.8961 14.4477 18.0491 14.4477C18.1698 14.4477 18.2705 14.4163 18.3502 14.3536ZM17.818 14.2152C17.7625 14.1838 17.7166 14.1411 17.6812 14.0872V13.3953C17.719 13.339 17.7673 13.2875 17.8261 13.2408C17.8849 13.1941 17.9525 13.1708 18.0298 13.1708C18.107 13.1708 18.1634 13.1909 18.2101 13.2312C18.2568 13.2714 18.2922 13.3317 18.3147 13.413C18.3381 13.4943 18.3494 13.5956 18.3494 13.7171C18.3494 13.9038 18.3204 14.0414 18.2616 14.1291C18.2037 14.2176 18.1159 14.2618 18 14.2618C17.934 14.2618 17.8728 14.2465 17.8172 14.2152H17.818Z" fill="#2E3A4B"/>
<path d="M19.8336 13.0815C19.745 13.022 19.6347 12.9922 19.5027 12.9922C19.3707 12.9922 19.2612 13.0228 19.1718 13.0847C19.0817 13.1459 19.014 13.232 18.9682 13.3414C18.9223 13.4508 18.8989 13.5779 18.8989 13.722C18.8989 13.866 18.9215 13.9955 18.9674 14.1041C19.0132 14.2136 19.0801 14.298 19.1694 14.3584C19.2588 14.4187 19.3691 14.4485 19.4995 14.4485C19.6299 14.4485 19.7402 14.4171 19.8287 14.3552C19.9173 14.2932 19.9849 14.2071 20.0308 14.0969C20.0767 13.9875 20.1 13.8611 20.1 13.7187C20.1 13.5763 20.0775 13.4428 20.0332 13.3341C19.9889 13.2255 19.9221 13.141 19.8328 13.0815H19.8336ZM19.7708 14.1307C19.7104 14.22 19.6194 14.2642 19.4995 14.2642C19.3795 14.2642 19.2886 14.22 19.2282 14.1307C19.1678 14.0414 19.1372 13.9046 19.1372 13.7211C19.1372 13.5377 19.1678 13.3953 19.2298 13.3068C19.2918 13.2183 19.3819 13.1732 19.5027 13.1732C19.6234 13.1732 19.712 13.2175 19.7724 13.3068C19.8328 13.3961 19.8625 13.5329 19.8625 13.7187C19.8625 13.9046 19.8319 14.0422 19.7716 14.1307H19.7708Z" fill="#2E3A4B"/>
<path d="M21.5297 12.9991C21.4992 12.9935 21.4645 12.9902 21.4259 12.9902C21.2995 12.9902 21.1981 13.0216 21.1208 13.0844C21.0435 13.1471 20.9783 13.2356 20.9244 13.3507L20.8833 13.0208H20.4961V13.1922H20.7134V14.2462H20.4961V14.4176H21.2206V14.2462H20.9364V13.6548C20.9823 13.5012 21.0435 13.3861 21.1208 13.3105C21.1981 13.234 21.2898 13.1962 21.3969 13.1962C21.4009 13.1962 21.405 13.1962 21.409 13.1962V13.4931H21.5917L21.6239 13.0208C21.5917 13.012 21.5611 13.0047 21.5305 12.9991H21.5297Z" fill="#2E3A4B"/>
<path d="M23.1033 14.3471L23.0172 14.1958C22.9793 14.2151 22.9383 14.2312 22.894 14.2433C22.8497 14.2554 22.8014 14.2618 22.7491 14.2618C22.6533 14.2618 22.5849 14.2417 22.5438 14.2007C22.5027 14.1596 22.4818 14.1009 22.4818 14.0228V13.1925H22.9383L22.9648 13.0203H22.4818V12.6768L22.2588 12.7033V13.0203H21.9376V13.1925H22.2588V14.0253C22.2588 14.1492 22.2999 14.2505 22.3812 14.3286C22.4625 14.4074 22.5784 14.4469 22.729 14.4469C22.7942 14.4469 22.861 14.438 22.9294 14.4203C22.9978 14.4026 23.0558 14.3777 23.1033 14.3463V14.3471Z" fill="#2E3A4B"/>
<path d="M23.9203 12.4113C23.8905 12.441 23.8752 12.4781 23.8752 12.5215C23.8752 12.5649 23.8905 12.6044 23.9203 12.6349C23.9501 12.6655 23.9888 12.6808 24.0354 12.6808C24.0846 12.6808 24.1248 12.6655 24.1538 12.6349C24.1836 12.6044 24.1981 12.5666 24.1981 12.5215C24.1981 12.4764 24.1836 12.4418 24.1538 12.4113C24.124 12.3815 24.0846 12.3662 24.0354 12.3662C23.9863 12.3662 23.9501 12.3815 23.9203 12.4113Z" fill="#2E3A4B"/>
<path d="M24.608 14.2403H24.2143V13.0205H23.5735V13.1967H23.9913V14.2403H23.5598V14.4165H24.608V14.2403Z" fill="#2E3A4B"/>
<path d="M25.6875 12.991C25.607 12.991 25.524 13.0103 25.4387 13.049C25.3534 13.0876 25.2825 13.1423 25.2262 13.2139L25.2093 13.02H25.0193V14.416H25.2423V13.399C25.2672 13.3628 25.2978 13.3266 25.3357 13.2912C25.3735 13.2557 25.4162 13.2252 25.4645 13.2018C25.5128 13.1777 25.5643 13.1656 25.619 13.1656C25.6899 13.1656 25.7422 13.1793 25.7752 13.2059C25.809 13.2332 25.8307 13.2759 25.8412 13.3346C25.8517 13.3933 25.8573 13.4706 25.8573 13.5663V14.416H26.0803V13.4014C26.0803 13.2726 26.0489 13.1713 25.9869 13.0989C25.9249 13.0264 25.8251 12.9902 25.6875 12.9902V12.991Z" fill="#2E3A4B"/>
<path d="M27.6315 14.3598C27.5889 14.3034 27.5301 14.2584 27.4552 14.2246C27.3803 14.1908 27.2966 14.1739 27.2024 14.1739H26.9505C26.8788 14.1739 26.8297 14.1626 26.8032 14.1409C26.7766 14.1192 26.7637 14.091 26.7637 14.0572C26.7637 14.0307 26.7701 14.0049 26.7846 13.98C26.7983 13.9551 26.816 13.9357 26.837 13.9221C26.8659 13.9309 26.8965 13.9374 26.9279 13.9422C26.9593 13.947 26.9988 13.9486 27.0455 13.9486C27.1557 13.9486 27.2507 13.9285 27.3288 13.8875C27.4069 13.8464 27.4673 13.7909 27.5083 13.7193C27.5502 13.6477 27.5703 13.5656 27.5703 13.4739C27.5703 13.3943 27.5502 13.3251 27.5092 13.2663C27.4681 13.2076 27.4077 13.1593 27.3272 13.1223C27.4061 13.1223 27.4786 13.1199 27.5462 13.1159C27.613 13.1118 27.6766 13.0998 27.7362 13.0813L27.6669 12.8721C27.6122 12.8962 27.5583 12.9163 27.5059 12.934C27.4536 12.9517 27.39 12.9654 27.3168 12.9743C27.2435 12.9839 27.1477 12.9887 27.0302 12.9895C26.9207 12.9895 26.8241 13.0105 26.7396 13.0515C26.6558 13.0933 26.5898 13.1505 26.5431 13.2229C26.4964 13.2961 26.4731 13.3798 26.4731 13.4739C26.4731 13.5632 26.4924 13.6388 26.5302 13.7016C26.5681 13.7644 26.6277 13.8167 26.7082 13.8593C26.6574 13.8923 26.6196 13.9293 26.5938 13.9719C26.5681 14.0146 26.5544 14.058 26.5544 14.1031C26.5544 14.1723 26.5826 14.2326 26.6397 14.2857C26.6969 14.3388 26.7854 14.3654 26.9054 14.3654H27.1549C27.2451 14.3654 27.32 14.3823 27.3803 14.4161C27.4407 14.4499 27.4705 14.4998 27.4705 14.5657C27.4705 14.6164 27.4544 14.6583 27.4238 14.6921C27.3924 14.7259 27.3441 14.7516 27.2789 14.7693C27.2137 14.7862 27.13 14.795 27.0278 14.795C26.9255 14.795 26.8434 14.7862 26.7879 14.7693C26.7323 14.7524 26.6937 14.7259 26.6727 14.6905C26.6518 14.655 26.6405 14.6108 26.6405 14.5569H26.4385C26.4385 14.6518 26.457 14.7299 26.4932 14.7918C26.5302 14.8538 26.5914 14.9005 26.6768 14.931C26.7629 14.9616 26.8796 14.9769 27.0286 14.9769C27.2411 14.9769 27.4053 14.9399 27.5212 14.8667C27.6372 14.7934 27.6959 14.688 27.6959 14.5513C27.6959 14.4788 27.6742 14.4145 27.6315 14.3574V14.3598ZM26.7009 13.4755C26.7009 13.3822 26.7275 13.3049 26.7814 13.2438C26.8345 13.1834 26.9175 13.1529 27.0302 13.1529C27.1324 13.1529 27.2097 13.1802 27.262 13.2341C27.3135 13.2888 27.3393 13.3685 27.3393 13.4731C27.3393 13.5777 27.3135 13.6557 27.262 13.7129C27.2105 13.77 27.1348 13.799 27.0358 13.799C26.9223 13.799 26.8386 13.7684 26.7838 13.7072C26.7291 13.6461 26.7017 13.5688 26.7017 13.4739L26.7009 13.4755Z" fill="#2E3A4B"/>
<path d="M33.3836 14.2433C33.3393 14.2554 33.291 14.2618 33.2387 14.2618C33.1429 14.2618 33.0745 14.2417 33.0334 14.2007C32.9924 14.1596 32.9714 14.1009 32.9714 14.0228V13.1925H33.4279L33.4545 13.0203H32.9714V12.6768L32.7484 12.7033V13.0203H32.4272V13.1925H32.7484V14.0253C32.7484 14.1492 32.7895 14.2505 32.8708 14.3286C32.9521 14.4074 33.068 14.4469 33.2186 14.4469C33.2838 14.4469 33.3506 14.438 33.419 14.4203C33.4875 14.4026 33.5454 14.3777 33.5929 14.3463L33.5068 14.195C33.4689 14.2143 33.4279 14.2304 33.3836 14.2425V14.2433Z" fill="#2E3A4B"/>
<path d="M34.8344 14.4166H35.0574V13.402C35.0574 13.2733 35.026 13.1719 34.9632 13.0995C34.9004 13.0271 34.8006 12.9909 34.6645 12.9909C34.5824 12.9909 34.5011 13.0094 34.4214 13.0456C34.3417 13.0826 34.2741 13.1373 34.2193 13.2105V12.4365L33.9963 12.4607V14.4166H34.2193V13.3996C34.2443 13.3626 34.2757 13.3264 34.3135 13.291C34.3514 13.2556 34.3948 13.2258 34.4423 13.2025C34.4898 13.1784 34.5405 13.1663 34.5937 13.1663C34.6766 13.1663 34.7378 13.1856 34.7764 13.2242C34.815 13.2628 34.8344 13.324 34.8344 13.4077V14.4166Z" fill="#2E3A4B"/>
<path d="M36.3637 13.0751C36.2791 13.0195 36.1777 12.9922 36.0602 12.9922C35.9362 12.9922 35.8291 13.0236 35.7382 13.0863C35.6472 13.1491 35.5763 13.2352 35.5256 13.3446C35.4749 13.454 35.45 13.5795 35.45 13.7211C35.45 13.8628 35.4749 13.9915 35.5248 14.1009C35.5747 14.2103 35.6472 14.2948 35.743 14.356C35.8388 14.4171 35.9539 14.4477 36.0891 14.4477C36.1769 14.4477 36.2622 14.4332 36.3459 14.4042C36.4297 14.3753 36.5037 14.3351 36.5697 14.2836L36.4651 14.1363C36.4039 14.1782 36.3443 14.2095 36.2864 14.2305C36.2284 14.2514 36.164 14.2626 36.0916 14.2626C36.0191 14.2626 35.9539 14.2465 35.8927 14.2144C35.8315 14.1822 35.7824 14.1315 35.7454 14.0631C35.7084 13.9947 35.6874 13.9062 35.6834 13.7984H36.6229C36.6245 13.7823 36.6261 13.7638 36.6269 13.7437C36.6277 13.7228 36.6285 13.7002 36.6285 13.6769C36.6285 13.5353 36.606 13.4138 36.5601 13.3116C36.5142 13.2094 36.449 13.1306 36.3645 13.0759L36.3637 13.0751ZM35.685 13.6254C35.6947 13.4717 35.7341 13.3583 35.8034 13.2851C35.8726 13.2118 35.9595 13.1748 36.0626 13.1748C36.1656 13.1748 36.2518 13.2126 36.3145 13.2883C36.3773 13.3639 36.4103 13.4766 36.4128 13.6254H35.6842H35.685Z" fill="#2E3A4B"/>
<path d="M42.3079 14.369C42.3989 14.3167 42.4689 14.2443 42.5188 14.1501C42.5687 14.0568 42.5937 13.9482 42.5937 13.8251V12.5908H42.3618V13.8331C42.3618 13.9715 42.3296 14.0761 42.2644 14.1445C42.1992 14.2137 42.1075 14.2475 41.9875 14.2475C41.8676 14.2475 41.7774 14.2129 41.7122 14.1445C41.647 14.0753 41.6148 13.9715 41.6148 13.8331V12.5908H41.387V13.8251C41.387 13.9474 41.4111 14.0552 41.4586 14.1485C41.5061 14.2418 41.5753 14.3151 41.6647 14.3682C41.7541 14.4205 41.8619 14.447 41.9875 14.447C42.1131 14.447 42.2169 14.4213 42.3079 14.369Z" fill="#2E3A4B"/>
<path d="M44.1433 13.0205H43.8543L43.2361 13.6545L43.9228 14.4165H44.2158L43.5146 13.6489L44.1433 13.0205Z" fill="#2E3A4B"/>
<path d="M43.2105 12.4307L42.9875 12.458V14.4164H43.2105V12.4307Z" fill="#2E3A4B"/>
<path d="M45.5936 13.4921L45.6258 13.0198C45.5936 13.011 45.563 13.0037 45.5324 12.9981C45.5018 12.9925 45.4672 12.9893 45.4286 12.9893C45.3022 12.9893 45.2008 13.0206 45.1235 13.0834C45.0462 13.1462 44.981 13.2347 44.9271 13.3497L44.886 13.0198H44.4988V13.1912H44.7161V14.2452H44.4988V14.4166H45.2233V14.2452H44.9391V13.6539C44.985 13.5002 45.0462 13.3851 45.1235 13.3095C45.2008 13.233 45.2925 13.1952 45.3996 13.1952C45.4036 13.1952 45.4076 13.1952 45.4117 13.1952V13.4921H45.5944H45.5936Z" fill="#2E3A4B"/>
<path d="M46.8014 14.2514C46.8215 14.3133 46.8545 14.3592 46.8996 14.3898C46.9447 14.4203 46.997 14.4397 47.0574 14.4477L47.1121 14.2916C47.0735 14.2795 47.0445 14.2602 47.026 14.2345C47.0075 14.2087 46.9978 14.1685 46.9978 14.1122V13.4428C46.9978 13.3044 46.9543 13.1941 46.8674 13.1137C46.7805 13.0324 46.65 12.9922 46.4754 12.9922C46.4069 12.9922 46.3353 12.9986 46.2604 13.0123C46.1855 13.0252 46.105 13.0485 46.0189 13.0799L46.0777 13.248C46.1501 13.2223 46.2177 13.2038 46.2789 13.1933C46.3409 13.1821 46.3949 13.1764 46.4407 13.1764C46.5454 13.1764 46.6267 13.1974 46.6855 13.2392C46.7442 13.281 46.774 13.3526 46.774 13.4532V13.5699H46.5687C46.3562 13.5699 46.1944 13.6085 46.0817 13.6849C45.969 13.7622 45.9135 13.8724 45.9135 14.0164C45.9135 14.146 45.9537 14.2506 46.0342 14.3294C46.1147 14.4083 46.225 14.4477 46.3643 14.4477C46.4552 14.4477 46.5381 14.4308 46.6138 14.3978C46.6887 14.3648 46.7515 14.3157 46.8022 14.2514H46.8014ZM46.6186 14.2256C46.5559 14.2602 46.4898 14.2779 46.4214 14.2779C46.3313 14.2779 46.2636 14.2554 46.2194 14.2111C46.1751 14.1669 46.1525 14.1009 46.1525 14.014C46.1525 13.9271 46.1839 13.8539 46.2475 13.8008C46.3111 13.7477 46.419 13.7211 46.5736 13.7211H46.7748V14.0808C46.7338 14.1428 46.6822 14.191 46.6195 14.2256H46.6186Z" fill="#2E3A4B"/>
<path d="M48.2168 13.0205H47.576V13.1967H47.9938V14.2403H47.5631V14.4165H48.6112V14.2403H48.2168V13.0205Z" fill="#2E3A4B"/>
<path d="M47.9237 12.4113C47.894 12.441 47.8787 12.4781 47.8787 12.5215C47.8787 12.5649 47.894 12.6044 47.9237 12.6349C47.9535 12.6655 47.9922 12.6808 48.0389 12.6808C48.088 12.6808 48.1282 12.6655 48.1572 12.6349C48.187 12.6044 48.2015 12.5666 48.2015 12.5215C48.2015 12.4764 48.187 12.4418 48.1572 12.4113C48.1274 12.3815 48.088 12.3662 48.0389 12.3662C47.9898 12.3662 47.9535 12.3815 47.9237 12.4113Z" fill="#2E3A4B"/>
<path d="M49.6909 12.991C49.6104 12.991 49.5275 13.0103 49.4421 13.049C49.3568 13.0876 49.2859 13.1423 49.2296 13.2139L49.2127 13.02H49.0227V14.416H49.2457V13.399C49.2706 13.3628 49.3012 13.3266 49.3391 13.2912C49.3769 13.2557 49.4196 13.2252 49.4679 13.2018C49.5162 13.1777 49.5677 13.1656 49.6224 13.1656C49.6933 13.1656 49.7456 13.1793 49.7786 13.2059C49.8124 13.2332 49.8342 13.2759 49.8446 13.3346C49.8551 13.3933 49.8607 13.4706 49.8607 13.5663V14.416H50.0837V13.4014C50.0837 13.2726 50.0523 13.1713 49.9903 13.0989C49.9284 13.0264 49.8285 12.9902 49.6909 12.9902V12.991Z" fill="#2E3A4B"/>
<path d="M50.5875 14.2403V14.4165H51.6357V14.2403H51.2412V13.0205H50.6004V13.1967H51.0182V14.2403H50.5875Z" fill="#2E3A4B"/>
<path d="M51.1823 12.6349C51.2121 12.6044 51.2266 12.5666 51.2266 12.5215C51.2266 12.4764 51.2121 12.4418 51.1823 12.4113C51.1526 12.3815 51.1131 12.3662 51.064 12.3662C51.0149 12.3662 50.9787 12.3815 50.9489 12.4113C50.9191 12.441 50.9038 12.4781 50.9038 12.5215C50.9038 12.5649 50.9191 12.6044 50.9489 12.6349C50.9787 12.6655 51.0173 12.6808 51.064 12.6808C51.1131 12.6808 51.1534 12.6655 51.1823 12.6349Z" fill="#2E3A4B"/>
<path d="M52.8506 14.2514C52.8707 14.3133 52.9037 14.3592 52.9488 14.3898C52.9939 14.4203 53.0462 14.4397 53.1066 14.4477L53.1613 14.2916C53.1227 14.2795 53.0937 14.2602 53.0752 14.2345C53.0567 14.2087 53.047 14.1685 53.047 14.1122V13.4428C53.047 13.3044 53.0035 13.1941 52.9166 13.1137C52.8297 13.0324 52.6992 12.9922 52.5246 12.9922C52.4561 12.9922 52.3845 12.9986 52.3096 13.0123C52.2347 13.0252 52.1542 13.0485 52.0681 13.0799L52.1269 13.248C52.1993 13.2223 52.2661 13.2038 52.3281 13.1933C52.3901 13.1821 52.4441 13.1764 52.4899 13.1764C52.5946 13.1764 52.6759 13.1974 52.7347 13.2392C52.7934 13.281 52.8232 13.3526 52.8232 13.4532V13.5699H52.6179C52.4054 13.5699 52.2436 13.6085 52.1309 13.6849C52.0182 13.7622 51.9626 13.8724 51.9626 14.0164C51.9626 14.146 52.0029 14.2506 52.0834 14.3294C52.1639 14.4083 52.2742 14.4477 52.4135 14.4477C52.5044 14.4477 52.5873 14.4308 52.663 14.3978C52.7379 14.3648 52.8007 14.3157 52.8514 14.2514H52.8506ZM52.6678 14.2256C52.6051 14.2602 52.539 14.2779 52.4706 14.2779C52.3805 14.2779 52.3128 14.2554 52.2686 14.2111C52.2243 14.1669 52.2017 14.1009 52.2017 14.014C52.2017 13.9271 52.2331 13.8539 52.2967 13.8008C52.3595 13.7477 52.4682 13.7211 52.6228 13.7211H52.824V14.0808C52.783 14.1428 52.7314 14.191 52.6687 14.2256H52.6678Z" fill="#2E3A4B"/>
<path d="M54.2268 12.991C54.1463 12.991 54.0634 13.0103 53.9781 13.049C53.8928 13.0876 53.8219 13.1423 53.7648 13.2139L53.7478 13.02H53.5579V14.416H53.7809V13.399C53.8058 13.3628 53.8364 13.3266 53.8742 13.2912C53.9121 13.2557 53.9547 13.2252 54.003 13.2018C54.0513 13.1777 54.1029 13.1656 54.1576 13.1656C54.2284 13.1656 54.2808 13.1793 54.3138 13.2059C54.3476 13.2332 54.3693 13.2759 54.3798 13.3346C54.3903 13.3933 54.3959 13.4706 54.3959 13.5663V14.416H54.6189V13.4014C54.6189 13.2726 54.5875 13.1713 54.5255 13.0989C54.4635 13.0264 54.3637 12.9902 54.226 12.9902L54.2268 12.991Z" fill="#2E3A4B"/>
<path d="M59.3513 12.7879H59.9213V14.4164H60.1507V12.7879H60.7054L60.7295 12.5908H59.3513V12.7879Z" fill="#2E3A4B"/>
<path d="M61.8796 13.0751C61.7951 13.0195 61.6937 12.9922 61.5762 12.9922C61.4522 12.9922 61.3451 13.0236 61.2541 13.0863C61.1632 13.1491 61.0923 13.2352 61.0416 13.3446C60.9909 13.454 60.9659 13.5795 60.9659 13.7211C60.9659 13.8628 60.9909 13.9915 61.0408 14.1009C61.0907 14.2103 61.1632 14.2948 61.259 14.356C61.3548 14.4171 61.4699 14.4477 61.6051 14.4477C61.6929 14.4477 61.7782 14.4332 61.8619 14.4042C61.9457 14.3753 62.0197 14.3351 62.0857 14.2836L61.9811 14.1363C61.9199 14.1782 61.8603 14.2095 61.8024 14.2305C61.7444 14.2514 61.68 14.2626 61.6083 14.2626C61.5367 14.2626 61.4707 14.2465 61.4095 14.2144C61.3483 14.1822 61.2992 14.1315 61.2622 14.0631C61.2252 13.9947 61.2042 13.9062 61.2002 13.7984H62.1397C62.1413 13.7823 62.1429 13.7638 62.1437 13.7437C62.1445 13.7228 62.1453 13.7002 62.1453 13.6769C62.1453 13.5353 62.1228 13.4138 62.0769 13.3116C62.031 13.2094 61.9658 13.1306 61.8813 13.0759L61.8796 13.0751ZM61.2002 13.6254C61.2099 13.4717 61.2493 13.3583 61.3185 13.2851C61.3878 13.2118 61.4747 13.1748 61.5778 13.1748C61.6808 13.1748 61.7669 13.2126 61.8297 13.2883C61.8925 13.3639 61.9255 13.4766 61.9279 13.6254H61.1994H61.2002Z" fill="#2E3A4B"/>
<path d="M63.639 14.2795L63.5304 14.1339C63.4788 14.1693 63.4233 14.1983 63.3629 14.2216C63.3025 14.2449 63.2373 14.2562 63.1673 14.2562C63.0876 14.2562 63.0168 14.2377 62.9548 14.2015C62.8928 14.1653 62.8437 14.1074 62.8075 14.0293C62.772 13.9513 62.7535 13.8499 62.7535 13.726C62.7535 13.5409 62.7922 13.4041 62.8702 13.3132C62.9483 13.2231 63.0474 13.178 63.1673 13.178C63.2293 13.178 63.2897 13.1885 63.35 13.2094C63.4096 13.2303 63.4692 13.2617 63.5288 13.3028L63.6374 13.1539C63.5722 13.1 63.4998 13.0598 63.4217 13.0324C63.3436 13.0051 63.2599 12.9922 63.1705 12.9922C63.0304 12.9922 62.9121 13.0244 62.8147 13.0879C62.7173 13.1515 62.6424 13.2392 62.5901 13.3494C62.5386 13.4605 62.5128 13.586 62.5128 13.7252C62.5128 13.8644 62.5386 13.9979 62.5901 14.1066C62.6416 14.2152 62.7157 14.2988 62.8139 14.3584C62.9113 14.4179 63.0296 14.4477 63.1689 14.4477C63.251 14.4477 63.3347 14.4324 63.4209 14.4026C63.5062 14.3729 63.5803 14.3318 63.6415 14.2795H63.639Z" fill="#2E3A4B"/>
<path d="M64.8284 13.2242C64.867 13.2628 64.8864 13.324 64.8864 13.4077V14.4166H65.1094V13.402C65.1094 13.2733 65.078 13.1719 65.0152 13.0995C64.9524 13.0271 64.8526 12.9909 64.7165 12.9909C64.6344 12.9909 64.5531 13.0094 64.4734 13.0456C64.3937 13.0826 64.3261 13.1373 64.2713 13.2105V12.4365L64.0483 12.4607V14.4166H64.2713V13.3996C64.2963 13.3626 64.3277 13.3264 64.3655 13.291C64.4034 13.2556 64.4468 13.2258 64.4943 13.2025C64.5418 13.1784 64.5925 13.1663 64.6457 13.1663C64.7286 13.1663 64.7898 13.1856 64.8284 13.2242Z" fill="#2E3A4B"/>
<path d="M70.2977 13.5837H70.9747V13.3946H70.2977V12.7791H71.0778L71.1043 12.5908H70.0667V14.4164H71.1285V14.2322H70.2977V13.5837Z" fill="#2E3A4B"/>
<path d="M72.3402 14.2197C72.2798 14.243 72.2146 14.2543 72.1445 14.2543C72.0648 14.2543 71.994 14.2357 71.9312 14.1995C71.8684 14.1633 71.8201 14.1054 71.7839 14.0274C71.7485 13.9493 71.73 13.8479 71.73 13.724C71.73 13.539 71.7686 13.4022 71.8467 13.3113C71.9248 13.2212 72.0238 13.1761 72.1437 13.1761C72.2057 13.1761 72.2661 13.1866 72.3265 13.2075C72.3861 13.2284 72.4456 13.2598 72.5052 13.3008L72.6139 13.152C72.5487 13.098 72.4762 13.0578 72.3981 13.0305C72.32 13.0031 72.2363 12.9902 72.147 12.9902C72.0069 12.9902 71.8885 13.0224 71.7911 13.086C71.6937 13.1495 71.6189 13.2372 71.5665 13.3475C71.5142 13.4577 71.4893 13.584 71.4893 13.7232C71.4893 13.8624 71.515 13.996 71.5665 14.1046C71.6181 14.2132 71.6921 14.2969 71.7903 14.3564C71.8877 14.416 72.0061 14.4457 72.1454 14.4457C72.2275 14.4457 72.3112 14.4305 72.3973 14.4007C72.4827 14.3709 72.5567 14.3299 72.6179 14.2776L72.5092 14.132C72.4577 14.1674 72.4022 14.1963 72.3418 14.2197H72.3402Z" fill="#2E3A4B"/>
<path d="M73.8882 13.0815C73.7997 13.022 73.6894 12.9922 73.5574 12.9922C73.4254 12.9922 73.3159 13.0228 73.2265 13.0847C73.1364 13.1459 73.0687 13.232 73.0228 13.3414C72.977 13.4508 72.9536 13.5779 72.9536 13.722C72.9536 13.866 72.9762 13.9955 73.022 14.1041C73.0679 14.2136 73.1347 14.298 73.2241 14.3584C73.3135 14.4187 73.4237 14.4485 73.5542 14.4485C73.6846 14.4485 73.7949 14.4171 73.8834 14.3552C73.972 14.2932 74.0396 14.2071 74.0855 14.0969C74.1314 13.9875 74.1547 13.8611 74.1547 13.7187C74.1547 13.5763 74.1322 13.4428 74.0879 13.3341C74.0436 13.2255 73.9768 13.141 73.8874 13.0815H73.8882ZM73.8255 14.1307C73.7651 14.22 73.6741 14.2642 73.5542 14.2642C73.4342 14.2642 73.3432 14.22 73.2829 14.1307C73.2225 14.0414 73.1919 13.9046 73.1919 13.7211C73.1919 13.5377 73.2225 13.3953 73.2845 13.3068C73.3465 13.2183 73.4366 13.1732 73.5574 13.1732C73.6781 13.1732 73.7667 13.2175 73.8271 13.3068C73.8874 13.3961 73.9172 13.5329 73.9172 13.7187C73.9172 13.9046 73.8866 14.0422 73.8263 14.1307H73.8255Z" fill="#2E3A4B"/>
<path d="M75.3857 13.6866C75.3181 13.6528 75.2384 13.6246 75.1474 13.6005C75.0524 13.5747 74.9784 13.5514 74.9244 13.5297C74.8705 13.5079 74.8319 13.4838 74.8093 13.4564C74.7868 13.4299 74.7755 13.3953 74.7755 13.3551C74.7755 13.3012 74.7989 13.2569 74.8447 13.2231C74.8906 13.1893 74.9687 13.1724 75.0782 13.1724C75.1684 13.1724 75.2456 13.1845 75.3092 13.2078C75.3728 13.2312 75.4316 13.2609 75.4839 13.2971L75.5821 13.1459C75.5242 13.1024 75.4525 13.0662 75.3688 13.0364C75.2851 13.0067 75.1877 12.9922 75.075 12.9922C74.9695 12.9922 74.8769 13.0075 74.7981 13.038C74.7184 13.0686 74.6564 13.1121 74.6121 13.1692C74.567 13.2263 74.5453 13.2939 74.5453 13.3728C74.5453 13.4516 74.5646 13.5184 74.604 13.5691C74.6435 13.6198 74.699 13.66 74.7699 13.6914C74.8407 13.7228 74.9252 13.7501 75.021 13.7743C75.1201 13.7992 75.1933 13.8241 75.2416 13.8483C75.2891 13.8732 75.3213 13.9006 75.3366 13.932C75.3519 13.9625 75.36 13.9995 75.36 14.0422C75.36 14.109 75.3286 14.1629 75.2666 14.2031C75.2046 14.2433 75.1193 14.2634 75.0122 14.2634C74.9301 14.2634 74.8536 14.2498 74.7819 14.2216C74.7111 14.1934 74.6475 14.1572 74.5928 14.1122L74.4656 14.2594C74.526 14.3117 74.6 14.356 74.6894 14.393C74.7779 14.43 74.8858 14.4477 75.0122 14.4477C75.112 14.4477 75.207 14.434 75.2964 14.4059C75.3857 14.3777 75.459 14.3334 75.5161 14.2723C75.5725 14.2111 75.6015 14.1307 75.6015 14.0317C75.6015 13.9448 75.5821 13.874 75.5443 13.8193C75.5065 13.7646 75.4533 13.7203 75.3857 13.6866Z" fill="#2E3A4B"/>
<path d="M76.5859 14.2467L76.185 13.0205H75.9459L76.4338 14.4165H76.5078C76.4829 14.4881 76.4547 14.5492 76.4225 14.6007C76.3903 14.6522 76.346 14.6941 76.2905 14.7271C76.2349 14.76 76.1584 14.7842 76.0626 14.8003L76.0973 14.9781C76.2204 14.966 76.3219 14.9338 76.4016 14.8823C76.4813 14.8308 76.5465 14.7657 76.5964 14.6868C76.6463 14.608 76.6873 14.5219 76.7204 14.4269L77.2114 13.0213H76.9804L76.5851 14.2475L76.5859 14.2467Z" fill="#2E3A4B"/>
<path d="M78.4101 13.6866C78.3424 13.6528 78.2627 13.6246 78.1718 13.6005C78.0768 13.5747 78.0027 13.5514 77.9488 13.5297C77.8948 13.5079 77.8562 13.4838 77.8337 13.4564C77.8111 13.4299 77.7998 13.3953 77.7998 13.3551C77.7998 13.3012 77.8232 13.2569 77.8691 13.2231C77.915 13.1893 77.9931 13.1724 78.1025 13.1724C78.1927 13.1724 78.27 13.1845 78.3336 13.2078C78.3972 13.2312 78.4559 13.2609 78.5083 13.2971L78.6065 13.1459C78.5485 13.1024 78.4769 13.0662 78.394 13.0364C78.3102 13.0067 78.2128 12.9922 78.1001 12.9922C77.9947 12.9922 77.9021 13.0075 77.8232 13.038C77.7435 13.0686 77.6815 13.1121 77.6364 13.1692C77.5914 13.2263 77.5696 13.2939 77.5696 13.3728C77.5696 13.4516 77.5897 13.5184 77.6284 13.5691C77.6678 13.6198 77.7234 13.66 77.7942 13.6914C77.8651 13.7228 77.9488 13.7501 78.0454 13.7743C78.1444 13.7992 78.2177 13.8241 78.266 13.8483C78.3134 13.8732 78.3457 13.9006 78.361 13.932C78.3762 13.9625 78.3843 13.9995 78.3843 14.0422C78.3843 14.109 78.3529 14.1629 78.2909 14.2031C78.2289 14.2433 78.1436 14.2634 78.0373 14.2634C77.9552 14.2634 77.8779 14.2498 77.8071 14.2216C77.7363 14.1934 77.6727 14.1572 77.6179 14.1122L77.4907 14.2594C77.5511 14.3117 77.6252 14.356 77.7145 14.393C77.8031 14.43 77.9109 14.4477 78.0373 14.4477C78.1372 14.4477 78.2321 14.434 78.3215 14.4059C78.4109 14.3777 78.4841 14.3334 78.5413 14.2723C78.5976 14.2111 78.6266 14.1307 78.6266 14.0317C78.6266 13.9448 78.6073 13.874 78.5694 13.8193C78.5316 13.7646 78.4785 13.7203 78.4109 13.6866H78.4101Z" fill="#2E3A4B"/>
<path d="M79.9732 14.2433C79.9289 14.2554 79.8806 14.2618 79.8283 14.2618C79.7325 14.2618 79.6641 14.2417 79.623 14.2007C79.582 14.1596 79.561 14.1009 79.561 14.0228V13.1925H80.0175L80.0441 13.0203H79.561V12.6768L79.338 12.7033V13.0203H79.0168V13.1925H79.338V14.0253C79.338 14.1492 79.3783 14.2505 79.4604 14.3286C79.5417 14.4074 79.6576 14.4469 79.8082 14.4469C79.8734 14.4469 79.9402 14.438 80.0086 14.4203C80.0771 14.4026 80.135 14.3777 80.1825 14.3463L80.0964 14.195C80.0585 14.2143 80.0175 14.2304 79.9732 14.2425V14.2433Z" fill="#2E3A4B"/>
<path d="M81.4418 13.0751C81.3572 13.0195 81.2558 12.9922 81.1383 12.9922C81.0143 12.9922 80.9072 13.0236 80.8163 13.0863C80.7253 13.1491 80.6545 13.2352 80.6037 13.3446C80.553 13.454 80.5281 13.5795 80.5281 13.7211C80.5281 13.8628 80.553 13.9915 80.6029 14.1009C80.6529 14.2103 80.7253 14.2948 80.8211 14.356C80.9169 14.4171 81.032 14.4477 81.1673 14.4477C81.255 14.4477 81.3403 14.4332 81.4241 14.4042C81.5078 14.3753 81.5818 14.3351 81.6479 14.2836L81.5432 14.1363C81.482 14.1782 81.4225 14.2095 81.3645 14.2305C81.3065 14.2514 81.2421 14.2626 81.1697 14.2626C81.0972 14.2626 81.032 14.2465 80.9708 14.2144C80.9097 14.1822 80.8605 14.1315 80.8235 14.0631C80.7865 13.9947 80.7656 13.9062 80.7615 13.7984H81.701C81.7026 13.7823 81.7042 13.7638 81.705 13.7437C81.7058 13.7228 81.7066 13.7002 81.7066 13.6769C81.7066 13.5353 81.6841 13.4138 81.6382 13.3116C81.5923 13.2094 81.5271 13.1306 81.4426 13.0759L81.4418 13.0751ZM80.7631 13.6254C80.7728 13.4717 80.8122 13.3583 80.8815 13.2851C80.9507 13.2118 81.0377 13.1748 81.1407 13.1748C81.2437 13.1748 81.3299 13.2126 81.3927 13.2883C81.4555 13.3639 81.4885 13.4766 81.4909 13.6254H80.7623H80.7631Z" fill="#2E3A4B"/>
<path d="M83.1482 13.0212C83.1071 13.0018 83.0636 12.9922 83.0185 12.9922C82.9469 12.9922 82.8873 13.0091 82.8398 13.0429C82.7923 13.0767 82.7489 13.1209 82.711 13.1764C82.6893 13.104 82.6547 13.0549 82.6072 13.03C82.5605 13.0051 82.5106 12.9922 82.4574 12.9922C82.3874 12.9922 82.3286 13.0107 82.2819 13.0469C82.2345 13.0839 82.1918 13.129 82.154 13.1829L82.1411 13.0212H81.9656V14.4171H82.1709V13.3325C82.2095 13.273 82.2498 13.2303 82.29 13.2046C82.3303 13.1789 82.3721 13.1652 82.4156 13.1652C82.4663 13.1652 82.4969 13.1845 82.5074 13.2239C82.5178 13.2625 82.5235 13.3261 82.5235 13.4138V14.4171H82.732V13.3325C82.7706 13.273 82.8108 13.2303 82.8519 13.2046C82.893 13.1789 82.934 13.1652 82.9759 13.1652C83.0266 13.1652 83.0572 13.1845 83.0677 13.2239C83.0781 13.2625 83.0837 13.3261 83.0837 13.4138V14.4171H83.2906V13.3776C83.2906 13.2706 83.2778 13.1893 83.2512 13.1338C83.2246 13.0783 83.1908 13.0405 83.1498 13.0212H83.1482Z" fill="#2E3A4B"/>
<path d="M15.5241 8.51708C15.4202 8.54363 15.1924 8.55731 14.8398 8.55731C14.4872 8.55731 14.2441 8.53881 14.1402 8.50179C14.0364 8.468 13.9841 8.39478 13.9841 8.28053H12.6759C12.6759 8.71662 12.8289 9.03363 13.134 9.23076C13.4729 9.45202 14.0412 9.56305 14.8398 9.56305C15.6384 9.56305 16.2035 9.46248 16.5456 9.26133C16.8507 9.0803 17.0037 8.8003 17.0037 8.42134C17.0037 8.04237 16.8709 7.75433 16.606 7.59663C16.3009 7.41559 15.7124 7.30858 14.8398 7.27479C14.4775 7.26111 14.2497 7.24502 14.1555 7.2249C14.0815 7.20479 14.0444 7.16617 14.0444 7.10904C14.0444 7.0487 14.0815 7.00847 14.1555 6.98835C14.2594 6.9618 14.488 6.94812 14.8398 6.94812C15.1618 6.94812 15.3751 6.96663 15.479 7.00364C15.5861 7.03743 15.64 7.11065 15.64 7.2249H16.9482C16.9482 6.7856 16.8041 6.46859 16.515 6.27468C16.193 6.05342 15.6344 5.94238 14.8398 5.94238C14.0452 5.94238 13.4729 6.03813 13.134 6.22882C12.8289 6.40342 12.6759 6.67778 12.6759 7.05353C12.6759 7.42927 12.8071 7.71732 13.0688 7.86858C13.3739 8.04961 13.9647 8.15341 14.8398 8.18076C15.1884 8.19042 15.4186 8.21616 15.5289 8.25639C15.603 8.28295 15.64 8.33042 15.64 8.3972C15.64 8.45754 15.6014 8.49777 15.5241 8.51789V8.51708Z" fill="#2E3A4B"/>
<path d="M21.411 8.50752H18.9959V8.2058H21.3603V7.30063H18.9959V6.99891H21.411V5.99316H17.6877V9.51326H21.411V8.50752Z" fill="#2E3A4B"/>
<path d="M25.8441 8.50752H23.4283V8.2058H25.7934V7.30063H23.4283V6.99891H25.8441V5.99316H22.1201V9.51326H25.8441V8.50752Z" fill="#2E3A4B"/>
<path d="M30.2516 6.46063C29.8861 6.14845 29.346 5.99316 28.6311 5.99316H26.5533V9.51326H28.6311C29.346 9.51326 29.8853 9.35717 30.2516 9.04579C30.6034 8.74729 30.7797 8.31683 30.7797 7.75361C30.7797 7.1904 30.6034 6.75994 30.2516 6.46144V6.46063ZM28.6311 8.40694H27.8615V7.09948H28.6311C29.1914 7.09948 29.4715 7.31752 29.4715 7.75361C29.4715 8.1897 29.1914 8.40775 28.6311 8.40775V8.40694Z" fill="#2E3A4B"/>
<path d="M31.656 7.86777C31.9611 8.04881 32.552 8.1526 33.4271 8.17996C33.7757 8.18961 34.0059 8.21536 34.1162 8.25559C34.1902 8.28214 34.2273 8.32961 34.2273 8.39639C34.2273 8.45674 34.1886 8.49697 34.1113 8.51708C34.0075 8.54363 33.7797 8.55731 33.4271 8.55731C33.0745 8.55731 32.8314 8.53881 32.7275 8.50179C32.6237 8.468 32.5713 8.39478 32.5713 8.28053H31.2632C31.2632 8.71662 31.4161 9.03363 31.7212 9.23076C32.0602 9.45202 32.6285 9.56305 33.4271 9.56305C34.2257 9.56305 34.7908 9.46248 35.1329 9.26133C35.438 9.0803 35.591 8.8003 35.591 8.42133C35.591 8.04237 35.4582 7.75433 35.1933 7.59663C34.8882 7.41559 34.2997 7.30858 33.4271 7.27479C33.0648 7.26111 32.837 7.24502 32.7428 7.2249C32.6688 7.20479 32.6317 7.16617 32.6317 7.10904C32.6317 7.0487 32.6688 7.00847 32.7428 6.98835C32.8467 6.9618 33.0753 6.94812 33.4271 6.94812C33.7491 6.94812 33.9624 6.96663 34.0663 7.00364C34.1733 7.03743 34.2273 7.11065 34.2273 7.2249H35.5354C35.5354 6.7856 35.3913 6.46859 35.1023 6.27468C34.7803 6.05342 34.2216 5.94238 33.4271 5.94238C32.6325 5.94238 32.0602 6.03813 31.7212 6.22882C31.4161 6.40341 31.2632 6.67778 31.2632 7.05353C31.2632 7.42927 31.3944 7.71732 31.656 7.86858V7.86777Z" fill="#2E3A4B"/>
<path d="M42.2773 6.42031C41.8885 6.10169 41.3226 5.94238 40.582 5.94238C39.8413 5.94238 39.2754 6.10169 38.8866 6.42031C38.5074 6.73249 38.3182 7.17663 38.3182 7.75272C38.3182 8.32881 38.5074 8.77375 38.8866 9.08513C39.2754 9.40374 39.8405 9.56305 40.582 9.56305C41.3234 9.56305 41.8885 9.40374 42.2773 9.08513C42.6565 8.77294 42.8457 8.32881 42.8457 7.75272C42.8457 7.17663 42.6565 6.73169 42.2773 6.42031ZM40.582 8.45674C39.9444 8.45674 39.6256 8.2218 39.6256 7.75272C39.6256 7.28364 39.9444 7.0487 40.582 7.0487C41.2195 7.0487 41.5383 7.28364 41.5383 7.75272C41.5383 8.2218 41.2195 8.45674 40.582 8.45674Z" fill="#2E3A4B"/>
<path d="M44.8637 8.5574H47.1282V7.45109H44.8637V7.09948H47.1781V5.99316H43.5555V9.51326H44.8637V8.5574Z" fill="#2E3A4B"/>
<path d="M53.7399 9.26705C53.9347 9.10614 54.0313 8.87844 54.0313 8.58315C54.0313 8.11729 53.7979 7.82522 53.3318 7.70775C53.6972 7.57017 53.88 7.30063 53.88 6.89833C53.88 6.61029 53.7858 6.38902 53.5982 6.23454C53.4034 6.07362 53.12 5.99316 52.7481 5.99316H50.0062V9.51326H52.8689C53.248 9.51326 53.5379 9.43119 53.7391 9.26705H53.7399ZM51.3144 6.94822H52.336C52.4937 6.94822 52.5726 7.00695 52.5726 7.12442C52.5726 7.24189 52.4937 7.30063 52.336 7.30063H51.3144V6.94822ZM52.4873 8.5574H51.3152V8.20499H52.4873C52.6451 8.20499 52.724 8.26373 52.724 8.3812C52.724 8.49867 52.6451 8.5574 52.4873 8.5574Z" fill="#2E3A4B"/>
<path d="M58.092 8.50735C58.5412 8.28287 58.7666 7.89746 58.7666 7.35034C58.7666 6.91747 58.6241 6.58598 58.3391 6.35425C58.0469 6.11288 57.6242 5.99219 57.0712 5.99219H54.7415V9.51228H56.0496V8.70769H56.8699L57.4085 9.51228H58.7674L58.0928 8.50654L58.092 8.50735ZM57.1163 7.60218H56.0496V7.09931H57.1163C57.3441 7.09931 57.4584 7.18299 57.4584 7.35034C57.4584 7.5177 57.3441 7.60218 57.1163 7.60218Z" fill="#2E3A4B"/>
<path d="M62.8983 9.51326H64.2572L62.7478 5.99316H60.8358L59.3264 9.51326H60.6853L60.9421 8.90982H62.6431L62.8999 9.51326H62.8983ZM61.3333 8.00465L61.7914 6.93373L62.2494 8.00465H61.3333Z" fill="#2E3A4B"/>
<path d="M66.551 8.57269L65.4433 5.99316H64.0852L65.5946 9.51326H67.5065L69.016 5.99316H67.6579L66.551 8.57269Z" fill="#2E3A4B"/>
<path d="M73.324 6.99891V5.99316H69.6V9.51326H73.324V8.50752H70.9081V8.2058H73.2733V7.30063H70.9081V6.99891H73.324Z" fill="#2E3A4B"/>
<path d="M78.0583 7.35034C78.0583 6.91747 77.9158 6.58598 77.6308 6.35425C77.3386 6.11288 76.916 5.99219 76.3629 5.99219H74.0332V9.51228H75.3414V8.70769H76.1617L76.7002 9.51228H78.0591L77.3845 8.50654C77.8337 8.28206 78.0591 7.89666 78.0591 7.34954L78.0583 7.35034ZM76.408 7.60218H75.3414V7.09931H76.408C76.6358 7.09931 76.7501 7.18299 76.7501 7.35034C76.7501 7.5177 76.6358 7.60218 76.408 7.60218Z" fill="#2E3A4B"/>
<path d="M80.1009 9.51326H81.4091V8.37154L83.1954 5.99316H81.7359L80.7554 7.30063L79.7741 5.99316H78.3146L80.1009 8.37154V9.51326Z" fill="#2E3A4B"/>
<path d="M31.4257 4.44922C31.2284 4.48864 31.032 4.52726 30.8356 4.56669L30.8863 4.81933C31.0819 4.77991 31.2783 4.74048 31.4756 4.70186L31.4257 4.44922Z" fill="#2E3A4B"/>
<path d="M32.6549 4.47139L32.6066 4.21875C32.4094 4.25657 32.2122 4.29438 32.0157 4.333L32.0649 4.58564C32.2605 4.54702 32.4577 4.50921 32.6549 4.47139Z" fill="#2E3A4B"/>
<path d="M0.711635 18.2881L0.514404 18.4538C0.639183 18.6019 0.788917 18.7475 0.959581 18.8875L1.123 18.6888C0.965216 18.5592 0.825948 18.4241 0.711635 18.2881Z" fill="#2E3A4B"/>
<path d="M0.255997 17.2871L0 17.3129C0.00241506 17.3338 0.00483013 17.3555 0.00724519 17.3764C0.0330059 17.5639 0.0877473 17.7489 0.170665 17.9268L0.404121 17.8181C0.331669 17.6637 0.284173 17.5035 0.262437 17.3426C0.260022 17.3241 0.257607 17.3064 0.255997 17.2879V17.2871Z" fill="#2E3A4B"/>
<path d="M30.298 4.93917L30.2465 4.68652C30.0493 4.72675 29.8528 4.76698 29.6572 4.80721L29.7096 5.05905C29.9052 5.01882 30.1016 4.97859 30.298 4.93836V4.93917Z" fill="#2E3A4B"/>
<path d="M0.0429688 16.682L0.294135 16.7399C0.333581 16.5693 0.399593 16.3923 0.489756 16.2153L0.260325 16.0986C0.160502 16.295 0.0872449 16.4913 0.0429688 16.6828V16.682Z" fill="#2E3A4B"/>
<path d="M35.0179 4.03177L34.9721 3.77832C34.774 3.81372 34.5768 3.84993 34.3804 3.88614L34.4271 4.13958C34.6235 4.10338 34.8207 4.06717 35.0179 4.03177Z" fill="#2E3A4B"/>
<path d="M33.8359 4.24856L33.7884 3.99512C33.5912 4.03213 33.3939 4.06914 33.1975 4.10615L33.2458 4.35879C33.4422 4.32178 33.6387 4.28477 33.8359 4.24776V4.24856Z" fill="#2E3A4B"/>
<path d="M44.5083 2.50506L44.4721 2.25C44.2733 2.27816 44.0752 2.30632 43.8772 2.33448L43.9134 2.58954C44.1115 2.56138 44.3095 2.53322 44.5083 2.50506Z" fill="#2E3A4B"/>
<path d="M42.1299 2.85093L42.0912 2.59668C41.8924 2.62645 41.6944 2.65702 41.4963 2.68679L41.535 2.94105C41.733 2.91047 41.9302 2.8807 42.1291 2.85093H42.1299Z" fill="#2E3A4B"/>
<path d="M43.3187 2.67498L43.2817 2.41992C43.0828 2.44889 42.8848 2.47785 42.6868 2.50762L42.7246 2.76187C42.9226 2.73291 43.1207 2.70314 43.3187 2.67417V2.67498Z" fill="#2E3A4B"/>
<path d="M45.697 2.34002L45.6624 2.08496C45.4635 2.11232 45.2647 2.13967 45.0667 2.16703L45.1021 2.42209C45.3001 2.39473 45.4981 2.36737 45.697 2.34002Z" fill="#2E3A4B"/>
<path d="M40.9423 3.03355L40.9028 2.7793C40.704 2.80987 40.5059 2.84125 40.3087 2.87263L40.349 3.12688C40.5462 3.0955 40.7442 3.06412 40.9423 3.03355Z" fill="#2E3A4B"/>
<path d="M38.5274 3.16016C38.3293 3.19314 38.1313 3.22613 37.9341 3.25912L37.9767 3.51337C38.174 3.48038 38.3712 3.4474 38.5692 3.41441L38.5274 3.16016Z" fill="#2E3A4B"/>
<path d="M36.2003 3.81888L36.1552 3.56543C35.9572 3.60003 35.76 3.63543 35.5627 3.67083L35.6078 3.92428C35.8043 3.88888 36.0015 3.85428 36.1995 3.81968L36.2003 3.81888Z" fill="#2E3A4B"/>
<path d="M39.7555 3.22202L39.7144 2.96777C39.5164 2.99996 39.3183 3.03134 39.1211 3.06352L39.1622 3.31777C39.3594 3.28559 39.5574 3.2534 39.7555 3.22202Z" fill="#2E3A4B"/>
<path d="M2.87548 13.582C2.70159 13.6963 2.53254 13.8113 2.37476 13.9232L2.52449 14.1332C2.67986 14.0221 2.84569 13.9095 3.01636 13.7977L2.87548 13.582Z" fill="#2E3A4B"/>
<path d="M7.70618 11.1098L7.8068 11.3472C7.98874 11.2699 8.17309 11.1935 8.36066 11.1171L8.26325 10.8789C8.07488 10.9561 7.88972 11.0334 7.70698 11.1106L7.70618 11.1098Z" fill="#2E3A4B"/>
<path d="M7.19995 21.0806C7.39477 21.1144 7.5928 21.1482 7.79486 21.1804L7.83592 20.9261C7.63547 20.8939 7.43824 20.8609 7.24503 20.8271L7.20076 21.0806H7.19995Z" fill="#2E3A4B"/>
<path d="M7.15244 11.3477C6.96568 11.4289 6.78213 11.511 6.60181 11.5931L6.70807 11.8272C6.88759 11.7459 7.07033 11.6647 7.25548 11.5834L7.15244 11.3477Z" fill="#2E3A4B"/>
<path d="M6.01514 20.8516C6.20834 20.8927 6.40557 20.9321 6.60683 20.9715L6.65593 20.7189C6.45629 20.6802 6.26067 20.6408 6.06907 20.6006L6.01594 20.8524L6.01514 20.8516Z" fill="#2E3A4B"/>
<path d="M6.0534 11.8465C5.86824 11.9334 5.68711 12.0211 5.51001 12.108L5.62352 12.3389C5.79982 12.252 5.97934 12.1659 6.16369 12.079L6.0542 11.8457L6.0534 11.8465Z" fill="#2E3A4B"/>
<path d="M0.589478 15.5737L0.796368 15.7274C0.905046 15.581 1.03224 15.4313 1.17312 15.2817L0.985548 15.1055C0.837424 15.2624 0.704596 15.4201 0.589478 15.5745V15.5737Z" fill="#2E3A4B"/>
<path d="M8.39099 21.2718C8.58661 21.3008 8.78626 21.3282 8.98832 21.3555L9.02213 21.1005C8.82087 21.0739 8.62284 21.0457 8.42802 21.0176L8.39099 21.2726V21.2718Z" fill="#2E3A4B"/>
<path d="M8.82148 10.6532L8.91648 10.8922C9.10002 10.819 9.28679 10.7466 9.47516 10.6734L9.38178 10.4336C9.1926 10.5068 9.00503 10.58 8.82068 10.6532H8.82148Z" fill="#2E3A4B"/>
<path d="M9.58552 21.4316C9.78275 21.4558 9.98159 21.4791 10.1837 21.5016L10.2118 21.2458C10.0106 21.2233 9.81173 21.1999 9.61611 21.1758L9.58472 21.4316H9.58552Z" fill="#2E3A4B"/>
<path d="M1.45959 19.2465C1.62301 19.3495 1.80173 19.4517 1.99091 19.5491L2.10925 19.3206C1.92651 19.2264 1.75423 19.1283 1.59725 19.0293L1.45959 19.2465Z" fill="#2E3A4B"/>
<path d="M2.54133 19.8088C2.71844 19.8861 2.90762 19.9617 3.10485 20.0357L3.19501 19.7943C3.0018 19.7219 2.81665 19.6471 2.64357 19.5723L2.54053 19.8088H2.54133Z" fill="#2E3A4B"/>
<path d="M46.8918 2.17986L46.858 1.9248C46.6592 1.95136 46.4595 1.9771 46.2599 2.00446L46.2945 2.25952C46.4941 2.23296 46.693 2.20641 46.8918 2.17986Z" fill="#2E3A4B"/>
<path d="M2.04884 14.49L1.88945 14.2881C1.72361 14.4184 1.56744 14.5504 1.42334 14.6791L1.59561 14.8706C1.73569 14.7451 1.88784 14.6172 2.04965 14.49H2.04884Z" fill="#2E3A4B"/>
<path d="M3.90867 12.9521C3.72915 13.0543 3.55446 13.1581 3.38782 13.2595L3.52145 13.4792C3.68568 13.3794 3.85875 13.2772 4.03586 13.1758L3.90786 12.9521H3.90867Z" fill="#2E3A4B"/>
<path d="M4.83936 20.5756C5.02854 20.6247 5.22657 20.6738 5.42622 20.7204L5.48498 20.4694C5.28695 20.4227 5.09213 20.3744 4.90456 20.3262L4.83936 20.5756Z" fill="#2E3A4B"/>
<path d="M4.97106 12.3778C4.78751 12.4719 4.60799 12.5668 4.43652 12.6594L4.55889 12.8855C4.72875 12.7937 4.90666 12.6996 5.08859 12.6063L4.97106 12.377V12.3778Z" fill="#2E3A4B"/>
<path d="M3.67737 20.2368C3.86172 20.2971 4.05653 20.3575 4.25618 20.4154L4.32783 20.1684C4.1314 20.1113 3.93981 20.0517 3.75787 19.9922L3.67737 20.2368Z" fill="#2E3A4B"/>
<path d="M60.0354 0.808423L60.0161 0.551758C59.8165 0.567045 59.6168 0.582332 59.4164 0.598424L59.4365 0.85509C59.637 0.838998 59.8366 0.82371 60.0354 0.809228V0.808423Z" fill="#2E3A4B"/>
<path d="M75.6422 0.0158584C75.4426 0.0126401 75.2421 0.0102263 75.0401 0.0078125L75.0369 0.265282C75.2381 0.267696 75.4386 0.27011 75.6374 0.273328L75.6414 0.0158584H75.6422Z" fill="#2E3A4B"/>
<path d="M79.2521 0.129895C79.0533 0.12024 78.8529 0.110585 78.6508 0.102539L78.6395 0.360009C78.8408 0.368859 79.0412 0.37771 79.2393 0.387365L79.2521 0.129895Z" fill="#2E3A4B"/>
<path d="M78.0491 0.0785366C77.8503 0.0712953 77.6498 0.0640539 77.4477 0.0576172L77.4397 0.315087C77.641 0.321524 77.8414 0.327961 78.0402 0.336007L78.0499 0.0785366H78.0491Z" fill="#2E3A4B"/>
<path d="M74.4385 0.00241378C74.2389 0.000804593 74.0384 0 73.8372 0V0.25747C74.0376 0.25747 74.2381 0.259079 74.4369 0.259884L74.4385 0.00241378Z" fill="#2E3A4B"/>
<path d="M76.8456 0.0418264C76.646 0.0361943 76.4455 0.0321713 76.2443 0.0273438L76.2386 0.284814C76.4399 0.288837 76.6404 0.293664 76.8392 0.298492L76.8456 0.0410218V0.0418264Z" fill="#2E3A4B"/>
<path d="M73.2361 0.25747V0C73.0356 0 72.8352 0.00160919 72.6339 0.00241378L72.6355 0.259884C72.8368 0.258275 73.0372 0.25747 73.2361 0.25747Z" fill="#2E3A4B"/>
<path d="M70.8338 0.282861L70.829 0.0253906C70.6294 0.0294136 70.4289 0.0334366 70.2277 0.0374595L70.2333 0.294929C70.4346 0.290102 70.635 0.286079 70.8338 0.282861Z" fill="#2E3A4B"/>
<path d="M72.0347 0.265282L72.0323 0.0078125C71.8326 0.0102263 71.6322 0.0126401 71.4309 0.0150538L71.4349 0.272524C71.6362 0.269305 71.8366 0.266892 72.0355 0.265282H72.0347Z" fill="#2E3A4B"/>
<path d="M83.4283 0.697267C83.6296 0.718186 83.8284 0.739106 84.0249 0.761634L84.0538 0.505774C83.8566 0.483245 83.657 0.462326 83.4549 0.441406L83.4283 0.697267Z" fill="#2E3A4B"/>
<path d="M87.6306 1.03992C87.4366 1.0021 87.2385 0.965894 87.0373 0.929688L86.9922 1.18313C87.1926 1.21854 87.3883 1.25474 87.5815 1.29256L87.6306 1.03992Z" fill="#2E3A4B"/>
<path d="M80.4539 0.197511C80.255 0.185443 80.0546 0.173374 79.8525 0.162109L79.838 0.419579C80.0393 0.430844 80.2397 0.442108 80.4369 0.454981L80.4531 0.198316L80.4539 0.197511Z" fill="#2E3A4B"/>
<path d="M94.0329 4.13122C93.954 3.94777 93.8429 3.76674 93.7036 3.59375L93.5032 3.75547C93.628 3.90996 93.727 4.07087 93.7962 4.2326L94.0329 4.13122Z" fill="#2E3A4B"/>
<path d="M88.8111 1.29291C88.6211 1.24786 88.423 1.2036 88.2218 1.16016L88.1678 1.41199C88.3675 1.45464 88.5639 1.49889 88.7515 1.54314L88.8111 1.29291Z" fill="#2E3A4B"/>
<path d="M81.6546 0.280753C81.4566 0.265465 81.2561 0.250983 81.0541 0.237305L81.0364 0.49397C81.2376 0.507648 81.4373 0.522935 81.6353 0.537418L81.6546 0.280753Z" fill="#2E3A4B"/>
<path d="M69.6266 0.0527344C69.427 0.0575619 69.2265 0.0631941 69.0253 0.0696308L69.0325 0.327101C69.2338 0.321469 69.4334 0.315836 69.6331 0.310204L69.6266 0.0527344Z" fill="#2E3A4B"/>
<path d="M82.8549 0.382205C82.6568 0.363699 82.4572 0.345998 82.2551 0.329102L82.2334 0.585767C82.4347 0.602663 82.6343 0.620364 82.8307 0.63887L82.8549 0.382205Z" fill="#2E3A4B"/>
<path d="M62.4326 0.639478L62.4157 0.382812C62.2161 0.395686 62.0164 0.408559 61.8152 0.422238L61.8321 0.678903C62.0325 0.665225 62.2322 0.652351 62.4318 0.639478H62.4326Z" fill="#2E3A4B"/>
<path d="M55.223 0.966625C55.0241 0.985935 54.8245 1.00525 54.624 1.02536L54.6498 1.28122C54.8494 1.26111 55.0491 1.2418 55.2479 1.22249L55.223 0.96582V0.966625Z" fill="#2E3A4B"/>
<path d="M57.6403 1.00374L57.6177 0.74707C57.4189 0.763967 57.2192 0.781668 57.0188 0.800173L57.0421 1.05684C57.2418 1.03914 57.4414 1.02144 57.6403 1.00374Z" fill="#2E3A4B"/>
<path d="M54.0516 1.3418L54.025 1.08594C53.8262 1.10605 53.6265 1.12697 53.4269 1.14789L53.4534 1.40375C53.6531 1.38283 53.8519 1.36191 54.0508 1.3418H54.0516Z" fill="#2E3A4B"/>
<path d="M56.4433 1.11018L56.42 0.853516C56.2203 0.872021 56.0215 0.890527 55.821 0.909033L55.8452 1.1657C56.0448 1.14639 56.2445 1.12788 56.4433 1.11018Z" fill="#2E3A4B"/>
<path d="M52.8567 1.46777L52.8293 1.21191C52.6305 1.23364 52.4308 1.25456 52.2312 1.27709L52.2594 1.53295C52.459 1.51122 52.6579 1.4895 52.8567 1.46777Z" fill="#2E3A4B"/>
<path d="M51.6624 1.59863L51.6335 1.34277C51.4346 1.3653 51.235 1.38783 51.0361 1.41036L51.0651 1.66622C51.2648 1.64369 51.4636 1.62116 51.6624 1.59863Z" fill="#2E3A4B"/>
<path d="M49.244 1.6219C49.0451 1.64604 48.8463 1.67098 48.6475 1.69512L48.6789 1.95017C48.8777 1.92523 49.0765 1.90109 49.2754 1.87695L49.244 1.62109V1.6219Z" fill="#2E3A4B"/>
<path d="M50.4682 1.73535L50.4384 1.47949C50.2395 1.50283 50.0407 1.52616 49.8411 1.5503L49.8717 1.80616C50.0713 1.78202 50.2701 1.75869 50.4682 1.73535Z" fill="#2E3A4B"/>
<path d="M67.2314 0.388329L67.221 0.130859C67.0213 0.138905 66.8209 0.146951 66.6196 0.155802L66.6309 0.413272C66.8314 0.404421 67.0318 0.396375 67.2314 0.388329Z" fill="#2E3A4B"/>
<path d="M64.8318 0.499657L64.8181 0.242188C64.6184 0.252647 64.418 0.263912 64.2175 0.274371L64.232 0.531841C64.4325 0.520577 64.6329 0.510117 64.8318 0.499657Z" fill="#2E3A4B"/>
<path d="M63.6321 0.565259L63.6168 0.308594C63.4171 0.320663 63.2175 0.331927 63.0162 0.3448L63.0323 0.601466C63.2328 0.589397 63.4324 0.577328 63.6321 0.565259Z" fill="#2E3A4B"/>
<path d="M66.0311 0.440087L66.019 0.182617C65.8194 0.191468 65.6189 0.201123 65.4185 0.211583L65.4313 0.469052C65.6318 0.459397 65.8322 0.449742 66.0311 0.440087Z" fill="#2E3A4B"/>
<path d="M68.4324 0.344384L68.4235 0.0869141C68.2239 0.0933508 68.0234 0.100592 67.8221 0.107833L67.8318 0.365303C68.0331 0.358062 68.2327 0.350821 68.4324 0.344384Z" fill="#2E3A4B"/>
<path d="M61.2343 0.720533L61.2166 0.463867C61.0169 0.477545 60.8173 0.492028 60.6168 0.506511L60.6353 0.763176C60.8358 0.748693 61.0354 0.734211 61.2343 0.720533Z" fill="#2E3A4B"/>
<path d="M48.0509 1.77148C47.852 1.79643 47.6532 1.82217 47.4543 1.84792L47.4874 2.10298C47.6862 2.07723 47.885 2.05229 48.0831 2.02654L48.0509 1.77148Z" fill="#2E3A4B"/>
<path d="M9.94519 10.218L10.0362 10.4594C10.2213 10.3894 10.4089 10.3202 10.5989 10.2502L10.5103 10.0088C10.3203 10.0788 10.132 10.1488 9.946 10.2188L9.94519 10.218Z" fill="#2E3A4B"/>
<path d="M58.8372 0.902173L58.8163 0.645508C58.6166 0.6616 58.417 0.678496 58.2166 0.695393L58.2383 0.952058C58.4379 0.935162 58.6376 0.91907 58.8372 0.902173Z" fill="#2E3A4B"/>
<path d="M62.1711 17.403L62.2203 17.6556C62.4175 17.617 62.6147 17.5784 62.8103 17.5398L62.7604 17.2871C62.5648 17.3257 62.3684 17.3643 62.1711 17.403Z" fill="#2E3A4B"/>
<path d="M65.7026 16.681L65.7566 16.9328C65.953 16.891 66.1494 16.8484 66.345 16.8065L66.2903 16.5547C66.0955 16.5973 65.8999 16.6392 65.7026 16.681Z" fill="#2E3A4B"/>
<path d="M64.5264 16.9288L64.5788 17.1806C64.776 17.1396 64.9724 17.0985 65.1672 17.0575L65.1141 16.8057C64.9185 16.8467 64.7229 16.8877 64.5256 16.9288H64.5264Z" fill="#2E3A4B"/>
<path d="M63.3494 17.1679L63.4001 17.4206C63.5973 17.3811 63.7937 17.3409 63.9894 17.3015L63.9378 17.0488C63.7422 17.0891 63.5458 17.1285 63.3494 17.1679Z" fill="#2E3A4B"/>
<path d="M69.2207 15.8965L69.2795 16.1476C69.4759 16.1017 69.6707 16.0559 69.8655 16.01L69.806 15.7598C69.6119 15.8056 69.4171 15.8515 69.2207 15.8974V15.8965Z" fill="#2E3A4B"/>
<path d="M68.0504 16.1658L68.1076 16.4168C68.304 16.3726 68.4996 16.3275 68.6944 16.2833L68.6365 16.0322C68.4417 16.0773 68.2468 16.1215 68.0504 16.1658Z" fill="#2E3A4B"/>
<path d="M70.3903 15.6201L70.4506 15.8704C70.6463 15.8237 70.8411 15.7762 71.0351 15.7287L70.9739 15.4785C70.7799 15.526 70.5851 15.5727 70.3903 15.6201Z" fill="#2E3A4B"/>
<path d="M60.9907 17.6292L61.039 17.8819C61.2371 17.8441 61.4335 17.8071 61.6299 17.7692L61.5808 17.5166C61.3844 17.5544 61.188 17.5922 60.9907 17.6292Z" fill="#2E3A4B"/>
<path d="M66.8768 16.4272L66.9324 16.6783C67.1288 16.6348 67.3244 16.5914 67.52 16.5479L67.4637 16.2969C67.2689 16.3403 67.0733 16.3838 66.8768 16.4264V16.4272Z" fill="#2E3A4B"/>
<path d="M53.8882 18.8635L53.9284 19.1177C54.1265 19.0864 54.3245 19.055 54.5225 19.0228L54.4815 18.7686C54.2843 18.7999 54.0862 18.8321 53.8882 18.8635Z" fill="#2E3A4B"/>
<path d="M52.7004 19.0488L52.7399 19.303C52.9379 19.2724 53.1368 19.2419 53.334 19.2113L53.2945 18.957C53.0973 18.9876 52.8993 19.0182 52.7004 19.0488Z" fill="#2E3A4B"/>
<path d="M51.5128 19.228L51.5507 19.4822C51.7495 19.4525 51.9475 19.4227 52.1456 19.3929L52.1069 19.1387C51.9089 19.1684 51.7109 19.1982 51.5128 19.228Z" fill="#2E3A4B"/>
<path d="M59.8098 17.8506L59.8565 18.1041C60.0545 18.0679 60.251 18.0309 60.4482 17.9947L60.4007 17.7412C60.2043 17.7782 60.007 17.8144 59.8098 17.8506Z" fill="#2E3A4B"/>
<path d="M55.0739 18.6724L55.1157 18.9266C55.3138 18.8944 55.5118 18.8615 55.709 18.8285L55.6672 18.5742C55.4699 18.6072 55.2727 18.6394 55.0747 18.6716L55.0739 18.6724Z" fill="#2E3A4B"/>
<path d="M58.6276 18.065L58.6727 18.3185C58.8708 18.2831 59.068 18.2477 59.2644 18.2115L59.2185 17.958C59.0221 17.9934 58.8249 18.0288 58.6268 18.0642L58.6276 18.065Z" fill="#2E3A4B"/>
<path d="M57.4438 18.2737L57.4881 18.5272C57.6862 18.4926 57.8834 18.458 58.0806 18.4234L58.0355 18.1699C57.8391 18.2045 57.6419 18.2391 57.4438 18.2737Z" fill="#2E3A4B"/>
<path d="M56.2595 18.4767L56.3022 18.731C56.5002 18.6972 56.6983 18.6642 56.8955 18.6304L56.852 18.377C56.6548 18.4107 56.4576 18.4445 56.2595 18.4775V18.4767Z" fill="#2E3A4B"/>
<path d="M92.6265 7.08934L92.7995 7.28003C92.9573 7.13681 93.103 6.99199 93.2343 6.85038L93.0451 6.67578C92.9195 6.81176 92.7786 6.95095 92.6265 7.08934Z" fill="#2E3A4B"/>
<path d="M91.1289 1.98498C90.9478 1.91659 90.7562 1.8482 90.5574 1.78223L90.4761 2.02682C90.6709 2.09119 90.8601 2.15878 91.0372 2.22556L91.1289 1.98498Z" fill="#2E3A4B"/>
<path d="M92.2408 2.47777C92.0693 2.38766 91.8849 2.29915 91.6917 2.21387L91.5879 2.44961C91.7755 2.53249 91.955 2.61858 92.1216 2.70547L92.2416 2.47777H92.2408Z" fill="#2E3A4B"/>
<path d="M90.707 8.49015L90.8415 8.7098C91.0178 8.60199 91.19 8.49256 91.3527 8.38475L91.211 8.16992C91.0508 8.27532 90.8817 8.38314 90.707 8.49015Z" fill="#2E3A4B"/>
<path d="M50.3233 19.4015L50.3595 19.6566C50.5584 19.6284 50.7564 19.5995 50.9545 19.5705L50.9174 19.3154C50.7194 19.3444 50.5214 19.3734 50.3225 19.4015H50.3233Z" fill="#2E3A4B"/>
<path d="M91.7014 7.83168L91.852 8.04087C92.0218 7.91857 92.1844 7.79547 92.3366 7.67478L92.1756 7.47363C92.0275 7.59191 91.8681 7.7126 91.7014 7.83248V7.83168Z" fill="#2E3A4B"/>
<path d="M94.1706 4.62305L93.9154 4.65764C93.9251 4.72764 93.9299 4.80006 93.9299 4.87086C93.9299 4.98109 93.9187 5.09373 93.8961 5.20718L94.1489 5.25787C94.1747 5.12833 94.1883 4.99879 94.1883 4.87167C94.1883 4.78879 94.1827 4.70512 94.1714 4.62385L94.1706 4.62305Z" fill="#2E3A4B"/>
<path d="M84.198 11.5197L84.289 11.7603C84.479 11.6887 84.6665 11.617 84.8517 11.5454L84.7583 11.3057C84.5739 11.3773 84.3872 11.4489 84.198 11.5197Z" fill="#2E3A4B"/>
<path d="M93.4167 6.2273L93.6252 6.37857C93.7532 6.20075 93.8611 6.02294 93.9456 5.84914L93.7138 5.7373C93.6357 5.89742 93.5359 6.06236 93.4167 6.22811V6.2273Z" fill="#2E3A4B"/>
<path d="M92.6298 3.00159C92.8028 3.11343 92.9606 3.2301 93.0991 3.34676L93.2657 3.15044C93.1184 3.02573 92.9518 2.90343 92.7698 2.78516L92.6298 3.00159Z" fill="#2E3A4B"/>
<path d="M85.8464 0.737305L85.8086 0.992361C86.009 1.02213 86.2071 1.05271 86.4011 1.08408L86.4421 0.829833C86.2465 0.798454 86.0477 0.767879 85.8464 0.738109V0.737305Z" fill="#2E3A4B"/>
<path d="M86.4263 10.6299L86.5269 10.8673C86.7145 10.7876 86.8988 10.708 87.0808 10.6283L86.9769 10.3926C86.7966 10.4714 86.613 10.5511 86.4263 10.6299Z" fill="#2E3A4B"/>
<path d="M89.6705 9.08618L89.7937 9.31228C89.9748 9.21412 90.1527 9.11435 90.3209 9.01779L90.1921 8.79492C90.0247 8.89067 89.8492 8.98883 89.6697 9.08618H89.6705Z" fill="#2E3A4B"/>
<path d="M84.6208 0.832033C84.8221 0.856975 85.0201 0.881917 85.2158 0.908469L85.2504 0.653413C85.0539 0.626861 84.8551 0.601114 84.6531 0.576172L84.6217 0.832033H84.6208Z" fill="#2E3A4B"/>
<path d="M85.3158 11.0866L85.4116 11.3256C85.6008 11.2499 85.7867 11.1751 85.9703 11.0995L85.8721 10.8613C85.6893 10.9362 85.5042 11.011 85.3158 11.0866Z" fill="#2E3A4B"/>
<path d="M89.9793 1.60215C89.791 1.54664 89.5945 1.49192 89.3965 1.44043L89.3313 1.68905C89.5269 1.74054 89.7209 1.79445 89.9069 1.84916L89.9793 1.60215Z" fill="#2E3A4B"/>
<path d="M88.607 9.63575L88.7205 9.86667C88.9041 9.77575 89.0844 9.68563 89.2591 9.59472L89.1407 9.36621C88.9669 9.45633 88.7881 9.54564 88.6062 9.63575H88.607Z" fill="#2E3A4B"/>
<path d="M87.5247 10.1483L87.6309 10.3825C87.8169 10.298 87.9996 10.2135 88.1783 10.129L88.068 9.89648C87.8901 9.98016 87.709 10.0646 87.5247 10.1483Z" fill="#2E3A4B"/>
<path d="M19.1976 21.9928C19.3973 21.9952 19.5977 21.9968 19.799 21.9976L19.8006 21.7402C19.5993 21.7386 19.3989 21.737 19.2 21.7354L19.1976 21.9928Z" fill="#2E3A4B"/>
<path d="M22.803 21.7263L22.807 21.9838C23.0066 21.9805 23.2071 21.9773 23.4084 21.9733L23.4035 21.7158C23.2023 21.7198 23.0026 21.7231 22.803 21.7263Z" fill="#2E3A4B"/>
<path d="M24.0042 21.7039L24.0098 21.9614C24.2094 21.9566 24.4099 21.9517 24.6111 21.9469L24.6047 21.6895C24.4034 21.6951 24.2038 21.6999 24.0042 21.7039Z" fill="#2E3A4B"/>
<path d="M21.602 21.739L21.6036 21.9965C21.8033 21.9949 22.0037 21.9933 22.205 21.9909L22.2017 21.7334C22.0005 21.7358 21.8 21.7374 21.6012 21.739H21.602Z" fill="#2E3A4B"/>
<path d="M30.0063 21.4654L30.0208 21.7229C30.2205 21.7116 30.4209 21.7004 30.6214 21.6883L30.6061 21.4316C30.4056 21.4437 30.2052 21.455 30.0063 21.4662V21.4654Z" fill="#2E3A4B"/>
<path d="M25.2052 21.6726L25.2133 21.9301C25.4129 21.9245 25.6133 21.918 25.8146 21.9108L25.8057 21.6533C25.6045 21.6598 25.4048 21.6662 25.2052 21.6726Z" fill="#2E3A4B"/>
<path d="M28.8059 21.5286L28.8188 21.7861C29.0184 21.7764 29.2189 21.766 29.4193 21.7555L29.4057 21.498C29.2052 21.5085 29.0047 21.519 28.8059 21.5286Z" fill="#2E3A4B"/>
<path d="M27.6067 21.584L27.618 21.8415C27.8176 21.8326 28.0181 21.8238 28.2185 21.8141L28.2064 21.5566C28.006 21.5663 27.8055 21.5751 27.6067 21.5832V21.584Z" fill="#2E3A4B"/>
<path d="M26.4056 21.6327L26.4153 21.8902C26.6149 21.8829 26.8154 21.8749 27.0167 21.8668L27.0062 21.6094C26.8049 21.6174 26.6053 21.6255 26.4056 21.6327Z" fill="#2E3A4B"/>
<path d="M20.6219 21.7432H20.4014V22.0006H20.6227C20.6445 22.0006 20.6662 22.0006 20.688 22.0006C20.7926 22.0006 20.8973 22.0006 21.0027 22.0006V21.7432C20.8755 21.7432 20.7491 21.7432 20.6227 21.7432H20.6219Z" fill="#2E3A4B"/>
<path d="M11.9822 21.6758C12.1802 21.6927 12.3807 21.7088 12.5827 21.7241L12.602 21.4674C12.4008 21.4521 12.2011 21.436 12.0039 21.4199L11.9822 21.6766V21.6758Z" fill="#2E3A4B"/>
<path d="M13.1833 21.7676C13.3814 21.7813 13.5818 21.7941 13.7839 21.807L13.8 21.5503C13.5987 21.5383 13.3991 21.5246 13.2011 21.5117L13.1833 21.7684V21.7676Z" fill="#2E3A4B"/>
<path d="M11.0752 9.80369L11.1621 10.0459C11.3489 9.97909 11.5373 9.91231 11.7281 9.84553L11.6427 9.60254C11.4511 9.66932 11.2628 9.7361 11.0752 9.80369Z" fill="#2E3A4B"/>
<path d="M14.3846 21.8415C14.5834 21.8527 14.7839 21.8624 14.9859 21.872L14.998 21.6146C14.7968 21.6049 14.5963 21.5944 14.3983 21.584L14.3838 21.8415H14.3846Z" fill="#2E3A4B"/>
<path d="M17.9939 21.9743C18.1927 21.9783 18.394 21.9815 18.5952 21.9847L18.5993 21.7273C18.398 21.724 18.1976 21.7208 17.9987 21.7168L17.9939 21.9743Z" fill="#2E3A4B"/>
<path d="M10.7825 21.5643C10.9797 21.5844 11.1802 21.6037 11.3822 21.6222L11.4064 21.3655C11.2051 21.347 11.0063 21.3277 10.809 21.3076L10.7825 21.5635V21.5643Z" fill="#2E3A4B"/>
<path d="M16.7901 21.944C16.989 21.9504 17.1902 21.9561 17.3915 21.9609L17.3979 21.7034C17.1966 21.6986 16.9962 21.693 16.7974 21.6865L16.7893 21.944H16.7901Z" fill="#2E3A4B"/>
<path d="M15.5876 21.9C15.7865 21.9081 15.9869 21.9161 16.189 21.9234L16.1987 21.6659C15.9974 21.6587 15.797 21.6506 15.5989 21.6426L15.5876 21.9Z" fill="#2E3A4B"/>
<path d="M47.9438 19.7328L47.9777 19.9879L48.575 19.9074L48.5404 19.6523L47.9438 19.7328Z" fill="#2E3A4B"/>
<path d="M41.9778 20.4613L42.006 20.7172C42.2048 20.6954 42.4044 20.6729 42.6041 20.6504L42.5751 20.3945C42.3755 20.4171 42.1766 20.4388 41.9778 20.4605V20.4613Z" fill="#2E3A4B"/>
<path d="M43.1715 20.327L43.2005 20.5829C43.3993 20.5603 43.5982 20.537 43.7978 20.5137L43.768 20.2578C43.5684 20.2811 43.3703 20.3045 43.1715 20.327Z" fill="#2E3A4B"/>
<path d="M40.7834 20.5899L40.81 20.8458C41.0089 20.8249 41.2085 20.804 41.4081 20.7822L41.3808 20.5264C41.1811 20.5481 40.9823 20.569 40.7834 20.5899Z" fill="#2E3A4B"/>
<path d="M44.3652 20.1876L44.3958 20.4435C44.5947 20.4194 44.7935 20.396 44.9931 20.3711L44.9618 20.1152C44.7629 20.1394 44.5641 20.1635 44.3652 20.1876Z" fill="#2E3A4B"/>
<path d="M49.1342 19.5702L49.1696 19.8252C49.3677 19.7979 49.5665 19.7697 49.7638 19.7424L49.7275 19.4873C49.5303 19.5155 49.3323 19.5428 49.1334 19.5702H49.1342Z" fill="#2E3A4B"/>
<path d="M39.5877 20.7117L39.6135 20.9676C39.8123 20.9475 40.012 20.9273 40.2116 20.9072L40.185 20.6514C39.9854 20.6715 39.7866 20.6924 39.5869 20.7117H39.5877Z" fill="#2E3A4B"/>
<path d="M45.5577 20.0418L45.5899 20.2977C45.7888 20.2727 45.9876 20.2478 46.1865 20.2228L46.1543 19.9678C45.9554 19.9927 45.7566 20.0177 45.5577 20.0426V20.0418Z" fill="#2E3A4B"/>
<path d="M46.75 19.8905L46.783 20.1456C46.9818 20.1199 47.1807 20.0941 47.3795 20.0676L47.3457 19.8125C47.1469 19.8391 46.948 19.8648 46.75 19.8905Z" fill="#2E3A4B"/>
<path d="M31.2061 21.3943L31.2222 21.6509C31.4218 21.6389 31.6214 21.626 31.8227 21.6131L31.8058 21.3564C31.6053 21.3693 31.4057 21.3822 31.2061 21.3943Z" fill="#2E3A4B"/>
<path d="M33.6029 21.2316L33.6222 21.4882C33.8219 21.4738 34.0215 21.4585 34.222 21.4432L34.2026 21.1865C34.0022 21.2018 33.8025 21.2171 33.6037 21.2316H33.6029Z" fill="#2E3A4B"/>
<path d="M34.8013 21.1401L34.8214 21.3967C35.021 21.3806 35.2207 21.3654 35.4211 21.3485L35.4002 21.0918C35.1998 21.1079 35.0001 21.124 34.8013 21.1401Z" fill="#2E3A4B"/>
<path d="M32.4045 21.3164L32.4214 21.5731C32.6211 21.5594 32.8207 21.5457 33.022 21.5321L33.0043 21.2754C32.8038 21.2899 32.6042 21.3035 32.4053 21.3164H32.4045Z" fill="#2E3A4B"/>
<path d="M35.9992 21.0427L36.021 21.2994C36.2206 21.2825 36.4202 21.2656 36.6199 21.2479L36.5973 20.9912C36.3977 21.0089 36.1981 21.0258 35.9984 21.0427H35.9992Z" fill="#2E3A4B"/>
<path d="M38.3926 20.8286L38.4167 21.0853C38.6156 21.0668 38.8152 21.0475 39.0157 21.0281L38.9907 20.7715C38.7911 20.7908 38.5914 20.8101 38.3926 20.8286Z" fill="#2E3A4B"/>
<path d="M37.1956 20.9385L37.2189 21.1952C37.4185 21.1775 37.6182 21.159 37.8178 21.1405L37.7945 20.8838C37.5948 20.9023 37.3952 20.92 37.1964 20.9377L37.1956 20.9385Z" fill="#2E3A4B"/>
<path d="M37.3408 3.36035C37.1428 3.39414 36.9447 3.42794 36.7483 3.46253L36.7926 3.71598C36.9898 3.68219 37.187 3.64759 37.3851 3.6138L37.3416 3.36035H37.3408Z" fill="#2E3A4B"/>
<path d="M29.121 5.18331L29.0695 4.93066C28.8723 4.97089 28.6758 5.01112 28.4802 5.05135L28.5326 5.30319C28.7282 5.26296 28.9246 5.22273 29.121 5.1825V5.18331Z" fill="#2E3A4B"/>
</g>
<defs>
<clipPath id="clip0_19533_115008">
<rect width="94.1875" height="22" fill="white"/>
</clipPath>
</defs>
</svg>
