<svg width="91" height="36" viewBox="0 0 91 36" fill="none" xmlns="http://www.w3.org/2000/svg">
<g opacity="0.7">
<path d="M25.0777 8H21.6431C21.4796 8 21.3487 8.09712 21.316 8.22662L13.2366 30.9532L5.12444 8.22662C5.05902 8.09712 4.92818 8 4.79734 8H1.36276C1.23192 8 1.13379 8.06475 1.06837 8.16187C1.00295 8.25899 0.970239 8.38849 1.03566 8.48561L10.26 34.1583C10.3254 34.2878 10.4562 34.3849 10.5871 34.3849H15.8207C15.9843 34.3849 16.1151 34.2878 16.1478 34.1583L25.3721 8.48561C25.4048 8.38849 25.4048 8.25899 25.3394 8.16187C25.274 8.03237 25.1758 8 25.0777 8Z" fill="#2E3A4B"/>
<path d="M36.765 8.32031H29.0454C28.8491 8.32031 28.6855 8.48218 28.6855 8.67643V34.3491C28.6855 34.5433 28.8491 34.7052 29.0454 34.7052H36.7977C45.9566 34.7052 52.1061 29.3959 52.1061 21.4966C52.0734 13.5973 45.9239 8.32031 36.765 8.32031ZM36.765 31.0793H32.7416V11.9138H36.765C43.6014 11.9138 48.05 15.6692 48.05 21.4642C48.05 27.2915 43.6341 31.0793 36.765 31.0793Z" fill="#2E3A4B"/>
<path d="M66.8275 19.4584C62.6079 18.8109 59.8275 18.1634 59.8275 15.2173C59.8275 12.5627 62.0518 11.0087 65.9443 11.0087C70.1967 11.0087 72.6172 12.9835 72.6172 16.4476C72.6172 16.6418 72.7808 16.8037 72.977 16.8037H76.2154C76.3135 16.8037 76.4116 16.7713 76.477 16.7066C76.5425 16.6418 76.5752 16.5447 76.5752 16.4476C76.5425 10.8468 72.4537 7.38281 65.9443 7.38281C59.664 7.38281 55.7714 10.4584 55.7714 15.3792C55.7714 21.1742 61.0051 22.4691 65.9116 23.2137C69.7714 23.8289 73.1079 24.3468 73.1079 27.5843C73.1079 30.3037 70.7527 31.9224 66.7621 31.9224C62.1172 31.9224 59.435 29.7533 59.4023 25.9332C59.4023 25.7389 59.2387 25.5771 59.0425 25.5771H55.7387C55.5425 25.5771 55.3789 25.7389 55.3789 25.9332C55.3789 31.8576 59.7294 35.5483 66.7294 35.5483C73.1733 35.5483 77.1639 32.408 77.1639 27.3576C77.1639 21.1418 71.178 20.1706 66.8275 19.4584Z" fill="#2E3A4B"/>
<path d="M90.0503 5.43986H86.6484C86.4849 5.43986 86.2886 5.37511 86.1905 5.24562L85.569 4.63051C85.4381 4.50101 85.3727 4.33914 85.3727 4.17727V0.77799C85.3727 0.583746 85.2092 0.421875 85.0129 0.421875H83.3774C83.1811 0.421875 83.0176 0.583746 83.0176 0.77799V4.1449C83.0176 4.92188 83.3447 5.69885 83.9008 6.24921L84.5222 6.86432C85.0783 7.41468 85.8307 7.73842 86.6484 7.73842H90.0503C90.2465 7.73842 90.4101 7.57655 90.4101 7.38231V5.7636C90.4101 5.60173 90.2465 5.43986 90.0503 5.43986Z" fill="#2E3A4B"/>
<path d="M83.3136 6.83113C82.7576 6.28077 82.0052 5.95703 81.1875 5.95703H77.7856C77.5893 5.95703 77.4258 6.1189 77.4258 6.31315V7.93185C77.4258 8.1261 77.5893 8.28797 77.7856 8.28797H81.1875C81.351 8.28797 81.5473 8.35272 81.6454 8.48221L82.2669 9.09732C82.3977 9.22682 82.4632 9.38869 82.4632 9.55056V12.9498C82.4632 13.1441 82.6267 13.306 82.823 13.306H84.4585C84.6548 13.306 84.8183 13.1441 84.8183 12.9498V9.55056C84.8183 8.7412 84.4912 7.9966 83.9351 7.44624L83.3136 6.83113Z" fill="#2E3A4B"/>
</g>
</svg>
