<svg width="230" height="44" viewBox="0 0 230 44" fill="none" xmlns="http://www.w3.org/2000/svg">
<path fill-rule="evenodd" clip-rule="evenodd" d="M11.2669 5.71978V35.4627C11.2669 38.6211 8.74422 41.1824 5.63344 41.1824C2.52265 41.1824 0 38.6211 0 35.4627V5.71978C0 2.56131 2.52265 0 5.63344 0C8.74422 0 11.2669 2.56131 11.2669 5.71978Z" fill="#2E3A4B"/>
<path fill-rule="evenodd" clip-rule="evenodd" d="M26.0364 22.9252V29.8683C26.0364 32.8863 23.5142 35.3325 20.4024 35.3325C17.2918 35.3325 14.7695 32.8863 14.7695 29.8683V22.9252C14.7695 19.9072 17.2918 17.4609 20.4024 17.4609C23.5142 17.4609 26.0364 19.9072 26.0364 22.9252Z" fill="#2E3A4B"/>
<path fill-rule="evenodd" clip-rule="evenodd" d="M29.5273 5.72091V35.4636C29.5273 38.6222 32.05 41.1824 35.1608 41.1824C38.2716 41.1824 40.7942 38.6222 40.7942 35.4636V5.72091C40.7942 2.56246 38.2716 0 35.1608 0C32.05 0 29.5273 2.56246 29.5273 5.72091Z" fill="url(#paint0_linear_18525_199872)"/>
<path fill-rule="evenodd" clip-rule="evenodd" d="M71.4934 7.15188L62.0392 21.9693L52.5499 7.15028C52.3356 6.81568 51.9657 6.61328 51.5684 6.61328H48.9565C48.3128 6.61328 47.791 7.1351 47.791 7.7788V33.3512C47.791 33.9949 48.3128 34.5167 48.9565 34.5167H52.775C53.4187 34.5167 53.9405 33.9949 53.9405 33.3512V19.0355L59.6282 27.9696C59.8422 28.3057 60.213 28.5092 60.6114 28.5092H63.4336C63.831 28.5092 64.201 28.3067 64.4152 27.9721L70.1026 19.0878V33.3512C70.1026 33.9949 70.6244 34.5167 71.2681 34.5167H75.126C75.7697 34.5167 76.2915 33.9949 76.2915 33.3512V7.7788C76.2915 7.1351 75.7697 6.61328 75.126 6.61328H72.476C72.078 6.61328 71.7075 6.81637 71.4934 7.15188ZM94.1054 22.7467L85.7393 22.7704C85.8207 22.4932 85.9204 22.2323 86.0382 21.9878C86.4193 21.1974 86.958 20.5848 87.6544 20.15C88.3508 19.7153 89.1721 19.4979 90.1182 19.4979C91.0117 19.4979 91.7672 19.6889 92.3848 20.071C93.0024 20.453 93.4688 21.0063 93.7842 21.7309C93.9169 22.0357 94.0239 22.3743 94.1054 22.7467ZM86.0776 27.778C85.9422 27.5107 85.8292 27.2253 85.7388 26.9216L98.4835 26.8911C99.0586 26.8897 99.5468 26.469 99.633 25.9004C99.6535 25.7657 99.6683 25.6538 99.6775 25.5647C99.7169 25.1826 99.7366 24.8204 99.7366 24.4778C99.7366 22.607 99.3227 20.9471 98.4949 19.4979C97.6671 18.0487 96.5305 16.9157 95.0851 16.0989C93.6397 15.2821 91.9709 14.8737 90.0787 14.8737C88.134 14.8737 86.3864 15.3084 84.8359 16.1779C83.2854 17.0474 82.0568 18.2397 81.1502 19.7548C80.2435 21.2698 79.7902 22.9891 79.7902 24.9126C79.7902 26.8361 80.2501 28.5619 81.1699 30.0901C82.0897 31.6184 83.3577 32.8106 84.9739 33.667C86.5901 34.5233 88.4362 34.9515 90.5124 34.9515C92.1154 34.9515 93.5871 34.6748 94.9274 34.1215C95.6093 33.84 96.4366 33.2899 97.4094 32.4712C97.4345 32.4501 97.4587 32.4279 97.4819 32.4047C97.9377 31.9501 97.9387 31.2122 97.4841 30.7564L95.8136 29.0815C95.3925 28.6593 94.7207 28.623 94.2566 28.9974C93.7785 29.383 93.3714 29.6484 93.0352 29.7937C92.2731 30.1231 91.419 30.2877 90.4729 30.2877C89.448 30.2877 88.5611 30.0704 87.8121 29.6356C87.0631 29.2008 86.485 28.5817 86.0776 27.778ZM102.188 20.4464H105.358V33.3512C105.358 33.9949 105.88 34.5167 106.524 34.5167H110.224C110.868 34.5167 111.389 33.9949 111.389 33.3512V20.4464H114.56C115.204 20.4464 115.726 19.9246 115.726 19.2809V16.4739C115.726 15.8302 115.204 15.3084 114.56 15.3084H111.389V8.52974C111.389 7.88604 110.868 7.36422 110.224 7.36422H106.524C105.88 7.36422 105.358 7.88604 105.358 8.52974V15.3084H102.188C101.544 15.3084 101.022 15.8302 101.022 16.4739V19.2809C101.022 19.9246 101.544 20.4464 102.188 20.4464ZM131.442 16.4739V16.8928C130.925 16.4014 130.327 15.9918 129.648 15.6641C128.61 15.1635 127.447 14.9132 126.159 14.9132C124.399 14.9132 122.828 15.3479 121.449 16.2174C120.069 17.087 118.978 18.2726 118.177 19.7745C117.375 21.2764 116.975 22.9891 116.975 24.9126C116.975 26.8361 117.375 28.5487 118.177 30.0506C118.978 31.5525 120.069 32.7382 121.449 33.6077C122.828 34.4772 124.399 34.912 126.159 34.912C127.447 34.912 128.616 34.6617 129.668 34.161C130.343 33.8394 130.934 33.4389 131.442 32.9595V33.3512C131.442 33.9949 131.963 34.5167 132.607 34.5167H136.189C136.833 34.5167 137.355 33.9949 137.355 33.3512V16.4739C137.355 15.8302 136.833 15.3084 136.189 15.3084H132.607C131.963 15.3084 131.442 15.8302 131.442 16.4739ZM130.496 28.1732C129.707 29.0296 128.669 29.4578 127.381 29.4578C126.567 29.4578 125.831 29.2601 125.174 28.8649C124.517 28.4697 124.004 27.9295 123.636 27.2444C123.269 26.5594 123.085 25.7821 123.085 24.9126C123.085 24.0167 123.275 23.2262 123.656 22.5412C124.037 21.8561 124.55 21.3225 125.194 20.9405C125.837 20.5584 126.58 20.3674 127.421 20.3674C128.262 20.3674 129.004 20.5584 129.648 20.9405C130.292 21.3225 130.791 21.8561 131.146 22.5412C131.501 23.2262 131.678 24.0167 131.678 24.9126C131.678 26.23 131.284 27.3169 130.496 28.1732ZM169.924 33.3512V23.5688C169.924 22.9101 170.069 22.3238 170.358 21.81C170.647 21.2962 171.041 20.901 171.541 20.6243C172.04 20.3476 172.618 20.2093 173.275 20.2093C174.221 20.2093 175.003 20.5189 175.62 21.1381C176.238 21.7573 176.547 22.5675 176.547 23.5688V33.3512C176.547 33.9949 177.069 34.5167 177.712 34.5167H181.413C182.056 34.5167 182.578 33.9949 182.578 33.3512V22.225C182.578 20.9075 182.263 19.6955 181.632 18.5888C181.001 17.4822 180.141 16.5929 179.05 15.921C177.959 15.2491 176.705 14.9132 175.285 14.9132C173.814 14.9132 172.493 15.2228 171.324 15.842C170.807 16.1154 170.341 16.439 169.924 16.8126V16.4739C169.924 15.8302 169.403 15.3084 168.759 15.3084H165.059C164.415 15.3084 163.893 15.8302 163.893 16.4739V33.3512C163.893 33.9949 164.415 34.5167 165.059 34.5167H168.759C169.403 34.5167 169.924 33.9949 169.924 33.3512ZM198.756 33.1729C199.263 32.9313 199.723 32.6452 200.135 32.3146V33.5287C200.135 34.8725 199.708 35.9132 198.854 36.651C198 37.3888 196.824 37.7576 195.326 37.7576C194.117 37.7576 193.086 37.5469 192.232 37.1253C191.829 36.9267 191.328 36.5593 190.726 36.0232C190.265 35.6116 189.562 35.6321 189.125 36.07L187.03 38.1712L187.024 38.1772C186.573 38.6362 186.579 39.3741 187.038 39.8254C188.147 40.9159 189.129 41.6561 189.985 42.0459C191.575 42.7705 193.421 43.1328 195.523 43.1328C197.573 43.1328 199.4 42.7244 201.003 41.9076C202.606 41.0908 203.867 39.9578 204.787 38.5086C205.707 37.0594 206.167 35.3467 206.167 33.3706V16.4739C206.167 15.8302 205.645 15.3084 205.001 15.3084H201.419C200.775 15.3084 200.254 15.8302 200.254 16.4739V16.5808C199.816 16.2136 199.323 15.9015 198.775 15.6444C197.737 15.1569 196.561 14.9132 195.247 14.9132C193.487 14.9132 191.923 15.3282 190.556 16.1582C189.19 16.9882 188.112 18.1211 187.324 19.5572C186.536 20.9932 186.141 22.607 186.141 24.3988C186.141 26.1642 186.536 27.7714 187.324 29.2206C188.112 30.6698 189.19 31.816 190.556 32.6591C191.923 33.5023 193.487 33.9239 195.247 33.9239C196.535 33.9239 197.704 33.6736 198.756 33.1729ZM198.578 27.9954C197.961 28.3643 197.231 28.5487 196.391 28.5487C195.55 28.5487 194.82 28.3643 194.203 27.9954C193.585 27.6265 193.106 27.1193 192.764 26.4737C192.422 25.8282 192.251 25.1365 192.251 24.3988C192.251 23.6083 192.422 22.8969 192.764 22.2645C193.106 21.6321 193.592 21.1315 194.222 20.7626C194.853 20.3937 195.576 20.2093 196.391 20.2093C197.231 20.2093 197.961 20.3937 198.578 20.7626C199.196 21.1315 199.669 21.6321 199.997 22.2645C200.326 22.8969 200.49 23.6083 200.49 24.3988C200.49 25.1892 200.326 25.8941 199.997 26.5133C199.669 27.1325 199.196 27.6265 198.578 27.9954ZM224.087 16.4739V16.8928C223.571 16.4014 222.973 15.9918 222.294 15.6641C221.256 15.1635 220.093 14.9132 218.805 14.9132C217.044 14.9132 215.474 15.3479 214.094 16.2174C212.715 17.087 211.624 18.2726 210.822 19.7745C210.021 21.2764 209.62 22.9891 209.62 24.9126C209.62 26.8361 210.021 28.5487 210.822 30.0506C211.624 31.5525 212.715 32.7382 214.094 33.6077C215.474 34.4772 217.044 34.912 218.805 34.912C220.093 34.912 221.262 34.6617 222.313 34.161C222.989 33.8394 223.58 33.4389 224.087 32.9595V33.3512C224.087 33.9949 224.609 34.5167 225.253 34.5167H228.835C229.478 34.5167 230 33.9949 230 33.3512V16.4739C230 15.8302 229.478 15.3084 228.835 15.3084H225.253C224.609 15.3084 224.087 15.8302 224.087 16.4739ZM223.141 28.1732C222.353 29.0296 221.315 29.4578 220.027 29.4578C219.212 29.4578 218.476 29.2601 217.819 28.8649C217.162 28.4697 216.65 27.9295 216.282 27.2444C215.914 26.5594 215.73 25.7821 215.73 24.9126C215.73 24.0167 215.921 23.2262 216.302 22.5412C216.683 21.8561 217.195 21.3225 217.839 20.9405C218.483 20.5584 219.225 20.3674 220.066 20.3674C220.907 20.3674 221.65 20.5584 222.294 20.9405C222.937 21.3225 223.437 21.8561 223.792 22.5412C224.146 23.2262 224.324 24.0167 224.324 24.9126C224.324 26.23 223.93 27.3169 223.141 28.1732ZM154.966 22.631L146.6 22.6547C146.681 22.3775 146.781 22.1166 146.899 21.8721C147.28 21.0817 147.818 20.469 148.515 20.0343C149.211 19.5995 150.032 19.3821 150.979 19.3821C151.872 19.3821 152.628 19.5732 153.245 19.9552C153.863 20.3373 154.329 20.8906 154.645 21.6152C154.777 21.92 154.884 22.2586 154.966 22.631ZM146.938 27.6624C146.802 27.3951 146.69 27.1097 146.599 26.806L159.344 26.7755C159.919 26.7741 160.407 26.3534 160.494 25.7847C160.514 25.65 160.529 25.5381 160.538 25.4491C160.577 25.067 160.597 24.7047 160.597 24.3622C160.597 22.4913 160.183 20.8313 159.355 19.3821C158.528 17.9329 157.391 16.7999 155.946 15.9831C154.5 15.1662 152.831 14.7578 150.939 14.7578C148.994 14.7578 147.247 15.1926 145.696 16.0621C144.146 16.9316 142.917 18.1239 142.01 19.639C141.104 21.1541 140.65 22.8734 140.65 24.7969C140.65 26.7204 141.11 28.4463 142.03 29.9746C142.95 31.5028 144.218 32.6951 145.834 33.5515C147.45 34.4079 149.297 34.836 151.373 34.836C152.976 34.836 154.448 34.5594 155.788 34.006C156.47 33.7245 157.297 33.1744 158.27 32.3557C158.28 32.3473 158.29 32.3387 158.299 32.33C158.314 32.3167 158.328 32.3032 158.342 32.2892C158.798 31.8346 158.799 31.0966 158.345 30.6409L156.674 28.9659C156.253 28.5437 155.581 28.5074 155.117 28.8818C154.639 29.2674 154.232 29.5328 153.896 29.6781C153.134 30.0075 152.279 30.1722 151.333 30.1722C150.308 30.1722 149.421 29.9548 148.672 29.52C147.923 29.0853 147.345 28.4661 146.938 27.6624Z" fill="#2E3A4B"/>
<defs>
<linearGradient id="paint0_linear_18525_199872" x1="35.1608" y1="0.000709027" x2="35.1608" y2="41.1831" gradientUnits="userSpaceOnUse">
<stop stop-color="#94EDFF"/>
<stop offset="1" stop-color="#005DFF"/>
</linearGradient>
</defs>
</svg>
