<svg width="143" height="143" viewBox="0 0 143 143" fill="none" xmlns="http://www.w3.org/2000/svg">
<circle cx="71.5" cy="71.5" r="71.5" fill="#1D2734"/>
<path d="M122.319 38.432C122.319 38.432 118.594 37 113.553 37C104.418 37 99.6129 42.0102 97.2787 45.2347C95.0709 48.2841 93.68 51.4605 92.6342 55.8526C91.6328 60.0523 91.4688 65.3029 91.2945 69.4923C90.8605 80.0106 91.8413 98.5198 87.3267 98.5198C85.0095 98.5198 83.4238 94.9381 82.8872 93.5611C82.6685 93.0014 80.905 87.8504 78.7212 78.1151C77.3644 72.0506 74.1347 57.4391 73.1983 54.1527C72.7677 52.6383 71.6707 48.624 69.5449 45.142C66.7561 40.5782 62.0057 38.2774 57.8806 38.2774C53.7556 38.2774 50.174 41.0521 48.8172 42.3948C44.6785 46.4915 43.3251 52.4701 42.8911 54.8464C42.4194 57.4116 41.8419 62.7686 41.8419 62.7686C41.0114 69.1558 39.6238 80.2235 39.3094 82.5449C37.6895 94.4814 34.3061 96.4079 31.0491 97.4724C30.2836 97.7231 28.8174 97.8364 28.3116 97.8364C26.1893 97.8364 24.5112 97.2183 24.5112 97.2183C24.2822 97.1256 23.855 96.9573 23.3561 96.9573C23.0656 96.9573 22.7888 97.0122 22.5324 97.1256C21.8455 97.4278 21.5345 97.8398 21.4286 98.0321C20.1025 100.082 20 102.28 20 102.905C20 104.412 20.9159 104.917 21.1893 105.034C21.2713 105.068 23.151 105.875 25.9261 106.305C34.2548 107.603 39.4666 102.675 40.8781 101.294C42.2041 99.9929 44.4973 97.3144 46.0045 92.081C46.9683 88.7432 47.5287 85.4672 47.9559 81.8306C48.2772 79.0869 50.3722 60.9142 50.7994 58.3697C51.2505 55.6912 51.934 52.9131 53.2532 50.3685C54.1828 48.5725 55.7754 46.6495 58.1301 46.6495C59.0358 46.6495 59.8663 46.9242 60.5976 47.4736C62.8533 49.1529 64.2032 53.1191 64.6475 54.8327C65.249 57.1369 69.5552 75.3335 70.2387 78.5031C74.8251 99.8384 77.9146 103.537 82.19 105.676C84.637 106.899 89.4422 108.262 93.803 104.804C98.6936 100.93 98.8235 93.3619 99.155 88.7707C99.4967 84.0387 99.5104 80.251 99.5343 78.5512C99.7667 61.656 99.9068 56.4535 104.394 49.9358C106.81 46.4297 111.766 43.9504 119.978 46.5053C120.18 46.5705 120.621 46.677 120.987 46.677C122.579 46.677 123.242 45.0527 123.656 43.4353C123.936 42.3433 124.708 39.2012 122.316 38.4217" fill="#FF1910"/>
</svg>
