<svg width="64" height="56" viewBox="0 0 64 56" fill="none" xmlns="http://www.w3.org/2000/svg">
<g id="AVO logo">
<g id="Clip path group">
<mask id="mask0_13450_203075" style="mask-type:luminance" maskUnits="userSpaceOnUse" x="0" y="8" width="64" height="40">
<g id="clip0_3347_54450">
<path id="Vector" d="M64 8H0V48H64V8Z" fill="white"/>
</g>
</mask>
<g mask="url(#mask0_13450_203075)">
<g id="Group">
<path id="Vector_2" d="M2.8293 37.8139C2.8293 38.5213 2.25668 39.0939 1.54936 39.0939C0.842056 39.0939 0.269455 38.5213 0.269455 37.8139C0.269455 37.1066 0.842056 36.534 1.54936 36.534C2.25668 36.534 2.8293 37.1066 2.8293 37.8139ZM1.54936 36.2646C0.707321 36.2646 0 36.9382 0 37.8139C0 38.656 0.673615 39.3633 1.54936 39.3633C2.39142 39.3633 3.09874 38.6897 3.09874 37.8139C3.09874 36.9719 2.42511 36.2646 1.54936 36.2646Z" fill="#2E3A4B" fill-opacity="0.7"/>
<path id="Vector_3" d="M1.31482 37.1743C1.31482 37.1069 1.34848 37.0732 1.44953 37.0732C1.55057 37.0732 1.8537 37.0732 1.8537 37.41C1.8537 37.7469 1.51688 37.7469 1.31482 37.7806V37.1743ZM2.35895 38.5552C2.25791 38.5552 2.22425 38.5216 2.15686 38.4542L1.68531 37.8479C1.78635 37.8142 2.08948 37.7806 2.08948 37.4437C2.08948 37.0732 1.719 37.0059 1.51691 37.0059H0.876953V37.0395C1.04535 37.0732 1.07904 37.0732 1.07904 37.2753V38.3532C1.07904 38.5216 1.07904 38.5889 0.876953 38.5889V38.6563H1.51691V38.5889C1.34848 38.5889 1.31482 38.5216 1.31482 38.3868V37.9153H1.44953L1.98847 38.6563H2.35895V38.5552Z" fill="#2E3A4B" fill-opacity="0.7"/>
<path id="Vector_4" d="M26.0188 35.6507C25.8868 33.7687 25.0283 15.6748 25.0283 15.6748C25.0283 15.6748 25.1604 14.2881 23.9717 14.2881C22.7831 14.2881 17.9294 14.2881 17.9294 14.2881C17.9294 14.2881 16.9719 14.4202 17.5002 15.1466C17.9954 15.906 17.5332 16.3022 17.203 16.8305C16.8398 17.3918 0.429871 46.6127 0.429871 46.6127C0.429871 46.6127 -0.857831 47.9995 1.02419 47.9995C2.90622 47.9995 5.67973 47.9995 5.67973 47.9995C5.67973 47.9995 6.96743 47.8674 5.91086 46.9099C5.91086 46.9099 5.71275 46.7778 6.175 45.9193C6.63726 45.0609 12.9767 32.2499 12.9767 32.2499H20.6699V38.0611H26.9763C26.9433 38.0611 26.1509 37.5328 26.0188 35.6507ZM15.255 28.1556L20.1086 19.3729L20.2737 28.1556H15.255Z" fill="#2E3A4B" fill-opacity="0.7"/>
<path id="Vector_5" d="M49.6926 8.01516H44.1456C45.1361 8.54345 44.3107 9.89719 44.3107 9.89719L32.3251 30.0052C32.3251 30.0052 31.6978 16.7649 31.5327 15.4772C31.4006 14.1895 30.311 14.2886 30.311 14.2886H25.5234C26.4149 14.6848 26.3489 16.2697 26.3489 16.2697C26.3489 16.2697 27.1743 33.7032 27.2734 35.9814C27.3724 38.2597 28.429 37.9625 28.429 37.9625C28.429 37.9625 32.6883 37.9625 33.3487 37.9625C34.009 37.9625 34.2732 37.3021 34.2732 37.3021C34.2732 37.3021 49.4945 9.40192 49.9237 8.60948C50.386 7.85007 49.6926 8.01516 49.6926 8.01516Z" fill="#2E3A4B" fill-opacity="0.7"/>
<path id="Vector_6" d="M62.9994 18.5148C61.6127 13.6941 55.2732 14.1894 55.2732 14.1894C53.2261 14.1894 49.6271 13.7602 47.0517 16.4346C42.4292 20.76 41.6038 28.7834 41.6038 28.7834C40.4481 36.1134 43.6839 39.184 50.1884 39.151C56.693 39.118 58.476 36.1134 59.6646 34.4294C60.8202 32.7455 64.3862 23.3354 62.9994 18.5148ZM54.5468 31.9531C53.9525 33.0097 52.995 34.9247 50.3205 34.6606C47.646 34.3964 46.5234 32.2172 47.547 27.3636C47.547 27.3636 48.4715 22.0477 50.6837 19.3732C51.9384 17.7223 53.3912 18.1516 54.2496 18.2506C54.2496 18.2506 56.8911 18.2176 57.1222 21.4864C57.3203 24.7882 55.1742 30.8965 54.5468 31.9531Z" fill="#2E3A4B" fill-opacity="0.7"/>
</g>
</g>
</g>
</g>
</svg>
