<svg width="46" height="56" viewBox="0 0 46 56" fill="none" xmlns="http://www.w3.org/2000/svg">
<path d="M16.3489 24.5271L14.7588 22.2549C14.4795 21.8902 14.1008 21.5455 13.6432 21.8658C12.9184 22.373 13.5661 23.1029 13.5971 23.1492L15.1513 25.3666L13.6948 26.3862L11.6831 23.5142C11.4415 23.1678 11.2735 22.9437 10.9445 22.5564L12.3856 21.5471L12.8586 22.1743L12.8741 22.1645C12.773 21.4431 13.1432 20.8863 13.7206 20.4801C14.1884 20.1528 14.8893 20.0293 15.3793 20.3859C15.3176 19.7415 15.6689 19.1058 16.2378 18.6843C17.0655 18.1051 18.0559 18.2146 18.6522 19.0681L20.46 21.6487L19.0035 22.6682L17.4167 20.4029C17.1374 20.0381 16.7605 19.6952 16.3046 20.0138C15.5781 20.5227 16.2241 21.2493 16.2533 21.2904L17.8057 23.5078L16.3489 24.5271ZM11.8097 27.7056L11.4876 27.2943C11.4242 27.9128 11.1449 28.3378 10.6514 28.684C9.82376 29.2631 8.83333 29.1536 8.23873 28.307L6.42751 25.7194L7.88403 24.6999L9.4742 26.9704C9.75349 27.3371 10.1322 27.6816 10.5897 27.361C11.3145 26.8521 10.6686 26.1237 10.6359 26.0774L9.08167 23.8602L10.5382 22.8406L12.5499 25.7125C12.7915 26.0588 12.9594 26.2831 13.2884 26.6704L11.8097 27.7056ZM6.7582 31.2339C5.23829 32.2928 3.1529 31.9244 2.09564 30.4045C1.03667 28.8845 1.41194 26.7958 2.93185 25.7368L4.91785 24.3471L6.01453 25.9219L4.24614 27.1505C3.59328 27.6061 3.43221 28.5042 3.88632 29.1571C4.34213 29.8117 5.24002 29.9727 5.8946 29.517L7.66641 28.2747L8.75793 29.8425L6.7582 31.2339ZM19.7006 16.4254L20.1736 17.0525L20.1891 17.0428C20.0881 16.3231 20.4582 15.7662 21.0373 15.3602C21.5034 15.0328 22.206 14.9094 22.6943 15.2659C22.6327 14.6216 22.9839 13.9858 23.5528 13.5643C24.3805 12.9851 25.3709 13.0947 25.9672 13.9481L27.775 16.5287L26.3185 17.5482L24.7318 15.2829C24.4542 14.9162 24.0755 14.5752 23.6197 14.8938C22.8931 15.4028 23.5391 16.1293 23.5683 16.1704L25.1207 18.3878L23.6642 19.4074L22.0741 17.1353C21.7948 16.7685 21.416 16.4258 20.9602 16.7461C20.2337 17.2534 20.8814 17.9817 20.9122 18.0279L22.4663 20.247L21.0098 21.2665L18.9981 18.3929C18.7565 18.0485 18.5886 17.8239 18.2596 17.4366L19.7006 16.4254ZM25.8214 9.62266L26.5428 10.6524L25.0709 11.6824L24.3495 10.6524L25.8214 9.62266ZM29.7009 15.1778L28.2444 16.1975L25.5404 12.3368L26.9969 11.3173L29.7009 15.1778ZM28.9007 9.9842L29.2228 10.3955C29.2862 9.77697 29.5638 9.35199 30.059 9.00586C30.8867 8.42667 31.8771 8.53619 32.47 9.38282L34.2812 11.9702L32.8264 12.9899L31.2345 10.7177C30.9552 10.3529 30.5765 10.0082 30.1207 10.3285C29.3942 10.8375 30.0419 11.5659 30.0746 11.6121L31.6271 13.8294L30.1705 14.8489L28.1605 11.977C27.9189 11.6307 27.7493 11.4064 27.422 11.0192L28.9007 9.9842ZM23.5715 21.6346H41.2417V6.64451H36.1953L35.0198 7.47387C34.9272 7.34369 34.8244 7.24406 34.7028 7.21832C34.5657 7.18917 34.4046 7.22 34.2041 7.36062C33.9882 7.51168 33.9437 7.72544 34.0996 7.95014C34.2984 8.23284 34.881 7.80292 35.9965 7.4463C36.5585 7.26998 37.0726 7.33318 37.5147 7.96215C38.2293 8.98515 37.4513 9.91897 36.5671 10.5376C35.6212 11.2007 34.564 11.6548 33.7483 10.4725L35.1312 9.50437C35.1894 9.63649 35.3197 9.73894 35.4739 9.78023C35.6298 9.81909 35.8063 9.81424 35.9451 9.71515C36.2295 9.51455 36.3632 9.26298 36.1901 9.01609C35.712 8.33237 33.7124 10.3389 32.7322 8.93886C32.1325 8.08378 32.7458 7.20117 33.4348 6.64258L21.6661 6.64436C21.6661 6.64436 12.2399 6.36848 6.24417 12.9948C6.24417 12.9948 0.642578 17.9658 0.642578 27.039C0.642578 27.4776 0.656181 27.8923 0.681925 28.3138C0.685349 28.4542 0.77446 29.3848 0.837847 29.8783C1.8437 37.1694 6.40173 41.2786 6.40173 41.2786C12.7521 47.629 21.5478 47.3532 21.5478 47.3532H41.2416V32.363H23.4927C23.4927 32.363 17.5758 32.3241 17.5758 26.9996C17.5758 21.7527 23.5715 21.6346 23.5715 21.6346Z" fill="#2E3A4B" fill-opacity="0.7"/>
<path d="M43.3375 46.0788V45.6524H43.622C43.7659 45.6524 43.9219 45.6863 43.9219 45.8544C43.9219 46.0667 43.7642 46.0788 43.5877 46.0788H43.3375ZM43.3375 46.2551H43.5774L43.9407 46.8514H44.1738L43.7831 46.2465C43.9835 46.2222 44.1395 46.1129 44.1395 45.8676C44.1395 45.5951 43.9784 45.4752 43.6529 45.4752H43.1285V46.8511H43.3376L43.3375 46.2551ZM43.5894 47.3569C44.2406 47.3569 44.7958 46.8514 44.7958 46.1608C44.7958 45.4754 44.2406 44.9717 43.5894 44.9717C42.9331 44.9717 42.3779 45.4754 42.3779 46.1608C42.3779 46.8514 42.9331 47.3569 43.5894 47.3569ZM42.6178 46.1608C42.6178 45.5954 43.0445 45.1705 43.5894 45.1705C44.1292 45.1705 44.5559 45.5954 44.5559 46.1608C44.5559 46.7348 44.1292 47.1581 43.5894 47.1581C43.0445 47.1581 42.6178 46.735 42.6178 46.1608Z" fill="#2E3A4B" fill-opacity="0.7"/>
</svg>
