<svg width="97" height="56" viewBox="0 0 97 56" fill="none" xmlns="http://www.w3.org/2000/svg">
<g clip-path="url(#clip0_18912_153851)">
<g opacity="0.7" clip-path="url(#clip1_18912_153851)">
<path d="M5.39745 17.3242H0V38.6136H5.39745C11.269 38.6136 16.0333 33.8484 16.0333 27.9654C16.0333 22.0895 11.2689 17.3242 5.39745 17.3242Z" fill="#7C848D" fill-opacity="0.3"/>
<path d="M5.22072 11.6133H0.0253906V17.7535H5.22072C10.8725 17.7535 15.4578 22.3395 15.4578 27.9981C15.4578 33.6583 10.8725 38.242 5.22072 38.242H0.0253906V44.3821H5.22072C14.263 44.3821 21.7947 37.7532 21.7947 27.9981C21.7947 18.1163 14.263 11.6133 5.22072 11.6133ZM18.4787 44.3821H24.6215V38.2418H18.4787V44.3821ZM79.8855 27.9981L91.9203 15.9562V11.6133H87.3766L73.3048 25.6936V11.6133H18.5149V17.7535H30.0526V44.3821H36.4887V17.7535H48.0829C45.9662 20.4598 44.6934 23.9415 44.6934 27.9981C44.6934 37.7532 52.2234 44.3821 61.2648 44.3821H73.3048V30.3026L87.3766 44.3821H96.26L79.8855 27.9981ZM66.8685 38.242H61.2648C56.6474 38.242 52.7435 35.1753 51.4707 30.9679H60.5583V25.0202H51.4707C52.7437 20.8172 56.6501 17.7535 61.2648 17.7535H66.8685V38.242Z" fill="#2E3A4B"/>
</g>
</g>
<defs>
<clipPath id="clip0_18912_153851">
<rect width="96.32" height="56" fill="white"/>
</clipPath>
<clipPath id="clip1_18912_153851">
<rect width="96.2595" height="33.6" fill="white" transform="translate(0 11.1992)"/>
</clipPath>
</defs>
</svg>
