<svg width="120" height="56" viewBox="0 0 120 56" fill="none" xmlns="http://www.w3.org/2000/svg">
<g clip-path="url(#clip0_18912_153857)">
<g opacity="0.7" clip-path="url(#clip1_18912_153857)">
<mask id="mask0_18912_153857" style="mask-type:luminance" maskUnits="userSpaceOnUse" x="0" y="5" width="120" height="45">
<path d="M119.514 5.60156H0.160156V49.6016H119.514V5.60156Z" fill="white"/>
</mask>
<g mask="url(#mask0_18912_153857)">
<path fill-rule="evenodd" clip-rule="evenodd" d="M69.4335 30.5481C69.1638 32.1789 67.1251 35.7842 62.0629 35.7842C55.2995 35.7842 53.8659 28.6909 54.0338 27.4437L71.8038 27.4371C71.5593 21.5823 67.4289 16.919 61.5072 16.919C55.4099 16.919 50.4668 21.8631 50.4668 27.9614C50.4668 34.0601 55.4099 39.0039 61.5072 39.0039C66.714 39.0039 70.743 35.3989 71.8094 30.5481H69.4335ZM60.9355 19.1719C64.6262 19.1719 67.2944 21.4158 68.2424 25.0424L54.2352 25.0232C55.1403 20.942 58.3547 19.1719 60.9355 19.1719ZM108.471 16.9057C102.372 16.9057 97.4273 21.8509 97.4273 27.9517V48.5564H100.969V36.0062C102.729 37.9456 105.58 38.9973 108.471 38.9973C114.571 38.9973 119.515 34.0518 119.515 27.9517C119.515 21.8509 114.571 16.9057 108.471 16.9057ZM109.286 36.4796C104.639 36.4545 101.074 32.4976 101.045 27.1396C101.015 21.514 105.046 19.1573 107.746 19.1719C112.378 19.197 116.065 23.5691 116.092 28.7C116.117 33.4728 112.809 36.4988 109.286 36.4796ZM91.979 5.60156V19.9146C90.165 17.9282 87.3679 16.9057 84.4764 16.9057C78.3774 16.9057 73.4328 21.8509 73.4328 27.9517C73.4328 34.0518 78.3774 38.9973 84.4764 38.9973C90.5758 38.9973 95.5203 34.0518 95.5203 27.9517V5.60156H91.979ZM85.1676 36.481C80.5307 36.4559 76.8842 32.2224 76.8556 27.0159C76.826 21.9596 80.3676 19.1588 83.627 19.1733C88.2695 19.1985 91.8756 23.2935 91.9027 28.5763C91.9282 33.9183 88.1309 36.5002 85.1676 36.481Z" fill="#2E3A4B"/>
<mask id="mask1_18912_153857" style="mask-type:luminance" maskUnits="userSpaceOnUse" x="0" y="5" width="35" height="45">
<path fill-rule="evenodd" clip-rule="evenodd" d="M22.3312 5.60292C25.8578 5.55223 29.8572 6.92463 33.4789 9.30066L34.8585 10.2871L32.733 13.2301L31.6799 12.4639C28.6135 10.4029 25.2489 9.13225 22.3312 9.03084C11.9812 9.03084 3.59073 17.3456 3.59073 27.6023C3.59073 37.8588 11.9812 46.1735 22.3312 46.1735V49.6016C10.0865 49.6016 0.160156 39.7523 0.160156 27.6023C0.160156 15.4524 10.0865 5.60292 22.3312 5.60292Z" fill="white"/>
</mask>
<g mask="url(#mask1_18912_153857)">
<rect x="0.160156" y="5.60156" width="34.6983" height="44" fill="#2E3A4B"/>
</g>
<mask id="mask2_18912_153857" style="mask-type:luminance" maskUnits="userSpaceOnUse" x="10" y="9" width="32" height="33">
<path fill-rule="evenodd" clip-rule="evenodd" d="M34.0289 9.75C38.8641 13.5049 41.903 20.5239 41.1087 26.5247C39.642 37.1896 31.0186 42.3745 22.3653 41.7502C13.4509 41.0381 9.08802 32.3607 10.2348 27.3065C12.0942 18.8246 18.8644 16.122 23.5982 17.5518C28.0285 18.9413 31.1109 22.6365 30.241 26.9605C28.6761 32.9564 23.3383 33.8319 20.2761 32.3715L21.7177 29.3211C23.4115 30.036 26.0936 29.4932 26.9792 26.5247C27.5429 23.6819 25.1718 21.3778 22.4416 20.6911C18.058 19.792 14.3329 23.8335 13.6322 27.3664C12.7159 33.6584 17.1271 37.6421 22.4705 38.3848C30.9395 39.2718 38.6909 32.7446 37.7733 23.1273C37.3552 20.1435 36.0088 15.0635 31.3388 12.1995L34.0289 9.75Z" fill="white"/>
</mask>
<g mask="url(#mask2_18912_153857)">
<rect x="10.0547" y="9.75" width="31.1797" height="32.0507" fill="#2E3A4B"/>
</g>
<mask id="mask3_18912_153857" style="mask-type:luminance" maskUnits="userSpaceOnUse" x="14" y="19" width="18" height="20">
<path fill-rule="evenodd" clip-rule="evenodd" d="M23.9487 19.2891C29.1224 19.3196 31.9032 24.6231 31.7161 28.4883C31.381 34.5121 26.4507 38.139 20.0848 38.1711C17.5827 38.1188 15.7028 37.4914 14.4453 36.9117L16.0118 33.9223C17.1562 34.4975 18.1569 35.0249 19.8758 34.9768C23.2916 35.0162 28.1435 33.1381 28.4002 28.3357C28.5396 26.3834 27.0513 22.5617 23.7919 22.4788C21.8776 22.5008 20.0106 23.625 19.7713 26.1395C19.6149 28.2005 21.3247 29.2551 22.7478 29.5906L22.6433 32.9461C18.2224 32.5908 16.4339 28.8078 16.4644 26.2831C16.518 22.5136 18.8694 19.3674 23.9487 19.2891Z" fill="white"/>
</mask>
<g mask="url(#mask3_18912_153857)">
<rect x="14.4453" y="19.2891" width="17.2795" height="18.882" fill="#2E3A4B"/>
</g>
<mask id="mask4_18912_153857" style="mask-type:luminance" maskUnits="userSpaceOnUse" x="7" y="7" width="38" height="43">
<path fill-rule="evenodd" clip-rule="evenodd" d="M25.1069 7.90248C35.1837 7.97985 44.0917 15.454 44.0917 27.6037C44.0917 39.7537 34.2598 49.6031 22.1314 49.6031L20.324 49.5118V46.1081L22.1314 46.1998C32.3789 46.1998 40.6859 37.8739 40.6859 27.6037C40.6473 16.792 32.6447 11.1707 25.1069 11.1707C15.0916 11.1707 10.6485 18.83 10.6485 23.8779C10.6485 29.0129 12.9188 31.9257 16.0443 33.9756L14.4718 36.8685C9.34591 33.7954 7.39427 29.2523 7.33936 23.8197C7.22325 16.2732 13.9849 7.86381 25.1069 7.90248Z" fill="white"/>
</mask>
<g mask="url(#mask4_18912_153857)">
<rect x="7.33789" y="7.90234" width="36.7538" height="41.7007" fill="#2E3A4B"/>
</g>
</g>
</g>
</g>
<defs>
<clipPath id="clip0_18912_153857">
<rect width="119.84" height="56" fill="white" transform="translate(0.160156)"/>
</clipPath>
<clipPath id="clip1_18912_153857">
<rect width="119.354" height="44" fill="white" transform="translate(0.160156 5.60156)"/>
</clipPath>
</defs>
</svg>
