<svg width="79" height="56" viewBox="0 0 79 56" fill="none" xmlns="http://www.w3.org/2000/svg">
<g id="GRE logo">
<g id="GRE logo_2">
<path id="Vector" d="M37.1389 9H0.375825C0.27615 9 0.180557 9.03961 0.110077 9.11012C0.0395957 9.18063 3.56628e-09 9.27626 3.56628e-09 9.37598L3.56628e-09 46.154C-6.81188e-06 46.2031 0.00975509 46.2517 0.0287165 46.297C0.047678 46.3422 0.0754594 46.3833 0.110441 46.4177C0.145423 46.4521 0.186905 46.4792 0.232468 46.4974C0.278031 46.5157 0.326764 46.5246 0.375825 46.5238H37.1389C37.2369 46.5238 37.331 46.4848 37.4003 46.4155C37.4696 46.3461 37.5086 46.2521 37.5086 46.154V9.37598C37.5094 9.3269 37.5004 9.27814 37.4822 9.23256C37.464 9.18698 37.4369 9.14548 37.4025 9.11049C37.3681 9.07549 37.327 9.0477 37.2818 9.02873C37.2365 9.00976 37.188 8.99999 37.1389 9ZM16.3761 42.6408H4.17104V12.883H10.0056C14.2382 13.7336 18.9576 14.1651 18.9576 18.0789C18.9576 21.2347 9.34633 23.4782 9.34633 27.2072C9.34633 32.588 18.7358 33.7282 18.7358 39.109C18.7358 40.539 17.8178 41.6669 16.3761 42.6408ZM33.3375 42.6408H27.5892C29.2466 41.3341 30.3987 39.861 30.3987 38.0242C30.3987 34.776 27.3798 32.8777 22.8514 30.628C19.7647 29.0501 16.0188 28.3043 16.0188 26.0731C16.0188 23.6755 21.9026 23.5768 21.6993 18.4857C21.5637 14.0048 17.7993 13.7213 13.5543 12.883H33.3375V42.6408Z" fill="#2E3A4B" fill-opacity="0.7"/>
<path id="Vector_2" d="M49.6339 17.9803C49.7225 19.1596 49.4216 20.3354 48.7775 21.3271C48.3821 21.8637 47.8602 22.2943 47.2582 22.5803C46.6562 22.8664 45.9929 22.9991 45.3273 22.9666C44.7362 23 44.1446 22.9089 43.5909 22.6993C43.0371 22.4897 42.5335 22.1662 42.1125 21.7497C41.6916 21.3332 41.3626 20.833 41.147 20.2814C40.9313 19.7298 40.8337 19.139 40.8605 18.5473C40.8321 17.9446 40.9303 17.3427 41.1488 16.7804C41.3674 16.218 41.7014 15.7078 42.1293 15.2826C42.5572 14.8574 43.0695 14.5268 43.6331 14.312C44.1966 14.0972 44.799 14.003 45.4012 14.0356C46.1945 13.9932 46.9818 14.1949 47.657 14.6137C48.3323 15.0324 48.8631 15.6481 49.1779 16.3777L47.114 17.2468C46.9932 16.8608 46.7524 16.5235 46.4265 16.284C46.1007 16.0445 45.707 15.9154 45.3026 15.9155C43.8733 15.9155 43.1278 17.2838 43.1278 18.5596C43.1278 19.8355 43.9041 21.1792 45.3334 21.1792C45.5451 21.2039 45.7595 21.1854 45.9638 21.1249C46.1681 21.0644 46.358 20.9631 46.5221 20.8272C46.6862 20.6913 46.821 20.5235 46.9185 20.334C47.016 20.1445 47.0741 19.9372 47.0893 19.7246H45.315V17.9803H49.6339Z" fill="#2E3A4B" fill-opacity="0.7"/>
<path id="Vector_3" d="M57.662 22.6585H54.9511L52.8995 19.4411V22.6585H50.7V14.2822H53.953C55.6103 14.2822 56.861 15.0712 56.861 16.8586C56.8999 17.4119 56.7325 17.96 56.3911 18.3971C56.0498 18.8341 55.5587 19.1293 55.0127 19.2254L57.662 22.6585ZM52.8748 18.0358H53.0904C53.799 18.0358 54.5999 17.9064 54.5999 16.9942C54.5999 16.082 53.799 15.9526 53.0904 15.9526H52.8748V18.0358Z" fill="#2E3A4B" fill-opacity="0.7"/>
<path id="Vector_4" d="M60.4944 16.1251V17.5304H62.9589V19.3795H60.4944V20.8218H63.0821V22.6708H58.3196V14.2822H63.0821V16.1313L60.4944 16.1251Z" fill="#2E3A4B" fill-opacity="0.7"/>
<path id="Vector_5" d="M66.6244 21.2039L66.0453 22.6585H63.7349L66.9571 14.2822H69.3353L72.4897 22.6585H70.167L69.6187 21.2039H66.6244ZM68.1462 16.8894L67.2467 19.5582H69.058L68.1462 16.8894Z" fill="#2E3A4B" fill-opacity="0.7"/>
<path id="Vector_6" d="M75.8989 22.6588H73.7241V16.1254H71.925V14.2764H77.698V16.1254H75.8989V22.6588Z" fill="#2E3A4B" fill-opacity="0.7"/>
<path id="Vector_7" d="M48.2479 33.4202H45.5371L43.4793 30.2028V33.4202H41.2798V25.0254H44.5328C46.2086 25.0254 47.4408 25.8328 47.4408 27.6264C47.4756 28.1788 47.3066 28.7248 46.966 29.161C46.6254 29.5972 46.1367 29.8933 45.5925 29.9932L48.2479 33.4202ZM43.4608 28.8037H43.6703C44.3788 28.8037 45.1797 28.6681 45.1797 27.7559C45.1797 26.8436 44.3788 26.7142 43.6703 26.7142H43.4608V28.8037Z" fill="#2E3A4B" fill-opacity="0.7"/>
<path id="Vector_8" d="M51.944 33.4202H49.7683V25.0254H51.944V33.4202Z" fill="#2E3A4B" fill-opacity="0.7"/>
<path id="Vector_9" d="M57.8088 30.135L59.8419 25.0254H62.2263L58.6529 33.4017H56.9401L53.4221 25.0254H55.788L57.8088 30.135Z" fill="#2E3A4B" fill-opacity="0.7"/>
<path id="Vector_10" d="M65.8609 26.8745V28.2921H68.3254V30.1412H65.8609V31.5834H68.4424V33.4325H63.6799V25.0254H68.4424V26.8745H65.8609Z" fill="#2E3A4B" fill-opacity="0.7"/>
<path id="Vector_11" d="M77.6844 33.4202H74.9736L72.9219 30.2028V33.4202H70.7471V25.0254H74.0001C75.6574 25.0254 76.9081 25.8143 76.9081 27.6079C76.9442 28.1606 76.7758 28.7073 76.4349 29.1438C76.0941 29.5803 75.6046 29.876 75.0598 29.9747L77.6844 33.4202ZM72.8973 28.8037H73.1129C73.8214 28.8037 74.6224 28.6681 74.6224 27.7559C74.6224 26.8436 73.8214 26.7142 73.1129 26.7142H72.8973V28.8037Z" fill="#2E3A4B" fill-opacity="0.7"/>
<path id="Vector_12" d="M42.9001 37.1549V38.1904H44.7115V39.5525H42.9001V40.6188H44.8101V41.981H41.2798V35.8174H44.7978V37.1795L42.9001 37.1549Z" fill="#2E3A4B" fill-opacity="0.7"/>
<path id="Vector_13" d="M46.3054 35.793H47.9135L50.8523 39.5774V35.793H52.4603V41.9565H50.8708L47.9258 38.1659V41.9565H46.3054V35.793Z" fill="#2E3A4B" fill-opacity="0.7"/>
<path id="Vector_14" d="M55.6349 37.1549V38.1904H57.4832V39.5525H55.6349V40.6188H57.5448V41.981H54.0269V35.8174H57.5448V37.1795L55.6349 37.1549Z" fill="#2E3A4B" fill-opacity="0.7"/>
<path id="Vector_15" d="M64.1803 41.981H62.178L60.6624 39.6018V41.981H59.042V35.8174H61.4448C62.677 35.8174 63.5889 36.3968 63.5889 37.7219C63.6102 38.1253 63.4837 38.5226 63.233 38.8392C62.9823 39.1559 62.6247 39.3701 62.2273 39.4416L64.1803 41.981ZM60.65 38.5848H60.8041C61.3277 38.5848 61.9192 38.4862 61.9192 37.8144C61.9192 37.1426 61.3031 37.0439 60.8041 37.0439H60.65V38.5848Z" fill="#2E3A4B" fill-opacity="0.7"/>
<path id="Vector_16" d="M71.2836 38.5235C71.3548 39.3907 71.1382 40.2572 70.6675 40.9889C70.3778 41.3898 69.9931 41.7124 69.5478 41.9276C69.1026 42.1428 68.6108 42.2438 68.1168 42.2216C67.6801 42.2462 67.2431 42.1789 66.8341 42.0238C66.4251 41.8688 66.0532 41.6296 65.7425 41.3216C65.4318 41.0137 65.1892 40.6439 65.0304 40.2362C64.8716 39.8285 64.8001 39.392 64.8206 38.9549C64.7962 38.5088 64.8666 38.0625 65.0271 37.6456C65.1877 37.2286 65.4347 36.8504 65.752 36.5359C66.0692 36.2215 66.4495 35.9778 66.8678 35.8211C67.286 35.6643 67.7327 35.598 68.1784 35.6266C68.7602 35.5988 69.3367 35.7491 69.8309 36.0574C70.3251 36.3658 70.7137 36.8175 70.9447 37.3524L69.423 37.9687C69.3345 37.6836 69.1568 37.4345 68.9161 37.258C68.6754 37.0816 68.3844 36.9872 68.086 36.9887C67.0263 36.9887 66.478 37.9934 66.478 38.9364C66.478 39.8794 67.051 40.8779 68.1107 40.8779C68.2669 40.8949 68.425 40.8802 68.5754 40.8348C68.7259 40.7893 68.8657 40.714 68.9864 40.6133C69.1072 40.5127 69.2064 40.3887 69.2782 40.2489C69.35 40.109 69.393 39.9561 69.4045 39.7993H68.0922V38.5235H71.2836Z" fill="#2E3A4B" fill-opacity="0.7"/>
<path id="Vector_17" d="M71.8386 35.793H73.767L74.9253 37.4756L76.0836 35.793H78.0058L75.7263 39.0104V41.9812H74.1182V39.0104L71.8386 35.793Z" fill="#2E3A4B" fill-opacity="0.7"/>
<path id="Vector_18" d="M78.3939 41.7968C78.2423 41.9425 78.0402 42.024 77.8299 42.024C77.6196 42.024 77.4175 41.9425 77.266 41.7968C77.1154 41.644 77.0312 41.438 77.0317 41.2236C77.0316 41.0073 77.1156 40.7995 77.266 40.6442C77.4175 40.4984 77.6196 40.417 77.8299 40.417C78.0402 40.417 78.2423 40.4984 78.3939 40.6442C78.5443 40.7995 78.6283 41.0073 78.6281 41.2236C78.6286 41.438 78.5445 41.644 78.3939 41.7968ZM77.3892 40.7428C77.2654 40.8701 77.1948 41.0398 77.192 41.2174C77.192 41.3866 77.2592 41.5488 77.3788 41.6685C77.4985 41.7881 77.6607 41.8553 77.8299 41.8553C77.9991 41.8553 78.1614 41.7881 78.281 41.6685C78.4006 41.5488 78.4679 41.3866 78.4679 41.2174C78.465 41.0398 78.3945 40.8701 78.2706 40.7428C78.2132 40.6841 78.1447 40.6374 78.069 40.6056C77.9933 40.5738 77.912 40.5573 77.8299 40.5573C77.7478 40.5573 77.6665 40.5738 77.5909 40.6056C77.5152 40.6374 77.4466 40.6841 77.3892 40.7428ZM77.8022 40.7428C77.9024 40.7339 78.0021 40.7649 78.0796 40.8291C78.1282 40.8807 78.1548 40.9492 78.1535 41.0202C78.153 41.0841 78.1288 41.1456 78.0857 41.1927C78.0537 41.2289 78.0101 41.2528 77.9624 41.2605L78.209 41.6119H77.9008L77.7282 41.316V41.6673H77.4755V40.7736L77.8022 40.7428ZM77.7282 41.1249C77.7625 41.1344 77.7987 41.1344 77.833 41.1249C77.8474 41.1159 77.8591 41.1031 77.8667 41.0879C77.8743 41.0726 77.8776 41.0556 77.8762 41.0386C77.8851 41.0148 77.8851 40.9885 77.8762 40.9647C77.838 40.9532 77.7972 40.9532 77.759 40.9647L77.7282 41.1249Z" fill="#2E3A4B" fill-opacity="0.7"/>
</g>
</g>
</svg>
