<svg width="240" height="56" viewBox="0 0 240 56" fill="none" xmlns="http://www.w3.org/2000/svg">
<g clip-path="url(#clip0_13450_204796)">
<g clip-path="url(#clip1_13450_204796)">
<path d="M52.8814 37.1946V28.7025H60.8569V37.1946H65.1914V17.4375H60.8569V25.0631H52.8814V17.4375H48.5469V37.1946H52.8814ZM72.6468 20.557V17.4375H68.6591V20.7304H72.6468V20.557ZM72.6468 37.1946V22.8101H68.6591V37.1946H72.6468ZM81.3159 37.3679C82.0094 37.3679 82.8763 37.3679 83.5698 37.1946V34.0751C83.2231 34.0751 82.7029 34.2484 82.3562 34.2484C80.9691 34.2484 80.6224 33.9018 80.6224 32.5153V25.4097H83.5698V22.8101H80.6224V18.4773H76.6346V22.8101H74.2073V25.4097H76.6346V33.9018C76.808 36.848 78.8886 37.3679 81.3159 37.3679ZM89.8116 37.5412C91.5454 37.5412 93.4526 37.0213 94.6662 35.8082C94.6662 36.3281 94.8396 36.6747 95.013 37.1946H99.0007C98.654 36.6747 98.4806 35.2882 98.4806 34.0751V26.6228C98.4806 23.1567 95.013 22.4634 92.2389 22.4634C88.9447 22.4634 85.6504 23.5033 85.477 27.3161H89.4648C89.6382 25.7563 90.5051 25.2364 92.0655 25.2364C93.4526 25.2364 94.6662 25.4097 94.6662 27.1428C94.6662 28.7025 92.4123 28.7025 89.9849 29.0491C87.5576 29.3958 85.1303 30.089 85.1303 33.3818C84.9569 36.1548 87.0375 37.5412 89.8116 37.5412ZM91.372 34.9416C90.1583 34.9416 88.9446 34.595 88.9446 33.0352C88.9446 31.6488 89.9849 31.1288 91.1986 30.9555C92.4123 30.7822 93.7993 30.7822 94.4928 30.089V31.4755C94.4928 32.5153 94.3195 34.9416 91.372 34.9416ZM108.19 37.5412C112.004 37.5412 114.605 35.4615 115.125 31.6488H111.311C111.137 33.3818 109.924 34.595 108.19 34.595C105.763 34.595 104.896 32.1687 104.896 30.089C104.896 28.0093 105.763 25.4097 108.19 25.4097C109.75 25.4097 110.791 26.2762 111.137 27.836H114.952C114.778 24.1965 111.658 22.4634 108.19 22.4634C103.509 22.4634 100.908 25.7563 100.908 30.2623C101.081 34.595 104.029 37.5412 108.19 37.5412ZM121.367 37.1946V29.7424C121.367 26.7961 122.234 25.583 124.488 25.583C126.395 25.583 127.088 26.7961 127.088 29.0491V37.1946H131.076V28.3559C131.076 24.8897 130.036 22.4634 125.875 22.4634C124.488 22.4634 122.754 23.1567 121.714 24.8897V17.4375H117.726V37.1946H121.367ZM137.838 20.557V17.4375H133.85V20.7304H137.838V20.557ZM137.838 37.1946V22.8101H133.85V37.1946H137.838ZM164.192 37.1946V33.5551H153.442V28.7025H162.978V25.2364H153.442V21.077H163.845V17.4375H149.108V37.1946H164.192ZM170.607 37.1946V29.7424C170.607 26.7961 171.474 25.583 173.728 25.583C175.635 25.583 176.329 26.7961 176.329 29.0491V37.1946H180.316V28.3559C180.316 24.8897 179.276 22.4634 175.115 22.4634C173.381 22.4634 171.647 23.1567 170.78 24.8897V22.8101H166.966V37.1946H170.607ZM189.852 37.5412C193.147 37.5412 195.401 36.1548 196.614 32.6886H193.147C192.973 33.5551 191.586 34.595 190.026 34.595C187.772 34.595 186.558 33.3818 186.558 30.9555H196.961C197.308 26.6228 194.88 22.4634 190.026 22.4634C185.691 22.4634 182.744 25.7563 182.744 30.089C182.397 34.4217 185.171 37.5412 189.852 37.5412ZM192.8 28.5292H186.385C186.385 27.4894 187.078 25.4097 189.679 25.4097C191.586 25.4097 192.453 26.4495 192.8 28.5292ZM203.029 37.1946V30.7822C203.029 28.1826 204.07 26.1029 206.844 26.1029C207.364 26.1029 207.884 26.1029 208.231 26.2762V22.6367C208.057 22.6367 207.711 22.4634 207.364 22.4634C205.457 22.4634 203.549 23.6766 202.856 25.583V22.8101H199.042V37.1946H203.029ZM216.206 42.5672C222.795 42.5672 223.662 38.5811 223.662 36.1548V22.8101H219.847V24.7164C218.98 22.9834 217.42 22.4634 215.513 22.4634C211.525 22.4634 209.271 25.9296 209.271 29.5691C209.271 33.5552 211.178 36.848 215.339 36.848C217.073 36.848 218.807 36.1548 219.674 34.595V36.5014C219.674 38.5811 218.634 39.9676 216.553 39.9676C215.166 39.9676 213.952 39.4476 213.606 38.0612H209.618C210.138 41.354 213.432 42.5672 216.206 42.5672ZM216.553 33.7285C214.126 33.7285 213.432 31.4755 213.432 29.3958C213.432 27.3161 214.473 25.2364 216.553 25.2364C219.154 25.2364 219.847 27.3161 219.847 29.5691C219.847 31.8221 218.807 33.7285 216.553 33.7285ZM228.863 42.2206C231.637 42.2206 233.024 41.354 233.718 38.9277L239.786 22.8101H235.798L232.678 32.6886L229.383 22.8101H225.222L230.25 36.3281C230.77 37.5412 230.25 38.9277 228.863 39.101C228.17 39.101 227.303 39.101 226.609 38.9277V42.2206C227.303 42.2206 228.17 42.2206 228.863 42.2206Z" fill="#2E3A4B" fill-opacity="0.7"/>
<path fill-rule="evenodd" clip-rule="evenodd" d="M32.0755 34.0759C33.1158 32.1695 33.8093 29.7432 33.8093 27.3169C33.8093 24.8906 33.1158 22.4642 32.0755 20.5579H28.0877C29.6482 22.2909 30.5151 24.7172 30.5151 27.3169C30.5151 29.9165 29.6482 32.3428 28.0877 34.0759H32.0755ZM13.5237 34.0759C11.9633 32.3428 11.0964 29.9165 11.0964 27.3169C11.0964 24.7172 11.9633 22.2909 13.5237 20.5579H9.53596C8.49567 22.4642 7.80215 24.8906 7.80215 27.3169C7.80215 29.7432 8.49567 31.9962 9.53596 34.0759H13.5237ZM21.3259 30.783C23.2331 30.783 24.7935 29.2233 24.7935 27.4902C24.7935 25.5838 23.2331 24.1973 21.3259 24.1973C19.4187 24.1973 18.0316 25.7571 18.0316 27.4902C18.0316 29.2233 19.4187 30.783 21.3259 30.783ZM21.3259 40.8349C25.487 40.8349 27.9144 39.6217 30.3417 37.542H12.3101C14.7374 39.6217 17.8583 40.8349 21.3259 40.8349ZM22.5395 16.0519H30.3417C28.2611 14.1455 25.487 13.1056 22.5395 12.759V16.0519ZM11.2698 16.0519H19.0719V12.759C16.1244 13.1056 13.3503 14.3188 11.2698 16.0519ZM21.3259 34.0759C25.1403 34.0759 28.0877 31.1296 28.0877 27.3169C28.0877 23.5041 25.1403 20.5579 21.3259 20.5579C17.6849 20.5579 14.564 23.5041 14.564 27.3169C14.564 31.1296 17.6849 34.0759 21.3259 34.0759ZM24.7935 10.1594C31.0352 11.5459 36.0633 16.5718 37.4503 22.8109C37.9705 24.8906 39.3575 26.6236 41.6115 26.7969C39.3575 26.9703 37.9705 28.53 37.4503 30.783C35.8899 37.0221 31.0352 42.048 24.7935 43.4345C22.5395 43.9544 20.9791 45.3409 20.8057 47.5939C20.6324 45.3409 19.0719 43.9544 16.818 43.4345C10.5762 41.8747 5.5482 37.0221 4.16115 30.783C3.641 28.53 2.25395 26.9703 0 26.7969C2.25395 26.6236 3.641 25.0639 4.16115 22.8109C5.5482 16.5718 10.5762 11.5459 16.818 10.1594C19.0719 9.63947 20.6324 8.253 20.8057 6C20.9791 8.253 22.5395 9.63947 24.7935 10.1594Z" fill="#2E3A4B" fill-opacity="0.7"/>
</g>
</g>
<defs>
<clipPath id="clip0_13450_204796">
<rect width="240" height="56" fill="white"/>
</clipPath>
<clipPath id="clip1_13450_204796">
<rect width="241" height="41.5939" fill="white" transform="translate(0 6)"/>
</clipPath>
</defs>
</svg>
