<svg width="174" height="56" viewBox="0 0 174 56" fill="none" xmlns="http://www.w3.org/2000/svg">
<g id="Mercury logo">
<g id="Clip path group">
<mask id="mask0_13450_203085" style="mask-type:luminance" maskUnits="userSpaceOnUse" x="0" y="8" width="174" height="40">
<g id="clip0_3347_54439">
<path id="Vector" d="M174 8H0V48H174V8Z" fill="white"/>
</g>
</mask>
<g mask="url(#mask0_13450_203085)">
<g id="Group">
<path id="Vector_2" d="M75.5926 36.362L81.3553 26.5314V36.362H84.9711V19.2998H81.3553L75.5926 29.1303V19.2998H71.9768L63.6152 33.6501V36.362H66.2141L71.9768 26.7574V36.362H75.5926Z" fill="#2E3A4B" fill-opacity="0.7"/>
<path id="Vector_3" d="M98.5327 22.9156V19.2998H90.3971H86.7812V22.9156V25.9665V29.3563V32.7461V36.362H90.3971H98.5327V32.7461H90.3971V29.3563H97.8547V25.9665H90.3971V22.9156H98.5327Z" fill="#2E3A4B" fill-opacity="0.7"/>
<path id="Vector_4" d="M170.734 19.4121L166.666 27.6607L166.101 27.5477L161.92 19.4121H158.191L164.519 31.9545L162.259 36.3613H166.101L173.22 22.3499V19.4121H170.734Z" fill="#2E3A4B" fill-opacity="0.7"/>
<path id="Vector_5" d="M126.78 32.5197L125.311 33.1977H119.887C119.097 33.1977 118.532 32.5197 118.532 31.8418V31.6158V24.4971V24.2711C118.532 23.4802 119.21 22.9152 119.887 22.9152H125.311L127.006 23.4802V20.2034L125.424 19.5254H119.774C117.063 19.5254 114.803 21.7853 114.803 24.4971V31.8418C114.916 34.5536 117.063 36.5875 119.774 36.5875H125.424L128.023 35.4576L126.78 32.5197Z" fill="#2E3A4B" fill-opacity="0.7"/>
<path id="Vector_6" d="M139.548 19.2998V31.6162L138.079 33.1981H133.785L132.316 31.6162V19.2998H128.701V31.8422C128.701 33.8761 130.622 36.7009 133.785 36.7009H138.079C141.243 36.7009 143.164 33.8761 143.164 31.8422V19.2998H139.548Z" fill="#2E3A4B" fill-opacity="0.7"/>
<path id="Vector_7" d="M110.735 36.3618L114.803 36.4748L110.622 29.9211C112.091 29.4692 113.334 28.2262 113.334 26.0793V23.7065C113.334 20.7686 110.848 19.6387 109.04 19.6387H103.956H100.34V23.0285V26.8703V30.2601V36.5878H103.956V30.2601H106.781L110.735 36.3618ZM103.843 22.9155H108.927L109.718 23.5935V25.9663L108.927 26.6443H103.843V22.9155Z" fill="#2E3A4B" fill-opacity="0.7"/>
<path id="Vector_8" d="M155.481 36.3618L159.549 36.4748L155.368 29.9211C156.837 29.4692 158.08 28.2262 158.08 26.0793V23.7065C158.08 20.7686 155.594 19.6387 153.787 19.6387H148.702H145.086V23.0285V26.8703V30.2601V36.5878H148.702V30.2601H151.527L155.481 36.3618ZM148.589 22.9155H153.674L154.464 23.5935V25.9663L153.674 26.6443H148.589V22.9155Z" fill="#2E3A4B" fill-opacity="0.7"/>
<path id="Vector_9" d="M41.6949 8L28.1356 31.0509V8H19.548L0 41.6723V47.774H6.21469L19.548 25.4011V48H28.1356L41.6949 25.0621V31.2601V48H50.1695V8H41.6949Z" fill="#2E3A4B" fill-opacity="0.7"/>
</g>
</g>
</g>
</g>
</svg>
