<svg width="93" height="56" viewBox="0 0 93 56" fill="none" xmlns="http://www.w3.org/2000/svg">
<g id="RAF logo">
<g id="Clip path group">
<mask id="mask0_13450_203098" style="mask-type:luminance" maskUnits="userSpaceOnUse" x="0" y="8" width="93" height="40">
<g id="clip0_3347_54464">
<path id="Vector" d="M93 8H0V48H93V8Z" fill="white"/>
</g>
</mask>
<g mask="url(#mask0_13450_203098)">
<g id="Group">
<path id="Vector_2" d="M42.3772 23.3284C41.8461 23.6129 41.2445 23.739 40.6439 23.6918H39.105V19.8889H40.7107C41.3055 19.8583 41.8972 19.9938 42.4195 20.2802C42.9107 20.5967 43.2027 21.1452 43.191 21.7295C43.2163 22.3677 42.9081 22.9732 42.3772 23.3284ZM43.3769 25.5764C45.0889 25.0856 46.2514 23.4979 46.2021 21.7177C46.2884 19.9979 45.2624 18.4166 43.6567 17.7947C42.625 17.4122 41.5266 17.242 40.4276 17.2944H36.0762V30.8007H39.105V26.1527H39.4126C40.0208 26.1435 40.6053 26.3885 41.025 26.8288C42.0255 27.996 42.8724 29.2866 43.5451 30.6689L43.6153 30.8033H47.1275L46.9035 30.4323C45.9027 28.6937 44.7206 27.066 43.3769 25.5764Z" fill="#2E3A4B" fill-opacity="0.7"/>
<path id="Vector_3" d="M57.6816 24.0569C57.6816 26.6716 56.3692 28.3618 54.2286 28.3618C52.0745 28.3618 50.7316 26.6716 50.7316 24.0569C50.7316 21.4421 52.0745 19.752 54.2286 19.752C56.3692 19.752 57.6816 21.4413 57.6816 24.0569ZM54.2286 17.0595C52.5105 17.0006 50.8391 17.6251 49.5806 18.7962C48.2291 20.2047 47.5199 22.1091 47.6208 24.0585C47.6208 28.2527 50.2752 31.0728 54.2286 31.0728C58.1676 31.0728 60.7907 28.2536 60.7907 24.0585C60.7907 19.806 58.2284 17.0595 54.2286 17.0595Z" fill="#2E3A4B" fill-opacity="0.7"/>
<path id="Vector_4" d="M69.9937 17.2949L66.157 23.2537L64.4161 17.2949H61.2673L64.117 26.1371L60.9512 30.8012H64.3375L73.4105 17.2949H69.9937Z" fill="#2E3A4B" fill-opacity="0.7"/>
<path id="Vector_5" d="M86.7278 28.2102V17.2949H83.6973V30.8012H91.2618L92.3452 28.2102H86.7278Z" fill="#2E3A4B" fill-opacity="0.7"/>
<path id="Vector_6" d="M74.9545 24.9396L78.023 20.2595V24.9396H74.9545ZM81.0493 17.2949H76.9591L67.7129 30.8012H71.1152L73.2643 27.4842H78.023V30.8012H81.0535L81.0493 17.2949Z" fill="#2E3A4B" fill-opacity="0.7"/>
<path id="Vector_7" d="M27.9338 40.2356C27.4028 40.5193 26.8016 40.6451 26.2014 40.5981H24.6625V36.7952H26.2681C26.8628 36.7646 27.4543 36.9004 27.9761 37.1873C28.4671 37.5036 28.7592 38.0518 28.7476 38.6358C28.7729 39.2743 28.4647 39.88 27.9338 40.2356ZM28.9336 42.4827C30.6456 41.9925 31.8082 40.405 31.7587 38.6248C31.8449 36.9049 30.8189 35.3235 29.2133 34.7011C28.1817 34.3183 27.0833 34.1481 25.9842 34.2008H21.6328V47.7087H24.6625V43.0607H24.9692C25.5778 43.051 26.1627 43.2961 26.5825 43.7368C27.5829 44.904 28.4295 46.1945 29.1017 47.5769L29.1727 47.7113H32.6849L32.4601 47.3394C31.4591 45.6007 30.277 43.9727 28.9336 42.4827Z" fill="#2E3A4B" fill-opacity="0.7"/>
<path id="Vector_8" d="M65.6897 40.2356C65.1586 40.5192 64.5575 40.645 63.9572 40.5981H62.4183V36.7952H64.024C64.6184 36.7647 65.2096 36.9005 65.7311 37.1873C66.2221 37.5036 66.5142 38.0518 66.5027 38.6358C66.5281 39.2741 66.2202 39.8798 65.6897 40.2356ZM66.6886 42.4827C68.4006 41.9925 69.5632 40.405 69.5137 38.6248C69.6001 36.9049 68.5741 35.3232 66.9683 34.7011C65.937 34.3183 64.8389 34.1481 63.74 34.2008H59.3887V47.7087H62.4183V43.0607H62.7251C63.3339 43.0509 63.9191 43.296 64.3392 43.7368C65.3391 44.9043 66.1857 46.1948 66.8584 47.5769L66.9286 47.7113H70.4416L70.2177 47.3394C69.2158 45.6006 68.0329 43.9727 66.6886 42.4827Z" fill="#2E3A4B" fill-opacity="0.7"/>
<path id="Vector_9" d="M54.668 40.9836C54.668 43.5991 53.3539 45.2885 51.2141 45.2885C49.06 45.2885 47.718 43.5983 47.718 40.9836C47.718 38.3689 49.0592 36.6787 51.2133 36.6787C53.3539 36.6787 54.668 38.3689 54.668 40.9836ZM51.2133 33.9862C49.4951 33.9275 47.8237 34.5523 46.5653 35.7237C45.2146 37.1323 44.5059 39.0364 44.6072 40.9853C44.6072 45.1803 47.2616 47.9995 51.2133 47.9995C55.1649 47.9995 57.7754 45.1795 57.7754 40.9853C57.7754 36.7336 55.2157 33.9862 51.2133 33.9862Z" fill="#2E3A4B" fill-opacity="0.7"/>
<path id="Vector_10" d="M7.23991 41.8458L10.3059 37.1648V41.8458H7.23991ZM13.3356 34.2002H9.24447L0 47.7082H3.40065L5.54888 44.3895H10.3051V47.7082H13.3356V34.2002Z" fill="#2E3A4B" fill-opacity="0.7"/>
<path id="Vector_11" d="M15.8613 34.2002V47.7082H18.8918V34.2002H15.8613Z" fill="#2E3A4B" fill-opacity="0.7"/>
<path id="Vector_12" d="M39.1008 36.8048H43.9355L45.2776 34.2002H36.0762V47.7217H39.1008V42.2539H42.8141V39.6696H39.1008V36.8048Z" fill="#2E3A4B" fill-opacity="0.7"/>
<path id="Vector_13" d="M78.7046 45.287C77.705 45.3069 76.7176 45.0648 75.8406 44.5847C74.6289 43.7653 73.935 42.371 74.0118 40.9103C73.9909 39.9153 74.3079 38.9426 74.911 38.151C75.7745 37.1722 77.0428 36.6485 78.3454 36.733C79.3292 36.7316 80.3087 36.8623 81.2576 37.1217V34.3726C80.1904 34.1002 79.0928 33.9645 77.9913 33.9687C76.0959 33.9263 74.2552 34.6053 72.8413 35.8684C71.5304 37.2226 70.8151 39.0445 70.8545 40.9289C70.7954 42.9843 71.6272 44.9651 73.1363 46.362C74.6257 47.4806 76.4555 48.051 78.3167 47.9769C79.4171 47.9826 80.5128 47.8341 81.572 47.5358V44.9084C80.6372 45.161 79.6729 45.2883 78.7046 45.287Z" fill="#2E3A4B" fill-opacity="0.7"/>
<path id="Vector_14" d="M86.723 45.1146V42.1348H90.3891V39.5522H86.723V36.8048H91.4606L92.4823 34.2002H83.6934V47.7217H91.9635V45.1146H86.723Z" fill="#2E3A4B" fill-opacity="0.7"/>
<path id="Vector_15" d="M14.5649 12.7633C16.3532 10.9851 18.7751 9.99101 21.297 10.0001C26.5238 10.0305 30.7395 14.2867 30.7197 19.5137C30.7 24.7413 26.4515 28.9658 21.2239 28.956C15.997 28.9462 11.7648 24.7067 11.7637 19.48C11.7688 16.958 12.7766 14.5416 14.5649 12.7633Z" stroke="#2E3A4B" stroke-opacity="0.7" stroke-width="4"/>
<path id="Vector_16" d="M21.3055 15.6367C23.4263 15.6367 25.1463 17.3566 25.1465 19.4782C25.1465 21.6002 23.4266 23.3202 21.305 23.3203C19.183 23.3203 17.4631 21.6005 17.4629 19.4788C17.4623 17.3564 19.1831 15.6358 21.3055 15.6367Z" fill="#2E3A4B" fill-opacity="0.7"/>
</g>
</g>
</g>
</g>
</svg>
