<svg width="131" height="56" viewBox="0 0 131 56" fill="none" xmlns="http://www.w3.org/2000/svg">
<g id="TfL logo">
<g id="Clip path group">
<mask id="mask0_13450_203118" style="mask-type:luminance" maskUnits="userSpaceOnUse" x="0" y="8" width="131" height="40">
<g id="clip0_3347_54394">
<path id="Vector" d="M131 8H0V48H131V8Z" fill="white"/>
</g>
</mask>
<g mask="url(#mask0_13450_203118)">
<g id="Group">
<g id="Clip path group_2">
<mask id="mask1_13450_203118" style="mask-type:luminance" maskUnits="userSpaceOnUse" x="0" y="8" width="131" height="40">
<g id="clip1_3347_54394">
<path id="Vector_2" d="M130.768 8H0V48H130.768V8Z" fill="white"/>
</g>
</mask>
<g mask="url(#mask1_13450_203118)">
<g id="Group_2">
<path id="Vector_3" fill-rule="evenodd" clip-rule="evenodd" d="M5.04738 23.9678C6.91476 14.8584 14.9833 8 24.6561 8C34.315 8 42.3695 14.8584 44.2336 23.9678H49.232V32.0638H44.2264C42.3471 41.1574 34.2879 48 24.6401 48C14.9924 48 6.93314 41.1574 5.05384 32.0638H0V23.9678H5.04738ZM12.3954 32.0638C14.0962 37.2061 18.937 40.912 24.6401 40.912C30.3538 40.912 35.1956 37.1988 36.8987 32.0638H12.3954ZM36.9086 23.9678H12.3876C14.0812 18.8214 18.9282 15.104 24.6401 15.104C30.3649 15.104 35.2144 18.8214 36.9086 23.9678Z" fill="#2E3A4B" fill-opacity="0.7"/>
<path id="Vector_4" d="M130.561 36H56.6406V36.816H130.561V36Z" fill="#2E3A4B" fill-opacity="0.7"/>
<path id="Vector_5" d="M56.6406 44.6562V40.5762H59.2006V41.3922H57.6006V42.0962H58.8646V42.9282H57.6006V43.8082H59.3286V44.6562H56.6406Z" fill="#2E3A4B" fill-opacity="0.7"/>
<path id="Vector_6" d="M62.0324 44.6562H61.0244L59.5684 40.5762H60.6244L61.5364 43.3122L62.4324 40.5762H63.4884L62.0324 44.6562Z" fill="#2E3A4B" fill-opacity="0.7"/>
<path id="Vector_7" d="M63.9199 44.6562V40.5762H66.4799V41.3922H64.8799V42.0962H66.1439V42.9282H64.8799V43.8082H66.6079V44.6562H63.9199Z" fill="#2E3A4B" fill-opacity="0.7"/>
<path id="Vector_8" d="M68.0635 41.3442V42.3042H68.3995C68.5755 42.3042 68.7195 42.2562 68.8155 42.1602C68.9115 42.0642 68.9755 41.9522 68.9755 41.8082C68.9755 41.6802 68.9275 41.5682 68.8315 41.4722C68.7355 41.3922 68.6075 41.3442 68.4315 41.3442H68.0635ZM69.2635 44.6562L68.2555 43.1202H68.0635V44.6562H67.1035V40.5762H68.4955C68.9595 40.5762 69.3115 40.6882 69.5515 40.9122C69.7915 41.1362 69.9355 41.4402 69.9355 41.8242C69.9355 42.0802 69.8715 42.3042 69.7435 42.4962C69.6155 42.6882 69.4235 42.8322 69.1835 42.9282L70.3515 44.6722H69.2635V44.6562Z" fill="#2E3A4B" fill-opacity="0.7"/>
<path id="Vector_9" d="M72.8481 43.0082V44.6562H71.8881V43.0082L70.4961 40.5762H71.6001L72.3841 42.0962L73.1681 40.5762H74.2561L72.8481 43.0082Z" fill="#2E3A4B" fill-opacity="0.7"/>
<path id="Vector_10" d="M78.6393 43.3445C78.6393 43.7765 78.5113 44.1125 78.2713 44.3525C78.0313 44.6085 77.6793 44.7205 77.2473 44.7205C76.9913 44.7205 76.7673 44.6725 76.5913 44.5445C76.4153 44.4325 76.2553 44.2405 76.1113 43.9845L76.8473 43.5525C76.9433 43.7605 77.0713 43.8725 77.2313 43.8725C77.5193 43.8725 77.6633 43.6645 77.6633 43.2645V40.5605H78.6233V43.3445H78.6393Z" fill="#2E3A4B" fill-opacity="0.7"/>
<path id="Vector_11" d="M81.344 43.8717C81.696 43.8717 81.984 43.7597 82.208 43.5197C82.432 43.2797 82.56 42.9757 82.56 42.6237C82.56 42.2717 82.448 41.9677 82.208 41.7277C81.968 41.4877 81.68 41.3597 81.344 41.3597C80.992 41.3597 80.704 41.4877 80.48 41.7277C80.24 41.9677 80.128 42.2717 80.128 42.6237C80.128 42.9757 80.24 43.2797 80.48 43.5197C80.704 43.7597 80.992 43.8717 81.344 43.8717ZM81.344 44.7357C80.736 44.7357 80.208 44.5277 79.792 44.1277C79.376 43.7117 79.168 43.2157 79.168 42.6237C79.168 42.0317 79.376 41.5197 79.792 41.1197C80.208 40.7197 80.72 40.5117 81.344 40.5117C81.968 40.5117 82.48 40.7197 82.896 41.1197C83.312 41.5197 83.52 42.0317 83.52 42.6237C83.52 43.2317 83.312 43.7277 82.896 44.1437C82.48 44.5277 81.968 44.7357 81.344 44.7357Z" fill="#2E3A4B" fill-opacity="0.7"/>
<path id="Vector_12" d="M87.7596 42.7682C87.7596 43.1522 87.7116 43.4562 87.6316 43.6802C87.5516 43.8882 87.4236 44.0802 87.2636 44.2562C87.1036 44.4322 86.9116 44.5442 86.6716 44.6242C86.4476 44.7042 86.1756 44.7522 85.8556 44.7522C85.5676 44.7522 85.3116 44.7042 85.0876 44.6242C84.8636 44.5442 84.6716 44.4162 84.5116 44.2402C84.3516 44.0642 84.2236 43.8722 84.1436 43.6642C84.0636 43.4562 84.0156 43.1522 84.0156 42.7682V40.5762H84.9756V42.7362C84.9756 43.1202 85.0556 43.4082 85.2156 43.6002C85.3596 43.7922 85.5836 43.8882 85.8716 43.8882C86.4636 43.8882 86.7676 43.5042 86.7676 42.7362V40.5762H87.7276V42.7682H87.7596Z" fill="#2E3A4B" fill-opacity="0.7"/>
<path id="Vector_13" d="M89.376 41.3442V42.3042H89.712C89.888 42.3042 90.032 42.2562 90.128 42.1602C90.224 42.0642 90.288 41.9522 90.288 41.8082C90.288 41.6802 90.24 41.5682 90.144 41.4722C90.048 41.3922 89.92 41.3442 89.744 41.3442H89.376ZM90.56 44.6562L89.552 43.1202H89.376V44.6562H88.416V40.5762H89.808C90.256 40.5762 90.608 40.6882 90.864 40.9122C91.12 41.1362 91.248 41.4402 91.248 41.8242C91.248 42.0802 91.184 42.3042 91.056 42.4962C90.928 42.6882 90.736 42.8322 90.496 42.9282L91.664 44.6722H90.56V44.6562Z" fill="#2E3A4B" fill-opacity="0.7"/>
<path id="Vector_14" d="M94.8168 44.6562L93.0088 42.1282V44.6562H92.0488V40.5762H93.0248L94.8328 43.1362V40.5762H95.7928V44.6562H94.8168Z" fill="#2E3A4B" fill-opacity="0.7"/>
<path id="Vector_15" d="M96.4805 44.6562V40.5762H99.0245V41.3922H97.4245V42.0962H98.6885V42.9282H97.4245V43.8082H99.1525V44.6562H96.4805Z" fill="#2E3A4B" fill-opacity="0.7"/>
<path id="Vector_16" d="M101.744 43.0082V44.6562H100.8V43.0082L99.3926 40.5762H100.496L101.28 42.0962L102.064 40.5762H103.152L101.744 43.0082Z" fill="#2E3A4B" fill-opacity="0.7"/>
<path id="Vector_17" d="M108.544 44.6562V42.1282L107.408 43.5522L106.288 42.1282V44.6562H105.328V40.5762H106.24L107.408 42.1282L108.544 40.5762H109.504V44.6562H108.544Z" fill="#2E3A4B" fill-opacity="0.7"/>
<path id="Vector_18" d="M111.92 41.6962L111.472 43.0882H112.384L111.92 41.6962ZM112.912 44.6562L112.672 43.9202H111.2L110.96 44.6562H109.92L111.424 40.5762H112.384L113.936 44.6562H112.912Z" fill="#2E3A4B" fill-opacity="0.7"/>
<path id="Vector_19" d="M116.224 41.4242V44.6562H115.264V41.4242H114.176V40.5762H117.328V41.4242H116.224Z" fill="#2E3A4B" fill-opacity="0.7"/>
<path id="Vector_20" d="M119.648 41.4242V44.6562H118.688V41.4242H117.584V40.5762H120.736V41.4242H119.648Z" fill="#2E3A4B" fill-opacity="0.7"/>
<path id="Vector_21" d="M121.199 44.6562V40.5762H123.759V41.3922H122.159V42.0962H123.423V42.9282H122.159V43.8082H123.887V44.6562H121.199Z" fill="#2E3A4B" fill-opacity="0.7"/>
<path id="Vector_22" d="M125.343 41.3442V42.3042H125.679C125.855 42.3042 125.999 42.2562 126.095 42.1602C126.207 42.0642 126.255 41.9522 126.255 41.8082C126.255 41.6802 126.207 41.5682 126.111 41.4722C126.015 41.3922 125.887 41.3442 125.711 41.3442H125.343ZM126.527 44.6562L125.519 43.1202H125.327V44.6562H124.367V40.5762H125.759C126.207 40.5762 126.575 40.6882 126.831 40.9122C127.087 41.1362 127.199 41.4402 127.199 41.8242C127.199 42.0802 127.135 42.3042 127.007 42.4962C126.879 42.6882 126.703 42.8322 126.447 42.9282L127.615 44.6722H126.527V44.6562Z" fill="#2E3A4B" fill-opacity="0.7"/>
<path id="Vector_23" d="M127.855 43.8561L128.575 43.4241C128.719 43.7601 128.943 43.9201 129.247 43.9201C129.407 43.9201 129.551 43.8881 129.647 43.8081C129.743 43.7281 129.791 43.6321 129.791 43.5201C129.791 43.4081 129.759 43.3281 129.679 43.2481C129.599 43.1681 129.391 43.0561 129.055 42.8961C128.655 42.7201 128.399 42.5441 128.255 42.3521C128.111 42.1761 128.047 41.9361 128.047 41.6641C128.047 41.3281 128.175 41.0561 128.431 40.8321C128.687 40.6081 129.007 40.4961 129.391 40.4961C129.967 40.4961 130.367 40.7201 130.623 41.1681L129.951 41.6001C129.823 41.3921 129.631 41.2801 129.375 41.2801C129.247 41.2801 129.151 41.3121 129.071 41.3761C128.991 41.4401 128.943 41.5201 128.943 41.6321C128.943 41.7441 128.991 41.8241 129.071 41.8881C129.151 41.9521 129.343 42.0641 129.615 42.1921C130.031 42.3841 130.319 42.5761 130.495 42.7681C130.671 42.9601 130.751 43.2001 130.751 43.5041C130.751 43.8721 130.607 44.1601 130.319 44.4001C130.031 44.6401 129.679 44.7521 129.247 44.7521C128.623 44.7361 128.159 44.4481 127.855 43.8561Z" fill="#2E3A4B" fill-opacity="0.7"/>
<path id="Vector_24" d="M60.7043 12.8954V19.2474H58.8163V12.8954H56.6562V11.2314H62.8643V12.8954H60.7043Z" fill="#2E3A4B" fill-opacity="0.7"/>
<path id="Vector_25" d="M65.6653 12.7364V14.6244H66.3213C66.6573 14.6244 66.9453 14.5444 67.1533 14.3524C67.3613 14.1604 67.4573 13.9364 67.4573 13.6484C67.4573 13.3924 67.3613 13.1684 67.1693 13.0084C66.9773 12.8324 66.7213 12.7524 66.4013 12.7524H65.6653V12.7364ZM68.0173 19.2484L66.0333 16.2244H65.6653V19.2484H63.7773V11.2324H66.5133C67.4093 11.2324 68.0973 11.4564 68.5933 11.8884C69.0893 12.3204 69.3293 12.9124 69.3293 13.6644C69.3293 14.1764 69.2013 14.6084 68.9613 14.9764C68.7053 15.3444 68.3373 15.6324 67.8733 15.8244L70.1613 19.2484H68.0173Z" fill="#2E3A4B" fill-opacity="0.7"/>
<path id="Vector_26" d="M74.3833 13.4244L73.4873 16.1604H75.2953L74.3833 13.4244ZM76.3033 19.2484L75.8233 17.7924H72.9593L72.4953 19.2484H70.4473L73.4073 11.2324H75.3113L78.3513 19.2484H76.3033Z" fill="#2E3A4B" fill-opacity="0.7"/>
<path id="Vector_27" d="M84.6092 19.2484L81.0892 14.2884V19.2484H79.2012V11.2324H81.1052L84.6732 16.2564V11.2324H86.5612V19.2484H84.6092Z" fill="#2E3A4B" fill-opacity="0.7"/>
<path id="Vector_28" d="M87.5684 17.648L88.9924 16.8C89.2804 17.456 89.7124 17.776 90.3364 17.776C90.6564 17.776 90.9284 17.696 91.1204 17.552C91.3124 17.408 91.4084 17.216 91.4084 16.976C91.4084 16.768 91.3284 16.592 91.1844 16.432C91.0404 16.288 90.6244 16.048 89.9684 15.76C89.2004 15.424 88.6564 15.056 88.3844 14.688C88.0964 14.32 87.9684 13.872 87.9684 13.344C87.9684 12.704 88.2244 12.16 88.7204 11.712C89.2164 11.264 89.8564 11.04 90.6244 11.04C91.7444 11.04 92.5444 11.472 93.0404 12.352L91.7284 13.2C91.4884 12.784 91.1044 12.576 90.6084 12.576C90.3524 12.576 90.1604 12.64 90.0004 12.768C89.8404 12.896 89.7604 13.056 89.7604 13.248C89.7604 13.456 89.8404 13.616 90.0004 13.76C90.1604 13.904 90.5124 14.096 91.0724 14.352C91.8884 14.736 92.4644 15.12 92.8004 15.488C93.1364 15.872 93.2964 16.352 93.2964 16.928C93.2964 17.632 93.0084 18.224 92.4324 18.688C91.8564 19.152 91.1524 19.376 90.3204 19.376C89.0724 19.392 88.1604 18.816 87.5684 17.648Z" fill="#2E3A4B" fill-opacity="0.7"/>
<path id="Vector_29" d="M96.2239 12.7674V15.0874H96.8159C97.2639 15.0874 97.6159 14.9914 97.8399 14.7834C98.0799 14.5754 98.1919 14.3034 98.1919 13.9354C98.1919 13.5514 98.0799 13.2634 97.8399 13.0714C97.5999 12.8794 97.2639 12.7674 96.8159 12.7674H96.2239ZM96.2239 16.6234V19.2474H94.3359V11.2314H97.0239C97.9839 11.2314 98.7519 11.4714 99.2799 11.9514C99.8239 12.4314 100.096 13.0874 100.096 13.9034C100.096 14.7354 99.8079 15.4074 99.2319 15.8874C98.6559 16.3834 97.9039 16.6234 96.9439 16.6234H96.2239Z" fill="#2E3A4B" fill-opacity="0.7"/>
<path id="Vector_30" d="M105.12 17.7123C105.808 17.7123 106.368 17.4723 106.832 17.0083C107.28 16.5443 107.52 15.9523 107.52 15.2483C107.52 14.5443 107.296 13.9523 106.832 13.4883C106.368 13.0243 105.808 12.7843 105.12 12.7843C104.432 12.7843 103.872 13.0243 103.424 13.4883C102.976 13.9683 102.736 14.5443 102.736 15.2483C102.736 15.9523 102.96 16.5443 103.424 17.0083C103.872 17.4723 104.432 17.7123 105.12 17.7123ZM105.12 19.3923C103.904 19.3923 102.896 18.9923 102.08 18.1923C101.264 17.3923 100.848 16.4003 100.848 15.2323C100.848 14.0643 101.248 13.0723 102.064 12.2723C102.88 11.4723 103.888 11.0723 105.104 11.0723C106.32 11.0723 107.328 11.4723 108.16 12.2723C108.976 13.0723 109.392 14.0643 109.392 15.2323C109.392 16.4163 108.976 17.4083 108.16 18.1923C107.344 18.9923 106.336 19.3923 105.12 19.3923Z" fill="#2E3A4B" fill-opacity="0.7"/>
<path id="Vector_31" d="M112.353 12.7364V14.6244H113.009C113.361 14.6244 113.633 14.5444 113.841 14.3524C114.049 14.1604 114.145 13.9364 114.145 13.6484C114.129 13.3924 114.049 13.1684 113.857 13.0084C113.665 12.8324 113.409 12.7524 113.073 12.7524H112.353V12.7364ZM114.689 19.2484L112.705 16.2244H112.337V19.2484H110.449V11.2324H113.169C114.065 11.2324 114.769 11.4564 115.249 11.8884C115.745 12.3204 115.985 12.9124 115.985 13.6644C115.985 14.1764 115.857 14.6084 115.601 14.9764C115.345 15.3444 114.977 15.6324 114.513 15.8244L116.801 19.2484H114.689Z" fill="#2E3A4B" fill-opacity="0.7"/>
<path id="Vector_32" d="M121.247 12.8964V19.2484H119.359V12.8964H117.199V11.2324H123.407V12.8964H121.247Z" fill="#2E3A4B" fill-opacity="0.7"/>
<path id="Vector_33" d="M58.5286 25.5681V26.9281H61.0566V28.5601H58.5286V31.9681H56.6406V23.9521H61.7126V25.5681H58.5286Z" fill="#2E3A4B" fill-opacity="0.7"/>
<path id="Vector_34" d="M66.6235 30.4326C67.3115 30.4326 67.8716 30.1926 68.3356 29.7286C68.7836 29.2646 69.0235 28.6726 69.0235 27.9526C69.0235 27.2486 68.7996 26.6566 68.3356 26.1926C67.8876 25.7286 67.3115 25.4886 66.6235 25.4886C65.9355 25.4886 65.3755 25.7286 64.9275 26.1926C64.4795 26.6726 64.2395 27.2486 64.2395 27.9526C64.2395 28.6566 64.4635 29.2326 64.9275 29.7126C65.3755 30.1926 65.9515 30.4326 66.6235 30.4326ZM66.6235 32.1286C65.4075 32.1286 64.3995 31.7286 63.5835 30.9286C62.7675 30.1286 62.3516 29.1366 62.3516 27.9686C62.3516 26.8006 62.7515 25.8086 63.5675 25.0086C64.3835 24.2086 65.4075 23.8086 66.6075 23.8086C67.8235 23.8086 68.8315 24.2086 69.6475 25.0086C70.4635 25.8086 70.8795 26.8006 70.8795 27.9686C70.8795 29.1526 70.4635 30.1446 69.6475 30.9446C68.8475 31.7286 67.8395 32.1286 66.6235 32.1286Z" fill="#2E3A4B" fill-opacity="0.7"/>
<path id="Vector_35" d="M73.8564 25.4561V27.3441H74.5124C74.8644 27.3441 75.1364 27.2641 75.3444 27.0721C75.5524 26.8801 75.6484 26.6561 75.6484 26.3681C75.6484 26.1121 75.5524 25.8881 75.3604 25.7281C75.1684 25.5521 74.9124 25.4721 74.5764 25.4721H73.8564V25.4561ZM76.2084 31.9681L74.2244 28.9441H73.8724V31.9681H71.9844V23.9521H74.7204C75.6164 23.9521 76.3044 24.1761 76.8004 24.6081C77.2964 25.0401 77.5364 25.6321 77.5364 26.4001C77.5364 26.9121 77.4084 27.3441 77.1524 27.7121C76.8964 28.0801 76.5284 28.3681 76.0644 28.5601L78.3524 31.9841H76.2084V31.9681Z" fill="#2E3A4B" fill-opacity="0.7"/>
<path id="Vector_36" d="M81.6973 31.9681V23.9521H83.5853V30.3041H86.6573V31.9681H81.6973Z" fill="#2E3A4B" fill-opacity="0.7"/>
<path id="Vector_37" d="M91.5685 30.4326C92.2565 30.4326 92.8165 30.1926 93.2645 29.7286C93.7285 29.2646 93.9525 28.6726 93.9525 27.9526C93.9525 27.2486 93.7285 26.6566 93.2645 26.1926C92.8165 25.7286 92.2405 25.4886 91.5685 25.4886C90.8805 25.4886 90.3205 25.7286 89.8725 26.1926C89.4245 26.6726 89.1845 27.2486 89.1845 27.9526C89.1845 28.6566 89.4085 29.2326 89.8725 29.7126C90.3365 30.1926 90.8965 30.4326 91.5685 30.4326ZM91.5685 32.1286C90.3525 32.1286 89.3445 31.7286 88.5285 30.9286C87.7125 30.1286 87.3125 29.1366 87.3125 27.9686C87.3125 26.8006 87.7125 25.8086 88.5285 25.0086C89.3445 24.2086 90.3525 23.8086 91.5685 23.8086C92.7845 23.8086 93.7925 24.2086 94.6245 25.0086C95.4405 25.8086 95.8565 26.8006 95.8565 27.9686C95.8565 29.1526 95.4405 30.1446 94.6245 30.9446C93.8085 31.7286 92.7845 32.1286 91.5685 32.1286Z" fill="#2E3A4B" fill-opacity="0.7"/>
<path id="Vector_38" d="M102.32 31.9681L98.8001 27.0081V31.9681H96.9121V23.9521H98.8001L102.384 28.9761V23.9521H104.256V31.9681H102.32Z" fill="#2E3A4B" fill-opacity="0.7"/>
<path id="Vector_39" d="M107.472 25.5201V30.4161H107.984C108.848 30.4161 109.536 30.2081 110.032 29.7761C110.528 29.3441 110.768 28.7521 110.768 27.9841C110.768 27.2001 110.512 26.5921 110.032 26.1601C109.536 25.7441 108.864 25.5201 107.984 25.5201H107.472ZM105.584 31.9681V23.9521H108.176C109.536 23.9521 110.624 24.3041 111.44 25.0241C112.256 25.7281 112.656 26.7041 112.656 27.9201C112.656 29.2161 112.256 30.2081 111.44 30.9121C110.624 31.6161 109.504 31.9841 108.064 31.9841H105.584V31.9681Z" fill="#2E3A4B" fill-opacity="0.7"/>
<path id="Vector_40" d="M117.729 30.4326C118.417 30.4326 118.977 30.1926 119.441 29.7286C119.889 29.2646 120.129 28.6726 120.129 27.9526C120.129 27.2486 119.905 26.6566 119.441 26.1926C118.977 25.7286 118.417 25.4886 117.729 25.4886C117.041 25.4886 116.481 25.7286 116.033 26.1926C115.585 26.6726 115.345 27.2486 115.345 27.9526C115.345 28.6566 115.569 29.2326 116.033 29.7126C116.481 30.1926 117.041 30.4326 117.729 30.4326ZM117.729 32.1286C116.513 32.1286 115.505 31.7286 114.689 30.9286C113.873 30.1286 113.473 29.1366 113.473 27.9686C113.473 26.8006 113.873 25.8086 114.689 25.0086C115.505 24.2086 116.529 23.8086 117.729 23.8086C118.945 23.8086 119.953 24.2086 120.785 25.0086C121.601 25.8086 122.017 26.8006 122.017 27.9686C122.017 29.1526 121.601 30.1446 120.785 30.9446C119.953 31.7286 118.945 32.1286 117.729 32.1286Z" fill="#2E3A4B" fill-opacity="0.7"/>
<path id="Vector_41" d="M128.607 31.9681L125.087 27.0081V31.9681H123.199V23.9521H125.103L128.671 28.9761V23.9521H130.559V31.9681H128.607Z" fill="#2E3A4B" fill-opacity="0.7"/>
</g>
</g>
</g>
</g>
</g>
</g>
</g>
</svg>
