<svg width="186" height="56" viewBox="0 0 186 56" fill="none" xmlns="http://www.w3.org/2000/svg">
<g id="Wincanton logo">
<path id="Vector" fill-rule="evenodd" clip-rule="evenodd" d="M78.8017 21.5158C80.7504 21.474 82.6956 21.6986 84.5835 22.1833L83.3977 27.4128C82.0459 26.8746 80.6072 26.5876 79.1524 26.5657C76.4693 26.5004 74.1009 28.3076 73.4553 30.9127C72.6964 33.5621 73.7162 34.9428 76.364 34.9428C77.9387 34.8991 79.4974 34.6134 80.9853 34.0958L78.6357 39.3608C76.8492 39.7759 75.0218 39.9895 73.1877 39.9978C67.4279 39.9978 65.0342 36.8842 66.708 31.0566C67.245 29.1813 69.9012 21.5158 78.8017 21.5158ZM140.229 17.3112L138.727 21.9393H142.681L141.215 26.564H137.217C136.54 28.5444 135.942 30.169 135.269 32.5034C134.883 33.84 134.852 34.9394 136.336 34.9394C137.21 34.9114 138.077 34.7801 138.92 34.5481L136.638 39.4201C135.07 39.7978 133.463 39.9889 131.851 39.9893C128.463 39.9893 126.459 39.0712 127.546 35.2901C128.344 32.5017 129.535 29.6997 130.543 26.5607H127.89L129.393 21.9359H132.256L133.379 18.7545L140.229 17.3112ZM154.036 21.5124C159.547 21.5124 163.353 24.4821 161.659 30.4146C159.966 36.2656 154.509 40.2139 148.422 39.991C139.662 39.991 139.813 33.9145 140.604 31.1583C142.395 25.2845 147.894 21.3346 154.032 21.5124H154.036ZM97.3701 21.5124C102.945 21.5124 104.251 23.3759 103.404 26.315C103.26 26.8232 102.171 29.9386 101.075 33.1708L100.906 33.6689C100.148 35.9101 99.4131 38.1462 99.0099 39.5472H92.2338C92.349 39.244 92.4709 38.9323 92.5895 38.6239L92.4388 38.4359C90.8692 39.5079 88.9968 40.0477 87.0975 39.9758C80.6381 40.0351 81.9052 35.3138 82.0153 34.9241C84.1481 27.4805 95.5253 29.7726 96.4147 26.6691C96.7416 25.5053 95.5812 25.2546 94.6292 25.2546C91.9424 25.4064 89.2943 25.9656 86.7756 26.913L88.7305 22.6068C91.5651 21.9458 94.4603 21.5791 97.3701 21.5124ZM44.7905 21.9393C42.5069 27.8024 40.7773 33.701 39.0951 39.5675H31.748C33.8791 34.2313 35.6342 28.9696 37.7195 21.9393H44.7888H44.7905ZM8.73787 16C7.97893 21.5903 7.90609 27.0214 7.20306 32.4322H7.27421C10.0609 27.0231 13.2135 21.5903 15.9782 16H23.9605C23.0813 21.5463 22.4952 27.0214 21.8413 32.3949H21.9107C24.8143 26.9554 28.4514 21.5531 31.5668 16H38.453C33.5166 23.8434 28.6716 31.6993 23.9182 39.5675H14.9076C15.5344 34.6921 15.6987 29.9233 16.644 25.1529H16.5643C14.2452 29.9233 11.2891 34.6921 8.65655 39.5675H0C0.743684 31.6902 1.26206 23.8451 1.70421 16.0017H8.73787V16ZM179.89 21.5124C183.351 21.5124 185.979 22.8185 184.742 27.1265C184.712 27.2315 184.656 27.4094 184.573 27.6482L184.5 27.8685C184.081 29.1204 183.226 31.5954 182.369 34.1839L182.126 34.9157L181.967 35.4053L181.81 35.8931C181.391 37.1908 180.995 38.4596 180.678 39.5641H173.715C174.813 36.4945 176.011 33.4198 176.894 30.3485C177.392 28.6121 177.317 27.0214 175.264 27.0214C173.412 27.1562 171.769 28.2589 170.942 29.9216C169.446 33.0224 168.225 36.2483 167.292 39.5624H160.265C162.636 33.7366 164.581 27.838 166.377 21.9444H173.263L172.426 24.2398L172.481 24.311C174.476 22.4238 177.145 21.4158 179.89 21.5124ZM61.3565 21.5124C64.8208 21.5124 67.455 22.8185 66.215 27.1265C66.1845 27.2315 66.1286 27.4094 66.0456 27.6482L65.9727 27.8685C65.5543 29.1204 64.6971 31.5954 63.8383 34.1839L63.5977 34.9157L63.4385 35.4053L63.2809 35.8931C62.8625 37.1908 62.4678 38.4596 62.151 39.5641H55.1885C56.2794 36.4945 57.4822 33.4198 58.3648 30.3485C58.8544 28.6121 58.7849 27.0214 56.7334 27.0214C54.8815 27.1573 53.2384 28.2596 52.4103 29.9216C51.1718 32.3874 50.163 34.9619 49.3966 37.6126L49.1848 38.2631L48.763 39.5641H41.7361C44.1078 33.7383 46.0508 27.8397 47.8465 21.9461H54.7362L53.901 24.233L53.9501 24.3042C55.9466 22.4212 58.6138 21.4158 61.3565 21.5124ZM121.363 21.5124C124.825 21.5124 127.451 22.8185 126.215 27.1265C126.045 27.755 124.89 31.0143 123.763 34.4278L123.602 34.9157L123.443 35.4053L123.286 35.8931C122.867 37.1908 122.472 38.4596 122.156 39.5641H115.198C116.287 36.4945 117.489 33.4198 118.369 30.3485C118.866 28.6121 118.793 27.0214 116.745 27.0214C114.89 27.1548 113.242 28.2573 112.412 29.9216C111.087 32.5985 110.01 35.3906 109.193 38.2631L108.981 38.9136L108.771 39.5624H101.741C104.112 33.7366 106.054 27.838 107.851 21.9444H114.744L113.911 24.2398L113.96 24.311C115.954 22.4259 118.62 21.418 121.363 21.5124ZM95.0188 31.6767C93.4518 32.5965 89.3522 32.7388 88.7508 34.8191C88.4425 35.9118 89.3421 36.2303 90.2924 36.2303C91.6986 36.098 93.0209 35.502 94.0515 34.5362C94.375 33.5757 94.6935 32.6219 95.0188 31.675V31.6767ZM152.579 26.4573C149.967 26.4573 148.203 28.7883 147.541 31.0888C146.967 33.0997 147.399 35.0427 149.728 35.0427C152.379 35.0427 154.112 32.5728 154.751 30.3485C155.352 28.2598 154.874 26.4573 152.579 26.4573ZM46.4506 16.0085L45.0784 20.1809H38.3328L39.6033 16.0085H46.4506Z" fill="#2E3A4B" fill-opacity="0.7"/>
</g>
</svg>
