<svg width="24" height="24" viewBox="0 0 24 24" fill="none" xmlns="http://www.w3.org/2000/svg">
<g id="360_VR">
<path id="Union" fill-rule="evenodd" clip-rule="evenodd" d="M8 12V10.5C8 9.67 7.33 9 6.5 9C7.33 9 8 8.33 8 7.5V6C8 4.89 7.1 4 6 4H3C2.44772 4 2 4.44772 2 5C2 5.55228 2.44772 6 3 6H6V8H5C4.44772 8 4 8.44772 4 9C4 9.55229 4.44772 10 5 10H6V12H3C2.44772 12 2 12.4477 2 13C2 13.5523 2.44772 14 3 14H6C7.1 14 8 13.11 8 12ZM20 12H18V6H20V12ZM20 4H18C16.9 4 16 4.9 16 6V12C16 13.1 16.9 14 18 14H20C21.1 14 22 13.1 22 12V6C22 4.9 21.1 4 20 4ZM14 6C14.5523 6 15 5.55228 15 5C15 4.44772 14.5523 4 14 4H11C9.9 4 9 4.9 9 6V12C9 13.1 9.9 14 11 14H13C14.1 14 15 13.1 15 12V10C15 8.9 14.1 8 13 8H11V6H14ZM13 10V12H11V10H13ZM23 14C23 14.6436 22.845 15.5114 22.5 16C22.2134 16.7941 20.6206 18.1468 18.75 18.7427C18.3135 18.8818 18 19.277 18 19.7352V19.7643C18 20.4024 18.5914 20.8795 19.2019 20.6935C22.078 19.817 24 18.2343 24 16.4259C24 15.5623 23.7719 14.2091 23 13.5C22.9924 13.5493 22.9854 13.5963 22.9788 13.6414C22.9928 13.759 23 13.8787 23 14ZM0 15.9656C0 14.9052 0.320059 14.1016 1.06119 13.4961C1.01937 14.2858 1.2799 15.1953 1.84585 16.0144C3.00599 17.6934 5.06316 18.3513 6.99999 18.6956V17.897C6.99999 17.1843 7.8617 16.8273 8.36567 17.3313L10.4343 19.3999C10.7467 19.7123 10.7467 20.2189 10.4343 20.5313L8.36567 22.5999C7.8617 23.1039 6.99999 22.747 6.99999 22.0342V20.7356C2.93999 20.0956 0 18.2056 0 15.9656Z" fill="#2E3A4B" fill-opacity="0.7"/>
</g>
</svg>
