<svg width="24" height="24" viewBox="0 0 24 24" fill="none" xmlns="http://www.w3.org/2000/svg">
<g id="Acc_ok">
<path id="Union" fill-rule="evenodd" clip-rule="evenodd" d="M11.2505 13C14.0119 13 16.2505 10.7614 16.2505 8C16.2505 5.23858 14.0119 3 11.2505 3C8.48906 3 6.25049 5.23858 6.25049 8C6.25049 10.7614 8.48906 13 11.2505 13ZM11.2505 11C12.9073 11 14.2505 9.65685 14.2505 8C14.2505 6.34315 12.9073 5 11.2505 5C9.59363 5 8.25049 6.34315 8.25049 8C8.25049 9.65685 9.59363 11 11.2505 11ZM7.25 17C5.59315 17 4.25 18.3431 4.25 20C4.25 20.5523 3.80228 21 3.25 21C2.69772 21 2.25 20.5523 2.25 20C2.25 17.2386 4.48858 15 7.25 15H10.6432C10.922 15 11.1042 15.294 10.9772 15.5422C10.7374 16.0106 10.622 16.1944 10.205 16.8305C10.1357 16.9362 10.0177 17 9.89136 17H7.25ZM20.9995 16.251C21.4137 15.8368 21.4137 15.1652 20.9995 14.751C20.5853 14.3368 19.9137 14.3368 19.4995 14.751L16.7495 17.501L15.4995 16.251C15.0853 15.8368 14.4137 15.8368 13.9995 16.251C13.5853 16.6652 13.5853 17.3368 13.9995 17.751L16.738 20.4895C16.7444 20.4958 16.7547 20.4958 16.761 20.4895L20.9995 16.251Z" fill="#2E3A4B" fill-opacity="0.5"/>
</g>
</svg>
