<svg width="24" height="24" viewBox="0 0 24 24" fill="none" xmlns="http://www.w3.org/2000/svg">
<g id="arrow-decision">
<path id="Vector" d="M9.63951 13.4C8.62951 12.5 7.33951 12.03 5.99951 12V13.7929C5.99951 14.2383 5.46094 14.4614 5.14596 14.1464L1.99951 11L5.14596 7.85355C5.46094 7.53857 5.99951 7.76165 5.99951 8.20711V10C7.66951 10 9.29951 10.57 10.6295 11.59C10.2195 12.15 9.88951 12.76 9.63951 13.4ZM18.8531 14.1464C18.5381 14.4614 17.9995 14.2383 17.9995 13.7929V12C17.4995 12 13.4995 12.16 13.0495 16.2C14.6095 16.75 15.4295 18.47 14.8795 20.03C14.3295 21.59 12.6095 22.41 11.0495 21.86C9.49951 21.3 8.66951 19.59 9.21951 18.03C9.49951 17.17 10.1995 16.5 11.0495 16.2C11.3395 12.61 14.3995 9.88 17.9995 10V8.20711C17.9995 7.76165 18.5381 7.53857 18.8531 7.85355L21.9995 11L18.8531 14.1464ZM12.9995 19C12.9995 18.7348 12.8942 18.4804 12.7066 18.2929C12.5191 18.1054 12.2647 18 11.9995 18C11.7343 18 11.4799 18.1054 11.2924 18.2929C11.1049 18.4804 10.9995 18.7348 10.9995 19C10.9995 19.2652 11.1049 19.5196 11.2924 19.7071C11.4799 19.8946 11.7343 20 11.9995 20C12.2647 20 12.5191 19.8946 12.7066 19.7071C12.8942 19.5196 12.9995 19.2652 12.9995 19ZM10.9995 11.12C11.5795 10.46 12.2495 9.89 12.9995 9.43V5H14.7924C15.2379 5 15.4609 4.46143 15.146 4.14645L11.9995 1L8.85306 4.14645C8.53808 4.46143 8.76117 5 9.20662 5H10.9995V11.12Z" fill="#2E3A4B" fill-opacity="0.7"/>
</g>
</svg>
