<svg width="48" height="48" viewBox="0 0 48 48" fill="none" xmlns="http://www.w3.org/2000/svg">
<g id="cube-scan">
<path id="Vector" d="M34 44V40H40V34H44V41C44 41.78 43.68 42.48 43.08 43.08C42.48 43.68 41.78 44 41 44H34ZM14 44H7C6.22 44 5.52 43.68 4.92 43.08C4.32 42.48 4 41.78 4 41V34H8V40H14V44ZM34 4H41C41.78 4 42.48 4.32 43.08 4.92C43.68 5.52 44 6.22 44 7V14H40V8H34V4ZM14 4V8H8V14H4V7C4 6.22 4.32 5.52 4.92 4.92C5.52 4.32 6.22 4 7 4H14ZM26 34.5L34 29.9V20.72L26 25.32V34.5ZM24 21.84L32 17.26L24 12.56L16 17.26L24 21.84ZM14 29.9L22 34.5V25.32L14 20.72V29.9ZM36.46 15.18C37.46 15.82 38 16.68 38 17.82V30.46C38 31.6 37.46 32.46 36.46 33.1L25.5 39.46C24.5 40.1 23.5 40.1 22.5 39.46L11.54 33.1C10.54 32.46 10 31.6 10 30.46V17.82C10 16.68 10.54 15.82 11.54 15.18L22.5 8.82C23 8.56 23.5 8.44 24 8.44C24.5 8.44 25 8.56 25.5 8.82L36.46 15.18Z" fill="#2E3A4B" fill-opacity="0.5"/>
</g>
</svg>
