<svg width="24" height="24" viewBox="0 0 24 24" fill="none" xmlns="http://www.w3.org/2000/svg">
<g id="rocket_launch">
<path id="Vector" d="M5.64883 10.0268L7.59883 10.8518C7.83216 10.3851 8.07383 9.93515 8.32383 9.50181C8.57383 9.06848 8.84883 8.63515 9.14883 8.20181L7.74883 7.92682L5.64883 10.0268ZM9.19883 12.1018L12.0488 14.9268C12.7488 14.6601 13.4988 14.2518 14.2988 13.7018C15.0988 13.1518 15.8488 12.5268 16.5488 11.8268C17.7155 10.6601 18.628 9.36431 19.2863 7.93931C19.9447 6.51431 20.2322 5.20181 20.1488 4.00181C18.9488 3.91848 17.6322 4.20598 16.1988 4.86431C14.7655 5.52265 13.4655 6.43515 12.2988 7.60181C11.5988 8.30182 10.9738 9.05181 10.4238 9.85181C9.87383 10.6518 9.4655 11.4018 9.19883 12.1018ZM13.6488 10.4768C13.2655 10.0935 13.0738 9.62265 13.0738 9.06431C13.0738 8.50598 13.2655 8.03515 13.6488 7.65181C14.0322 7.26848 14.5072 7.07681 15.0738 7.07681C15.6405 7.07681 16.1155 7.26848 16.4988 7.65181C16.8822 8.03515 17.0738 8.50598 17.0738 9.06431C17.0738 9.62265 16.8822 10.0935 16.4988 10.4768C16.1155 10.8601 15.6405 11.0518 15.0738 11.0518C14.5072 11.0518 14.0322 10.8601 13.6488 10.4768ZM14.1238 18.5018L16.2238 16.4018L15.9488 15.0018C15.5155 15.3018 15.0822 15.5726 14.6488 15.8143C14.2155 16.056 13.7655 16.2935 13.2988 16.5268L14.1238 18.5018ZM21.9488 2.17681C22.2655 4.19348 22.0697 6.15598 21.3613 8.06431C20.653 9.97265 19.4322 11.7935 17.6988 13.5268L18.1988 16.0018C18.2655 16.3351 18.2488 16.6601 18.1488 16.9768C18.0488 17.2935 17.8822 17.5685 17.6488 17.8018L14.4953 20.9553C13.9945 21.4561 13.1461 21.2919 12.8683 20.6404L11.3488 17.0768L7.07383 12.8018L3.50583 11.2804C2.8555 11.0031 2.69043 10.157 3.18884 9.65557L6.32383 6.50181C6.55716 6.26848 6.83633 6.10181 7.16133 6.00181C7.48633 5.90181 7.8155 5.88515 8.14883 5.95181L10.6238 6.45181C12.3572 4.71848 14.1738 3.49348 16.0738 2.77681C17.9738 2.06015 19.9322 1.86015 21.9488 2.17681ZM3.92383 15.9768C4.50716 15.3935 5.21966 15.0976 6.06133 15.0893C6.903 15.081 7.6155 15.3685 8.19883 15.9518C8.78216 16.5351 9.06966 17.2476 9.06133 18.0893C9.053 18.931 8.75716 19.6435 8.17383 20.2268C7.75716 20.6435 7.06133 21.0018 6.08633 21.3018C5.11133 21.6018 3.76549 21.8685 2.04883 22.1018C2.28216 20.3851 2.54883 19.0393 2.84883 18.0643C3.14883 17.0893 3.50716 16.3935 3.92383 15.9768ZM5.34883 17.3768C5.18216 17.5435 5.0155 17.8476 4.84883 18.2893C4.68216 18.731 4.5655 19.1768 4.49883 19.6268C4.94883 19.5601 5.39466 19.4476 5.83633 19.2893C6.278 19.131 6.58216 18.9685 6.74883 18.8018C6.94883 18.6018 7.05716 18.3601 7.07383 18.0768C7.0905 17.7935 6.99883 17.5518 6.79883 17.3518C6.59883 17.1518 6.35716 17.056 6.07383 17.0643C5.79049 17.0726 5.54883 17.1768 5.34883 17.3768Z" fill="#2E3A4B" fill-opacity="0.5"/>
</g>
</svg>
