<svg width="48" height="48" viewBox="0 0 48 48" fill="none" xmlns="http://www.w3.org/2000/svg">
<g id="VR">
<path id="Vector" d="M42.1905 40H32.9777C31.4521 40 29.9852 39.3988 28.8703 38.2573L23.9999 33.2686L19.1295 38.2569C18.0145 39.3989 16.6066 39.9996 15.0221 39.9996L5.80932 40C2.64087 40 0 37.3555 0 34.05L0.000409312 13.95C0.000409312 10.7048 2.58239 8 5.80973 8H42.1907C45.3591 8 48 10.6445 48 13.95V34.05C47.9996 37.3556 45.3589 40 42.1905 40ZM24 28.9416C25.056 28.9416 26.054 29.3625 26.7579 30.1435L31.8043 35.3121C32.0978 35.6127 32.5083 35.793 32.9778 35.793H42.1906C43.1295 35.793 43.8336 35.0115 43.8336 34.1102V13.9501C43.8336 12.9884 43.0706 12.2673 42.1906 12.2673H5.80964C4.87068 12.2673 4.16662 13.0487 4.16662 13.9501V34.0501C4.16662 35.0118 4.92958 35.7329 5.80964 35.7329H15.0224C15.4919 35.7329 15.9025 35.5526 16.1959 35.252L21.2423 30.0834C21.9463 29.3624 22.944 28.9416 24 28.9416ZM14.9047 28.778C11.7362 28.778 9.09534 26.1335 9.09534 22.8281C9.09534 19.5829 11.6773 16.8781 14.9047 16.8781C18.132 16.8781 20.714 19.5226 20.714 22.8281C20.714 26.0737 18.0735 28.778 14.9047 28.778ZM14.9047 21.1457C13.9657 21.1457 13.2617 21.9271 13.2617 22.8285C13.2617 23.7902 14.0246 24.5113 14.9047 24.5113C15.7847 24.5113 16.5477 23.7299 16.5477 22.8285C16.5477 21.9267 15.8437 21.1457 14.9047 21.1457ZM33.0951 28.778C29.9267 28.778 27.2858 26.1335 27.2858 22.8281C27.2858 19.5829 29.8678 16.8781 33.0951 16.8781C36.2636 16.8781 38.9045 19.5226 38.9045 22.8281C38.8455 26.0737 36.2636 28.778 33.0951 28.778ZM33.0951 21.1457C32.1562 21.1457 31.4521 21.9271 31.4521 22.8285C31.4521 23.7902 32.2151 24.5113 33.0951 24.5113C34.0341 24.5113 34.7381 23.7299 34.7381 22.8285C34.7381 21.9267 33.9752 21.1457 33.0951 21.1457Z" fill="#2E3A4B" fill-opacity="0.5"/>
</g>
</svg>
