<svg width="40" height="40" viewBox="0 0 40 40" fill="none" xmlns="http://www.w3.org/2000/svg">
<path d="M29.9691 33.0005H10.0314C8.35713 33.0005 7 31.6433 7 29.9691V10.0314C7 8.35713 8.35713 7 10.0314 7H29.9688C31.643 7 33.0002 8.35713 33.0002 10.0314V29.9688C33.0005 31.6433 31.6433 33.0005 29.9691 33.0005Z" fill="#2E3A4B" stroke="white" stroke-miterlimit="10"/>
<path d="M10.994 11.5298L17.9822 20.8739L10.95 28.4708H12.5328L18.6896 21.8194L23.6641 28.4708H29.05L21.6685 18.6012L28.2141 11.5298H26.6313L20.9613 17.6554L16.38 11.5298H10.994ZM13.3216 12.6959H15.7959L26.7222 27.305H24.2479L13.3216 12.6959Z" fill="white"/>
</svg>
