<svg width="24" height="24" viewBox="0 0 24 24" fill="none" xmlns="http://www.w3.org/2000/svg">
<g id="Upgrade">
<g id="Vector">
<path d="M7 20C6.44772 20 6 19.5523 6 19C6 18.4477 6.44772 18 7 18H17C17.5523 18 18 18.4477 18 19C18 19.5523 17.5523 20 17 20H7ZM12 14C11.4477 14 11 13.5523 11 13V7.825L9.10168 9.70507C8.7136 10.0894 8.0879 10.0879 7.70169 9.70169C7.31416 9.31416 7.31416 8.68584 7.70169 8.29831L11.5787 4.42135C11.8114 4.18864 12.1886 4.18864 12.4213 4.42135L16.2983 8.29831C16.6858 8.68584 16.6858 9.31416 16.2983 9.70169C15.9121 10.0879 15.2864 10.0894 14.8983 9.70507L13 7.825V13C13 13.5523 12.5523 14 12 14Z" fill="#2E3A4B" fill-opacity="0.5"/>
<path d="M17 15H7C6.44772 15 6 15.4477 6 16C6 16.5523 6.44772 17 7 17H17C17.5523 17 18 16.5523 18 16C18 15.4477 17.5523 15 17 15Z" fill="#2E3A4B" fill-opacity="0.5"/>
</g>
</g>
</svg>
