<svg width="24" height="24" viewBox="0 0 24 24" fill="none" xmlns="http://www.w3.org/2000/svg">
<rect y="3" width="24" height="18" rx="2" fill="white"/>
<mask id="mask0_15410_140187" style="mask-type:luminance" maskUnits="userSpaceOnUse" x="0" y="3" width="24" height="18">
<rect y="3" width="24" height="18" rx="2" fill="white"/>
</mask>
<g mask="url(#mask0_15410_140187)">
<path fill-rule="evenodd" clip-rule="evenodd" d="M24 3H0V4.2H24V3ZM24 5.4H0V6.6H24V5.4ZM0 7.8H24V9H0V7.8ZM24 10.2H0V11.4H24V10.2ZM0 12.6H24V13.8H0V12.6ZM24 15H0V16.2H24V15ZM0 17.4H24V18.6H0V17.4ZM24 19.8H0V21H24V19.8Z" fill="#D02F44"/>
<rect y="3" width="10.2857" height="8.4" fill="#46467F"/>
<g filter="url(#filter0_d_15410_140187)">
<path fill-rule="evenodd" clip-rule="evenodd" d="M2.28592 4.8002C2.28592 5.13157 2.03009 5.4002 1.7145 5.4002C1.3989 5.4002 1.14307 5.13157 1.14307 4.8002C1.14307 4.46882 1.3989 4.2002 1.7145 4.2002C2.03009 4.2002 2.28592 4.46882 2.28592 4.8002ZM4.57164 4.8002C4.57164 5.13157 4.3158 5.4002 4.00021 5.4002C3.68462 5.4002 3.42878 5.13157 3.42878 4.8002C3.42878 4.46882 3.68462 4.2002 4.00021 4.2002C4.3158 4.2002 4.57164 4.46882 4.57164 4.8002ZM6.28592 5.4002C6.60152 5.4002 6.85735 5.13157 6.85735 4.8002C6.85735 4.46882 6.60152 4.2002 6.28592 4.2002C5.97033 4.2002 5.7145 4.46882 5.7145 4.8002C5.7145 5.13157 5.97033 5.4002 6.28592 5.4002ZM9.14307 4.8002C9.14307 5.13157 8.88723 5.4002 8.57164 5.4002C8.25605 5.4002 8.00021 5.13157 8.00021 4.8002C8.00021 4.46882 8.25605 4.2002 8.57164 4.2002C8.88723 4.2002 9.14307 4.46882 9.14307 4.8002ZM2.85735 6.6002C3.17294 6.6002 3.42878 6.33157 3.42878 6.0002C3.42878 5.66882 3.17294 5.4002 2.85735 5.4002C2.54176 5.4002 2.28592 5.66882 2.28592 6.0002C2.28592 6.33157 2.54176 6.6002 2.85735 6.6002ZM5.7145 6.0002C5.7145 6.33157 5.45866 6.6002 5.14307 6.6002C4.82748 6.6002 4.57164 6.33157 4.57164 6.0002C4.57164 5.66882 4.82748 5.4002 5.14307 5.4002C5.45866 5.4002 5.7145 5.66882 5.7145 6.0002ZM7.42878 6.6002C7.74437 6.6002 8.00021 6.33157 8.00021 6.0002C8.00021 5.66882 7.74437 5.4002 7.42878 5.4002C7.11319 5.4002 6.85735 5.66882 6.85735 6.0002C6.85735 6.33157 7.11319 6.6002 7.42878 6.6002ZM9.14307 7.2002C9.14307 7.53157 8.88723 7.8002 8.57164 7.8002C8.25605 7.8002 8.00021 7.53157 8.00021 7.2002C8.00021 6.86882 8.25605 6.6002 8.57164 6.6002C8.88723 6.6002 9.14307 6.86882 9.14307 7.2002ZM6.28592 7.8002C6.60152 7.8002 6.85735 7.53157 6.85735 7.2002C6.85735 6.86882 6.60152 6.6002 6.28592 6.6002C5.97033 6.6002 5.7145 6.86882 5.7145 7.2002C5.7145 7.53157 5.97033 7.8002 6.28592 7.8002ZM4.57164 7.2002C4.57164 7.53157 4.3158 7.8002 4.00021 7.8002C3.68462 7.8002 3.42878 7.53157 3.42878 7.2002C3.42878 6.86882 3.68462 6.6002 4.00021 6.6002C4.3158 6.6002 4.57164 6.86882 4.57164 7.2002ZM1.7145 7.8002C2.03009 7.8002 2.28592 7.53157 2.28592 7.2002C2.28592 6.86882 2.03009 6.6002 1.7145 6.6002C1.3989 6.6002 1.14307 6.86882 1.14307 7.2002C1.14307 7.53157 1.3989 7.8002 1.7145 7.8002ZM3.42878 8.4002C3.42878 8.73157 3.17294 9.0002 2.85735 9.0002C2.54176 9.0002 2.28592 8.73157 2.28592 8.4002C2.28592 8.06882 2.54176 7.8002 2.85735 7.8002C3.17294 7.8002 3.42878 8.06882 3.42878 8.4002ZM5.14307 9.0002C5.45866 9.0002 5.7145 8.73157 5.7145 8.4002C5.7145 8.06882 5.45866 7.8002 5.14307 7.8002C4.82748 7.8002 4.57164 8.06882 4.57164 8.4002C4.57164 8.73157 4.82748 9.0002 5.14307 9.0002ZM8.00021 8.4002C8.00021 8.73157 7.74437 9.0002 7.42878 9.0002C7.11319 9.0002 6.85735 8.73157 6.85735 8.4002C6.85735 8.06882 7.11319 7.8002 7.42878 7.8002C7.74437 7.8002 8.00021 8.06882 8.00021 8.4002ZM8.57164 10.2002C8.88723 10.2002 9.14307 9.93157 9.14307 9.60019C9.14307 9.26882 8.88723 9.0002 8.57164 9.0002C8.25605 9.0002 8.00021 9.26882 8.00021 9.60019C8.00021 9.93157 8.25605 10.2002 8.57164 10.2002ZM6.85735 9.60019C6.85735 9.93157 6.60152 10.2002 6.28592 10.2002C5.97033 10.2002 5.7145 9.93157 5.7145 9.60019C5.7145 9.26882 5.97033 9.0002 6.28592 9.0002C6.60152 9.0002 6.85735 9.26882 6.85735 9.60019ZM4.00021 10.2002C4.3158 10.2002 4.57164 9.93157 4.57164 9.60019C4.57164 9.26882 4.3158 9.0002 4.00021 9.0002C3.68462 9.0002 3.42878 9.26882 3.42878 9.60019C3.42878 9.93157 3.68462 10.2002 4.00021 10.2002ZM2.28592 9.60019C2.28592 9.93157 2.03009 10.2002 1.7145 10.2002C1.3989 10.2002 1.14307 9.93157 1.14307 9.60019C1.14307 9.26882 1.3989 9.0002 1.7145 9.0002C2.03009 9.0002 2.28592 9.26882 2.28592 9.60019Z" fill="url(#paint0_linear_15410_140187)"/>
</g>
</g>
<defs>
<filter id="filter0_d_15410_140187" x="1.14307" y="4.2002" width="8" height="7" filterUnits="userSpaceOnUse" color-interpolation-filters="sRGB">
<feFlood flood-opacity="0" result="BackgroundImageFix"/>
<feColorMatrix in="SourceAlpha" type="matrix" values="0 0 0 0 0 0 0 0 0 0 0 0 0 0 0 0 0 0 127 0" result="hardAlpha"/>
<feOffset dy="1"/>
<feColorMatrix type="matrix" values="0 0 0 0 0 0 0 0 0 0 0 0 0 0 0 0 0 0 0.06 0"/>
<feBlend mode="normal" in2="BackgroundImageFix" result="effect1_dropShadow_15410_140187"/>
<feBlend mode="normal" in="SourceGraphic" in2="effect1_dropShadow_15410_140187" result="shape"/>
</filter>
<linearGradient id="paint0_linear_15410_140187" x1="1.14307" y1="4.2002" x2="1.14307" y2="10.2002" gradientUnits="userSpaceOnUse">
<stop stop-color="white"/>
<stop offset="1" stop-color="#F0F0F0"/>
</linearGradient>
</defs>
</svg>
