<svg width="24" height="24" viewBox="0 0 24 24" fill="none" xmlns="http://www.w3.org/2000/svg">
<g id="User_group" clip-path="url(#clip0_13305_168629)">
<path id="Union" fill-rule="evenodd" clip-rule="evenodd" d="M8 9C8 6.79086 9.79086 5 12 5C14.2091 5 16 6.79086 16 9C16 11.2091 14.2091 13 12 13C9.79086 13 8 11.2091 8 9ZM10 9C10 7.89543 10.8954 7 12 7C13.1046 7 14 7.89543 14 9C14 10.1046 13.1046 11 12 11C10.8954 11 10 10.1046 10 9ZM21 12C21 13.1046 20.1046 14 19 14C17.8954 14 17 13.1046 17 12C17 10.8954 17.8954 10 19 10C20.1046 10 21 10.8954 21 12ZM20 19.3333H23.1111C23.3515 19.3333 23.5697 19.2379 23.7297 19.0828C23.8922 18.9396 24 18.7268 24 18.4444C24 15.9899 22.0101 15 19.5555 15H19H18.5732C19.4604 15.8217 20 17.0608 20 18.375V19.3333ZM3 12C3 13.1046 3.89543 14 5 14C6.10457 14 7 13.1046 7 12C7 10.8954 6.10457 10 5 10C3.89543 10 3 10.8954 3 12ZM4 19.3333H0.888889C0.648445 19.3333 0.430312 19.2379 0.270312 19.0828C0.107823 18.9396 0 18.7268 0 18.4444C0 15.9899 1.98986 15 4.44444 15H5H5.42684C4.5396 15.8217 4 17.0608 4 18.375V19.3333ZM7 19C7 17.3431 8.34315 16 10 16H14C15.6569 16 17 17.3431 17 19C17 19.5523 17.4477 20 18 20C18.5523 20 19 19.5523 19 19C19 16.2386 16.7614 14 14 14H10C7.23858 14 5 16.2386 5 19C5 19.5523 5.44772 20 6 20C6.55228 20 7 19.5523 7 19Z" fill="#2E3A4B" fill-opacity="0.7"/>
</g>
<defs>
<clipPath id="clip0_13305_168629">
<rect width="24" height="24" fill="white"/>
</clipPath>
</defs>
</svg>
