<svg width="24" height="24" viewBox="0 0 24 24" fill="none" xmlns="http://www.w3.org/2000/svg">
<g id="VR">
<path id="Vector" d="M21.0952 20H16.4888C15.7261 20 14.9926 19.6994 14.4351 19.1287L12 16.6343L9.56477 19.1284C9.00727 19.6994 8.30328 19.9998 7.51106 19.9998L2.90466 20C1.32043 20 0 18.6777 0 17.025L0.000204656 6.97499C0.000204656 5.35241 1.29119 4 2.90486 4H21.0953C22.6796 4 24 5.32225 24 6.97499V17.025C23.9998 18.6778 22.6795 20 21.0952 20ZM12 14.4708C12.528 14.4708 13.027 14.6813 13.379 15.0718L15.9022 17.6561C16.0489 17.8063 16.2542 17.8965 16.4889 17.8965H21.0953C21.5648 17.8965 21.9168 17.5058 21.9168 17.0551V6.97503C21.9168 6.49418 21.5353 6.13363 21.0953 6.13363H2.90482C2.43534 6.13363 2.08331 6.52434 2.08331 6.97503V17.025C2.08331 17.5059 2.46479 17.8664 2.90482 17.8664H7.51122C7.74596 17.8664 7.95123 17.7763 8.09796 17.626L10.6212 15.0417C10.9732 14.6812 11.472 14.4708 12 14.4708ZM7.45233 14.389C5.8681 14.389 4.54767 13.0668 4.54767 11.414C4.54767 9.79144 5.83866 8.43904 7.45233 8.43904C9.066 8.43904 10.357 9.76129 10.357 11.414C10.357 13.0368 9.03677 14.389 7.45233 14.389ZM7.45233 10.5728C6.98285 10.5728 6.63083 10.9636 6.63083 11.4142C6.63083 11.8951 7.0123 12.2556 7.45233 12.2556C7.89234 12.2556 8.27384 11.8649 8.27384 11.4142C8.27384 10.9634 7.92183 10.5728 7.45233 10.5728ZM16.5476 14.389C14.9633 14.389 13.6429 13.0668 13.6429 11.414C13.6429 9.79144 14.9339 8.43904 16.5476 8.43904C18.1318 8.43904 19.4522 9.76129 19.4522 11.414C19.4228 13.0368 18.1318 14.389 16.5476 14.389ZM16.5476 10.5728C16.0781 10.5728 15.7261 10.9636 15.7261 11.4142C15.7261 11.8951 16.1075 12.2556 16.5476 12.2556C17.017 12.2556 17.3691 11.8649 17.3691 11.4142C17.3691 10.9634 16.9876 10.5728 16.5476 10.5728Z" fill="#2E3A4B" fill-opacity="0.7"/>
</g>
</svg>
