<svg width="24" height="24" viewBox="0 0 24 24" fill="none" xmlns="http://www.w3.org/2000/svg">
<g id="VR_download" clip-path="url(#clip0_13087_150036)">
<path id="Vector" d="M23.2431 16.2308C23.2431 15.8059 22.8987 15.4615 22.4739 15.4615H18.32C17.8952 15.4615 17.5508 15.8059 17.5508 16.2308C17.5508 16.6556 17.8952 17 18.32 17H22.4739C22.8987 17 23.2431 16.6556 23.2431 16.2308ZM17.0936 11.389C16.7938 11.0892 16.7938 10.6031 17.0936 10.3033C17.393 10.0039 17.8783 10.0035 18.1782 10.3023L19.6277 11.7462V7.76923C19.6277 7.3444 19.9721 7 20.3969 7C20.8218 7 21.1662 7.3444 21.1662 7.76923V11.7462L22.6156 10.3023C22.9156 10.0035 23.4009 10.0039 23.7003 10.3033C24.0001 10.6031 24.0001 11.0892 23.7003 11.389L20.7749 14.3144C20.5661 14.5231 20.2277 14.5231 20.019 14.3144L17.0936 11.389Z" fill="#2E3A4B" fill-opacity="0.5"/>
<path id="Subtract" fill-rule="evenodd" clip-rule="evenodd" d="M18.224 5H2.90486C1.29119 5 0.000204656 6.35241 0.000204656 7.97499L0 16.025C0 17.6777 1.32043 19 2.90466 19L6.51106 18.9998C7.30328 18.9998 8.00727 18.6994 8.56477 18.1284L11 15.6343L13.4351 18.1287C13.9926 18.6994 14.7261 19 15.4888 19H18.224C17.2707 18.471 16.4368 17.753 15.773 16.8965H15.4889C15.2542 16.8965 15.0489 16.8063 14.9022 16.6561L12.379 14.0718C12.027 13.6813 11.528 13.4708 11 13.4708C10.472 13.4708 9.9732 13.6812 9.6212 14.0417L7.09796 16.626C6.95123 16.7763 6.74596 16.8664 6.51122 16.8664H2.90482C2.46479 16.8664 2.08331 16.5059 2.08331 16.025V7.97503C2.08331 7.52434 2.43534 7.13363 2.90482 7.13363H15.7498C16.4173 6.26386 17.2596 5.53517 18.224 5ZM14.8973 8.51421C13.6006 8.8194 12.6429 10.0165 12.6429 11.414C12.6429 12.6393 13.3687 13.683 14.3897 14.1409C14.2009 13.4595 14.1 12.7415 14.1 12C14.1 10.7505 14.3865 9.56783 14.8973 8.51421ZM6.45233 14.389C4.8681 14.389 3.54767 13.0668 3.54767 11.414C3.54767 9.79144 4.83866 8.43904 6.45233 8.43904C8.066 8.43904 9.357 9.76129 9.357 11.414C9.357 13.0368 8.03677 14.389 6.45233 14.389ZM6.45233 10.5728C5.98285 10.5728 5.63083 10.9636 5.63083 11.4142C5.63083 11.8951 6.0123 12.2556 6.45233 12.2556C6.89234 12.2556 7.27384 11.8649 7.27384 11.4142C7.27384 10.9634 6.92183 10.5728 6.45233 10.5728Z" fill="#2E3A4B" fill-opacity="0.5"/>
</g>
<defs>
<clipPath id="clip0_13087_150036">
<rect width="24" height="24" fill="white"/>
</clipPath>
</defs>
</svg>
